<?xml version="1.0" standalone="no"?>
<!DOCTYPE svg PUBLIC "-//W3C//DTD SVG 1.1//EN" "http://www.w3.org/Graphics/SVG/1.1/DTD/svg11.dtd" >
<svg xmlns="http://www.w3.org/2000/svg" xmlns:xlink="http://www.w3.org/1999/xlink" version="1.1">
<metadata>
Created by FontForge 20170731 at Wed Apr 19 20:22:49 2017
 By Aleksey,,,
Copyright (c) UEFA 2017. Exclusively designed for UEFA. All rights reserved.
</metadata>
<defs>
<font id="BridgeType-Regular" horiz-adv-x="520" >
  <font-face 
    font-family="Bridge Type"
    font-weight="400"
    font-stretch="normal"
    units-per-em="1000"
    panose-1="0 0 5 0 0 0 0 0 0 0"
    ascent="800"
    descent="-200"
    x-height="670"
    cap-height="670"
    bbox="-420 -200 1240 950"
    underline-thickness="50"
    underline-position="-200"
    unicode-range="U+0020-FB02"
  />
<missing-glyph horiz-adv-x="500" 
d="M410 800v-1000h-317v1000h317zM333 733h-165v-33h65v-37h-66v-33h166v33h-66v37h66v33zM267 604h-100v-104h166v34h-66v70zM233 570v-36h-33v36h33zM333 473h-166v-33h66v-37h-66v-33h100v70h66v33zM333 413h-33v-66h-133v-34h166v100zM333 291h-100v-56h34v23h33v-47
h-100v80h-33v-113h166v113zM333 118h-166v-113h166v113zM300 85v-47h-100v47h100zM333 -18h-166v-33h70l-70 -47v-33h166v33h-102l70 47h32v33z" />
    <glyph glyph-name="fi" unicode="fi" horiz-adv-x="840" 
d="M250 560q-90 0 -90 -85v-20q0 -85 90 -85h110v-110h-120q-95 0 -147.5 53.5t-52.5 141.5v20q0 88 52.5 141.5t147.5 53.5h220v-110h-210zM785 0q-90 0 -142.5 48t-52.5 142v280q0 50 -19 70t-56 20h-25v110h25q90 0 142.5 -48t52.5 -142v-280q0 -50 19 -70t56 -20h25
v-110h-25zM719 560q-22 73 -104 110h195v-110h-91zM40 355q35 -78 120 -104v-251h-120v355zM490 0v110h91q22 -73 104 -110h-195z" />
    <glyph glyph-name="fl" unicode="fl" horiz-adv-x="910" 
d="M250 560q-90 0 -90 -85v-20q0 -85 90 -85h110v-110h-120q-95 0 -147.5 53.5t-52.5 141.5v20q0 88 52.5 141.5t147.5 53.5h220v-110h-210zM710 110h190v-110h-200q-95 0 -147.5 53.5t-52.5 141.5v475h120v-475q0 -85 90 -85zM40 355q35 -78 120 -104v-251h-120v355z" />
    <glyph glyph-name=".notdef" horiz-adv-x="500" 
d="M410 800v-1000h-317v1000h317zM333 733h-165v-33h65v-37h-66v-33h166v33h-66v37h66v33zM267 604h-100v-104h166v34h-66v70zM233 570v-36h-33v36h33zM333 473h-166v-33h66v-37h-66v-33h100v70h66v33zM333 413h-33v-66h-133v-34h166v100zM333 291h-100v-56h34v23h33v-47
h-100v80h-33v-113h166v113zM333 118h-166v-113h166v113zM300 85v-47h-100v47h100zM333 -18h-166v-33h70l-70 -47v-33h166v33h-102l70 47h32v33z" />
    <glyph glyph-name=".null" horiz-adv-x="0" 
 />
    <glyph glyph-name="nonmarkingreturn" horiz-adv-x="333" 
 />
    <glyph glyph-name="space" unicode=" " horiz-adv-x="200" 
 />
    <glyph glyph-name="exclam" unicode="!" horiz-adv-x="200" 
d="M40 160v510h120v-510h-120zM40 0v120h120v-20q0 -100 -100 -100h-20z" />
    <glyph glyph-name="quotedbl" unicode="&#x22;" horiz-adv-x="320" 
d="M40 450v220h100v-130q0 -90 -90 -90h-10zM180 450v220h100v-130q0 -90 -90 -90h-10z" />
    <glyph glyph-name="numbersign" unicode="#" horiz-adv-x="640" 
d="M600 670l-87 -200h87v-90h-126l-38 -90h164v-90h-203l-87 -200h-100l87 200h-70l-87 -200h-100l87 200h-87v90h126l38 90h-164v90h203l87 200h100l-87 -200h70l87 200h100zM336 290l38 90h-70l-38 -90h70z" />
    <glyph glyph-name="dollar" unicode="$" 
d="M315 388q79 -10 122 -61.5t43 -131.5q0 -75 -37.5 -125t-107.5 -65v124q25 21 25 66q0 60 -45 77v-332h-110v342q-79 10 -122 61.5t-43 131.5q0 75 37.5 125t107.5 65v-124q-25 -21 -25 -66q0 -60 45 -77v332h110v-342zM360 475q0 45 -25 66v124q70 -15 107.5 -65
t37.5 -125h-120zM160 195q0 -45 25 -66v-124q-70 15 -107.5 65t-37.5 125h120z" />
    <glyph glyph-name="percent" unicode="%" horiz-adv-x="900" 
d="M232 670q76 0 118 -42.5t42 -113.5v-78q0 -71 -42 -113.5t-118 -42.5h-32q-76 0 -118 42.5t-42 113.5v78q0 71 42 113.5t118 42.5h32zM198 0l410 670h100l-410 -670h-100zM296 436v78q0 68 -72 68h-16q-72 0 -72 -68v-78q0 -68 72 -68h16q72 0 72 68zM700 390
q76 0 118 -42.5t42 -113.5v-78q0 -71 -42 -113.5t-118 -42.5h-32q-76 0 -118 42.5t-42 113.5v78q0 71 42 113.5t118 42.5h32zM764 156v78q0 68 -72 68h-16q-72 0 -72 -68v-78q0 -68 72 -68h16q72 0 72 68z" />
    <glyph glyph-name="ampersand" unicode="&#x26;" horiz-adv-x="560" 
d="M490 195q0 -59 -24 -103l74 -92h-140l-221 264q-29 -22 -29 -69q0 -85 90 -85h42l84 -99q-36 -11 -76 -11h-60q-95 0 -147.5 53.5t-52.5 141.5q0 109 76 161q-36 54 -36 119q0 88 52.5 141.5t147.5 53.5h20q95 0 147.5 -53.5t52.5 -141.5h-120q0 85 -90 85t-90 -85
q0 -23 7.5 -41.5t31.5 -48.5l141 -175v168q58 -20 89 -68t31 -115zM393 390h157v-110h-54q-28 78 -103 110z" />
    <glyph glyph-name="quotesingle" unicode="'" horiz-adv-x="180" 
d="M40 450v220h100v-130q0 -90 -90 -90h-10z" />
    <glyph glyph-name="parenleft" unicode="(" horiz-adv-x="290" 
d="M160 45q0 -85 90 -85h30v-110h-40q-95 0 -147.5 53.5t-52.5 141.5v580q0 88 52.5 141.5t147.5 53.5h40v-110h-30q-90 0 -90 -85v-580z" />
    <glyph glyph-name="parenright" unicode=")" horiz-adv-x="290" 
d="M130 45v580q0 85 -90 85h-30v110h40q95 0 147.5 -53.5t52.5 -141.5v-580q0 -88 -52.5 -141.5t-147.5 -53.5h-40v110h30q90 0 90 85z" />
    <glyph glyph-name="asterisk" unicode="*" horiz-adv-x="370" 
d="M330 560v-70h-65l44 -44l-49 -49l-40 40v-57h-70v65l-48 -48l-49 49l44 44h-57v70h57l-44 44l49 49l48 -48v65h70v-57l40 40l49 -49l-44 -44h65z" />
    <glyph glyph-name="plus" unicode="+" 
d="M480 390v-110h-165v-165h-110v165h-165v110h165v165h110v-165h165z" />
    <glyph glyph-name="comma" unicode="," horiz-adv-x="200" 
d="M40 -100l20 220h100l-13 -130q-10 -90 -97 -90h-10z" />
    <glyph glyph-name="hyphen" unicode="-" horiz-adv-x="380" 
d="M40 280v110h300v-110h-300z" />
    <glyph glyph-name="period" unicode="." horiz-adv-x="200" 
d="M40 0v120h120v-20q0 -100 -100 -100h-20z" />
    <glyph glyph-name="slash" unicode="/" horiz-adv-x="450" 
d="M20 0l310 670h100l-310 -670h-100z" />
    <glyph glyph-name="zero" unicode="0" 
d="M280 670q95 0 147.5 -53.5t52.5 -141.5v-280q0 -111 -78 -163l-242 429v-266q0 -85 90 -85h20q35 0 57 14l57 -102q-44 -22 -104 -22h-40q-95 0 -147.5 53.5t-52.5 141.5v280q0 111 78 163l242 -425v262q0 85 -90 85h-20q-35 0 -57 -14l-57 102q44 22 104 22h40z" />
    <glyph glyph-name="one" unicode="1" horiz-adv-x="280" 
d="M20 475v110h10q90 0 90 85h120q0 -88 -52.5 -141.5t-147.5 -53.5h-20zM120 0v466q85 26 120 104v-570h-120z" />
    <glyph glyph-name="two" unicode="2" horiz-adv-x="510" 
d="M160 195v-65h-120v65q0 88 52.5 141.5t147.5 53.5h30q90 0 90 85t-90 85h-20q-90 0 -90 -85h-120q0 88 52.5 141.5t147.5 53.5h40q95 0 147.5 -53.5t52.5 -141.5t-52.5 -141.5t-147.5 -53.5h-30q-90 0 -90 -85zM40 0v110h440v-110h-440z" />
    <glyph glyph-name="three" unicode="3" 
d="M250 560q-90 0 -90 -85h-120q0 88 52.5 141.5t147.5 53.5h40q95 0 147.5 -53.5t52.5 -141.5q0 -75 -38 -125q-42 44 -112 56q30 22 30 69q0 85 -90 85h-20zM280 390q95 0 147.5 -53.5t52.5 -141.5t-52.5 -141.5t-147.5 -53.5h-40q-95 0 -147.5 53.5t-52.5 141.5h120
q0 -85 90 -85h20q90 0 90 85t-80 85h-120v110h120z" />
    <glyph glyph-name="four" unicode="4" horiz-adv-x="530" 
d="M510 240v-110h-60v-130h-120v130h-180v35q0 39 20 69l4 6h156v267l-177 -262q-23 -34 -23 -80v-35h-120v45q0 64 62 156l165 244q64 95 162 95h51v-430h60z" />
    <glyph glyph-name="five" unicode="5" 
d="M160 449q-85 -26 -120 -104v325h420v-110h-300v-111zM280 440q95 0 147.5 -53.5t52.5 -141.5v-50q0 -88 -52.5 -141.5t-147.5 -53.5h-240v110h230q90 0 90 85v50q0 85 -90 85h-20q-90 0 -90 -85h-120q0 88 52.5 141.5t147.5 53.5h40z" />
    <glyph glyph-name="six" unicode="6" 
d="M280 390q95 0 147.5 -53.5t52.5 -141.5t-52.5 -141.5t-147.5 -53.5h-40q-95 0 -147.5 53.5t-52.5 141.5v180q35 -78 120 -104v-76q0 -85 90 -85h20q90 0 90 85t-90 85h-30q-95 0 -147.5 53.5t-52.5 141.5t52.5 141.5t147.5 53.5h40q95 0 147.5 -53.5t52.5 -141.5h-120
q0 85 -90 85h-20q-90 0 -90 -85t90 -85h30z" />
    <glyph glyph-name="seven" unicode="7" horiz-adv-x="500" 
d="M20 560v110h320v-35q0 -39 -20 -69l-4 -6h-296zM40 0v45q0 62 62 156l235 354q23 35 23 80v35h120v-45q0 -62 -62 -156l-235 -354q-23 -35 -23 -80v-35h-120z" />
    <glyph glyph-name="eight" unicode="8" 
d="M280 390q95 0 147.5 -53.5t52.5 -141.5t-52.5 -141.5t-147.5 -53.5h-40q-95 0 -147.5 53.5t-52.5 141.5q0 75 38 125q42 -44 112 -56q-30 -22 -30 -69q0 -85 90 -85h20q90 0 90 85t-80 85h-37q-96 0 -149 53.5t-51 141.5q0 88 52.5 141.5t147.5 53.5h37q95 0 147.5 -53.5
t52.5 -141.5q0 -75 -38 -125q-42 44 -112 56q30 22 30 69q0 85 -90 85h-17q-90 0 -90 -85t80 -85h37z" />
    <glyph glyph-name="nine" unicode="9" 
d="M480 295q-35 78 -120 104v76q0 85 -90 85h-20q-90 0 -90 -85t90 -85h30q95 0 147.5 -53.5t52.5 -141.5t-52.5 -141.5t-147.5 -53.5h-40q-95 0 -147.5 53.5t-52.5 141.5h120q0 -85 90 -85h20q90 0 90 85t-90 85h-30q-95 0 -147.5 53.5t-52.5 141.5t52.5 141.5t147.5 53.5
h40q95 0 147.5 -53.5t52.5 -141.5v-180z" />
    <glyph glyph-name="colon" unicode=":" horiz-adv-x="200" 
d="M40 380v120h120v-20q0 -100 -100 -100h-20zM40 0v120h120v-20q0 -100 -100 -100h-20z" />
    <glyph glyph-name="semicolon" unicode=";" horiz-adv-x="200" 
d="M40 380v120h120v-20q0 -100 -100 -100h-20zM40 -100l20 220h100l-13 -130q-10 -90 -97 -90h-10z" />
    <glyph glyph-name="less" unicode="&#x3c;" horiz-adv-x="370" 
d="M40 335q0 68 55 105l138 93q19 13 36.5 17.5t50.5 4.5h10v-120h-25q-10 0 -17 -5l-135 -95l135 -95q7 -5 17 -5h25v-120h-10q-33 0 -50.5 4.5t-36.5 17.5l-138 93q-55 37 -55 105z" />
    <glyph glyph-name="equal" unicode="=" 
d="M40 360v110h440v-110h-440zM40 200v110h440v-110h-440z" />
    <glyph glyph-name="greater" unicode="&#x3e;" horiz-adv-x="370" 
d="M330 335q0 -68 -55 -105l-138 -93q-19 -13 -36.5 -17.5t-50.5 -4.5h-10v120h25q10 0 17 5l135 95l-135 95q-7 5 -17 5h-25v120h10q33 0 50.5 -4.5t36.5 -17.5l138 -93q55 -37 55 -105z" />
    <glyph glyph-name="question" unicode="?" 
d="M280 160h-120v230h110q90 0 90 85t-90 85h-20q-90 0 -90 -85h-120q0 88 52.5 141.5t147.5 53.5h40q95 0 147.5 -53.5t52.5 -141.5t-52.5 -141.5t-147.5 -53.5v-120zM160 0v120h120v-20q0 -100 -100 -100h-20z" />
    <glyph glyph-name="at" unicode="@" horiz-adv-x="720" 
d="M480 670q95 0 147.5 -53.5t52.5 -141.5v-335h-239v234q0 68 -72 68h-16q-72 0 -72 -68v-78q0 -68 72 -68h16q39 0 56 19v-102q-23 -5 -48 -5h-32q-76 0 -118 42.5t-42 113.5v78q0 71 42 113.5t118 42.5h32q76 0 118 -42.5t42 -113.5v-154h53v255q0 110 -111 110h-238
q-111 0 -111 -110v-280q0 -110 111 -110h200v-85h-201q-95 0 -147.5 53.5t-52.5 141.5v280q0 88 52.5 141.5t147.5 53.5h240z" />
    <glyph glyph-name="A" unicode="A" 
d="M40 0v175q0 88 52.5 141.5t147.5 53.5h40q44 0 80 -17v52q0 10 -5 17l-97 136l-93 -136q-5 -7 -5 -17v-26q-85 -26 -120 -104v115q0 33 4.5 50.5t17.5 36.5l93 138q37 55 105 55q65 0 107 -60l91 -133q13 -19 17.5 -36.5t4.5 -50.5v-390h-120v175q0 85 -90 85h-20
q-90 0 -90 -85v-175h-120z" />
    <glyph glyph-name="B" unicode="B" 
d="M280 390q95 0 147.5 -53.5t52.5 -141.5t-52.5 -141.5t-147.5 -53.5h-240v670h240q95 0 147.5 -53.5t52.5 -141.5q0 -75 -38 -125q-42 44 -112 56q30 22 30 69q0 85 -90 85h-110v-170h120zM270 110q90 0 90 85t-80 85h-120v-170h110z" />
    <glyph glyph-name="C" unicode="C" horiz-adv-x="500" 
d="M160 195q0 -85 90 -85h230v-110h-240q-95 0 -147.5 53.5t-52.5 141.5v280q0 88 52.5 141.5t147.5 53.5h40q95 0 147.5 -53.5t52.5 -141.5h-120q0 85 -90 85h-20q-90 0 -90 -85v-280z" />
    <glyph glyph-name="D" unicode="D" 
d="M280 670q95 0 147.5 -53.5t52.5 -141.5v-280q0 -88 -52.5 -141.5t-147.5 -53.5h-240v670h240zM360 475q0 85 -90 85h-110v-450h110q90 0 90 85v280z" />
    <glyph glyph-name="E" unicode="E" horiz-adv-x="500" 
d="M240 260q-95 0 -147.5 53.5t-52.5 141.5v20q0 88 52.5 141.5t147.5 53.5h40q95 0 147.5 -53.5t52.5 -141.5h-120q0 85 -90 85h-20q-90 0 -90 -85v-20q0 -85 90 -85h110v-110h-120zM160 195q0 -85 90 -85h230v-110h-240q-95 0 -147.5 53.5t-52.5 141.5v160
q35 -78 120 -104v-56z" />
    <glyph glyph-name="F" unicode="F" horiz-adv-x="470" 
d="M250 560q-90 0 -90 -85v-20q0 -85 90 -85h110v-110h-120q-95 0 -147.5 53.5t-52.5 141.5v20q0 88 52.5 141.5t147.5 53.5h220v-110h-210zM40 355q35 -78 120 -104v-251h-120v355z" />
    <glyph glyph-name="G" unicode="G" horiz-adv-x="550" 
d="M280 390q95 0 147.5 -53.5t52.5 -141.5t-52.5 -141.5t-147.5 -53.5h-40q-95 0 -147.5 53.5t-52.5 141.5v280q0 88 52.5 141.5t147.5 53.5h40q95 0 147.5 -53.5t52.5 -141.5h-120q0 85 -90 85h-20q-90 0 -90 -85v-280q0 -85 90 -85h20q90 0 90 85t-90 85v110h10zM383 390
h157v-110h-54q-28 78 -103 110z" />
    <glyph glyph-name="H" unicode="H" 
d="M280 390q95 0 147.5 -53.5t52.5 -141.5v-195h-120v195q0 85 -90 85h-30q-95 0 -147.5 53.5t-52.5 141.5v195h120v-195q0 -85 90 -85h30zM360 670h120v-375q-35 78 -120 104v271zM40 375q35 -78 120 -104v-271h-120v375z" />
    <glyph glyph-name="I" unicode="I" horiz-adv-x="380" 
d="M325 0q-90 0 -142.5 48t-52.5 142v280q0 50 -19 70t-56 20h-25v110h25q90 0 142.5 -48t52.5 -142v-280q0 -50 19 -70t56 -20h25v-110h-25zM259 560q-22 73 -104 110h195v-110h-91zM30 0v110h91q22 -73 104 -110h-195z" />
    <glyph glyph-name="J" unicode="J" 
d="M360 670h120v-475q0 -88 -52.5 -141.5t-147.5 -53.5h-60q-95 0 -147.5 53.5t-52.5 141.5h120q0 -85 90 -85h40q90 0 90 85v475z" />
    <glyph glyph-name="K" unicode="K" 
d="M440 450q-15 -79 -63 -115q48 -36 63 -115l16 -90q4 -20 24 -20h20v-110h-10q-69 0 -106.5 31t-49.5 109l-10 66q-12 74 -84 74q-80 0 -80 -85v-195h-120v195q0 88 52.5 141.5t147.5 53.5q72 0 84 74l10 66q12 78 49.5 109t106.5 31h10v-110h-20q-20 0 -24 -20zM160 399
q-85 -26 -120 -104v375h120v-271z" />
    <glyph glyph-name="L" unicode="L" horiz-adv-x="450" 
d="M250 110h190v-110h-200q-95 0 -147.5 53.5t-52.5 141.5v475h120v-475q0 -85 90 -85z" />
    <glyph glyph-name="M" unicode="M" horiz-adv-x="640" 
d="M320 242q-68 0 -105 55l-113 172q-62 94 -62 156v45h120v-35q0 -45 23 -80l136 -201l138 201q23 35 23 80v35h120v-45q0 -63 -62 -156l-111 -167q-42 -60 -107 -60zM40 0v540q19 -43 45 -82l75 -113v-345h-120zM480 0v345l75 113q26 39 45 82v-540h-120z" />
    <glyph glyph-name="N" unicode="N" 
d="M360 0v35q0 45 -23 80l-235 354q-62 94 -62 156v45h120v-35q0 -45 23 -80l235 -354q62 -94 62 -156v-45h-120zM480 130q-16 36 -45 82l-75 113v345h120v-540zM40 0v540q19 -43 45 -82l75 -113v-345h-120z" />
    <glyph glyph-name="O" unicode="O" 
d="M280 670q95 0 147.5 -53.5t52.5 -141.5v-280q0 -88 -52.5 -141.5t-147.5 -53.5h-40q-95 0 -147.5 53.5t-52.5 141.5v280q0 88 52.5 141.5t147.5 53.5h40zM360 195v280q0 85 -90 85h-20q-90 0 -90 -85v-280q0 -85 90 -85h20q90 0 90 85z" />
    <glyph glyph-name="P" unicode="P" horiz-adv-x="500" 
d="M280 670q95 0 147.5 -53.5t52.5 -141.5t-52.5 -141.5t-147.5 -53.5h-30q-90 0 -90 -85v-195h-120v195q0 88 52.5 141.5t147.5 53.5h30q90 0 90 85t-90 85h-20q-90 0 -90 -85v-76q-85 -26 -120 -104v180q0 88 52.5 141.5t147.5 53.5h40z" />
    <glyph glyph-name="Q" unicode="Q" 
d="M330 126q30 22 30 69v280q0 85 -90 85h-20q-90 0 -90 -85v-280q0 -85 90 -85h30q95 0 147.5 -53.5t52.5 -141.5h-120q0 85 -80 85h-40q-95 0 -147.5 53.5t-52.5 141.5v280q0 88 52.5 141.5t147.5 53.5h40q95 0 147.5 -53.5t52.5 -141.5v-280q0 -75 -38 -125
q-42 44 -112 56z" />
    <glyph glyph-name="R" unicode="R" 
d="M480 110h20v-110h-10q-69 0 -106.5 31t-49.5 109l-10 66q-12 74 -84 74q-80 0 -80 -85v-195h-120v195q0 88 52.5 141.5t147.5 53.5h30q90 0 90 85t-90 85h-20q-90 0 -90 -85v-76q-85 -26 -120 -104v180q0 88 52.5 141.5t147.5 53.5h40q95 0 147.5 -53.5t52.5 -141.5
q0 -112 -83 -159q31 -34 43 -96l16 -90q4 -20 24 -20z" />
    <glyph glyph-name="S" unicode="S" horiz-adv-x="510" 
d="M280 390q95 0 147.5 -53.5t52.5 -141.5t-52.5 -141.5t-147.5 -53.5h-40q-95 0 -147.5 53.5t-52.5 141.5h120q0 -85 90 -85h20q90 0 90 85t-90 85h-30q-95 0 -147.5 53.5t-52.5 141.5t52.5 141.5t147.5 53.5h40q95 0 147.5 -53.5t52.5 -141.5h-120q0 85 -90 85h-20
q-90 0 -90 -85t90 -85h30z" />
    <glyph glyph-name="T" unicode="T" horiz-adv-x="460" 
d="M10 560v110h255q-82 -37 -104 -110h-151zM170 0v480q0 94 52.5 142t142.5 48h85v-110h-85q-37 0 -56 -20t-19 -70v-470h-120z" />
    <glyph glyph-name="U" unicode="U" 
d="M360 670h120v-475q0 -88 -52.5 -141.5t-147.5 -53.5h-40q-95 0 -147.5 53.5t-52.5 141.5v475h120v-475q0 -85 90 -85h20q90 0 90 85v475z" />
    <glyph glyph-name="V" unicode="V" 
d="M260 0q-68 0 -105 55l-93 138q-13 19 -17.5 36.5t-4.5 50.5v390h120v-405q0 -10 5 -17l161 -229q-30 -19 -66 -19zM346 35l-70 100l79 113q5 7 5 17v405h120v-390q0 -33 -4.5 -50.5t-17.5 -36.5l-91 -133q-9 -13 -21 -25z" />
    <glyph glyph-name="W" unicode="W" horiz-adv-x="840" 
d="M260 0q-68 0 -105 55l-93 138q-13 19 -17.5 36.5t-4.5 50.5v390h120v-405q0 -10 5 -17l161 -229q-30 -19 -66 -19zM580 0q-68 0 -105 55l-55 82l-53 -77q-9 -13 -21 -25l-70 100l79 113q5 7 5 17v405h120v-405q0 -10 5 -17l161 -229q-30 -19 -66 -19zM666 35l-70 100
l79 113q5 7 5 17v405h120v-390q0 -33 -4.5 -50.5t-17.5 -36.5l-91 -133q-9 -13 -21 -25z" />
    <glyph glyph-name="X" unicode="X" 
d="M490 0q-16 0 -30 3t-24 5.5t-22 12t-18 14t-18 21t-16.5 23t-19.5 29.5t-21 32l-267 400q-12 20 -24 20h-10v110h10q16 0 30 -3t24 -5.5t22 -12t18 -14t18 -21t16.5 -23t19.5 -29.5t21 -32l267 -400q12 -20 24 -20h10v-110h-10zM341 353l-69 104l49 73q6 9 21 32
t19.5 29.5t16.5 23t18 21t18 14t22 12t24 5.5t30 3h10v-110h-10q-12 0 -24 -20zM30 0h-10v110h10q12 0 24 20l125 187l69 -104l-49 -73q-6 -9 -21 -32t-19.5 -29.5t-16.5 -23t-18 -21t-18 -14t-22 -12t-24 -5.5t-30 -3z" />
    <glyph glyph-name="Y" unicode="Y" horiz-adv-x="500" 
d="M174 235l-122 178q-13 19 -17.5 36.5t-4.5 50.5v170h120v-185q0 -10 5 -17l82 -119q-49 -65 -63 -114zM190 0v205q0 43 47 110l108 153q5 7 5 17v185h120v-170q0 -33 -4.5 -50.5t-17.5 -36.5l-91 -133q-47 -70 -47 -110v-170h-120z" />
    <glyph glyph-name="Z" unicode="Z" horiz-adv-x="500" 
d="M30 0v45q0 62 62 156l235 354q23 35 23 80v35h120v-45q0 -62 -62 -156l-235 -354q-23 -35 -23 -80v-35h-120zM30 560v110h300v-35q0 -39 -20 -69l-4 -6h-276zM170 0v35q0 39 20 69l4 6h276v-110h-300z" />
    <glyph glyph-name="bracketleft" unicode="[" horiz-adv-x="290" 
d="M160 -40h120v-110h-240v970h240v-110h-120v-750z" />
    <glyph glyph-name="backslash" unicode="\" horiz-adv-x="450" 
d="M430 0h-100l-310 670h100z" />
    <glyph glyph-name="bracketright" unicode="]" horiz-adv-x="290" 
d="M130 -40v750h-120v110h240v-970h-240v110h120z" />
    <glyph glyph-name="asciicircum" unicode="^" horiz-adv-x="460" 
d="M358 371q39 -29 50.5 -47.5t11.5 -48.5v-15h-120v5q0 10 -4 15t-19 15l-47 31l-47 -31q-15 -10 -19 -15t-4 -15v-5h-120v15q0 30 11.5 48.5t50.5 47.5l128 94z" />
    <glyph glyph-name="underscore" unicode="_" horiz-adv-x="340" 
d="M20 -160v110h300v-110h-300z" />
    <glyph glyph-name="grave" unicode="`" horiz-adv-x="260" 
d="M130 855q0 -31 13 -48t52 -17h25v-80h-39q-67 0 -104 37.5t-37 107.5h90z" />
    <glyph glyph-name="a" unicode="a" 
d="M40 0v175q0 88 52.5 141.5t147.5 53.5h40q44 0 80 -17v52q0 10 -5 17l-97 136l-93 -136q-5 -7 -5 -17v-26q-85 -26 -120 -104v115q0 33 4.5 50.5t17.5 36.5l93 138q37 55 105 55q65 0 107 -60l91 -133q13 -19 17.5 -36.5t4.5 -50.5v-390h-120v175q0 85 -90 85h-20
q-90 0 -90 -85v-175h-120z" />
    <glyph glyph-name="b" unicode="b" 
d="M280 390q95 0 147.5 -53.5t52.5 -141.5t-52.5 -141.5t-147.5 -53.5h-240v670h240q95 0 147.5 -53.5t52.5 -141.5q0 -75 -38 -125q-42 44 -112 56q30 22 30 69q0 85 -90 85h-110v-170h120zM270 110q90 0 90 85t-80 85h-120v-170h110z" />
    <glyph glyph-name="c" unicode="c" horiz-adv-x="500" 
d="M160 195q0 -85 90 -85h230v-110h-240q-95 0 -147.5 53.5t-52.5 141.5v280q0 88 52.5 141.5t147.5 53.5h40q95 0 147.5 -53.5t52.5 -141.5h-120q0 85 -90 85h-20q-90 0 -90 -85v-280z" />
    <glyph glyph-name="d" unicode="d" 
d="M280 670q95 0 147.5 -53.5t52.5 -141.5v-280q0 -88 -52.5 -141.5t-147.5 -53.5h-240v670h240zM360 475q0 85 -90 85h-110v-450h110q90 0 90 85v280z" />
    <glyph glyph-name="e" unicode="e" horiz-adv-x="500" 
d="M240 260q-95 0 -147.5 53.5t-52.5 141.5v20q0 88 52.5 141.5t147.5 53.5h40q95 0 147.5 -53.5t52.5 -141.5h-120q0 85 -90 85h-20q-90 0 -90 -85v-20q0 -85 90 -85h110v-110h-120zM160 195q0 -85 90 -85h230v-110h-240q-95 0 -147.5 53.5t-52.5 141.5v160
q35 -78 120 -104v-56z" />
    <glyph glyph-name="f" unicode="f" horiz-adv-x="470" 
d="M250 560q-90 0 -90 -85v-20q0 -85 90 -85h110v-110h-120q-95 0 -147.5 53.5t-52.5 141.5v20q0 88 52.5 141.5t147.5 53.5h220v-110h-210zM40 355q35 -78 120 -104v-251h-120v355z" />
    <glyph glyph-name="g" unicode="g" horiz-adv-x="550" 
d="M280 390q95 0 147.5 -53.5t52.5 -141.5t-52.5 -141.5t-147.5 -53.5h-40q-95 0 -147.5 53.5t-52.5 141.5v280q0 88 52.5 141.5t147.5 53.5h40q95 0 147.5 -53.5t52.5 -141.5h-120q0 85 -90 85h-20q-90 0 -90 -85v-280q0 -85 90 -85h20q90 0 90 85t-90 85v110h10zM383 390
h157v-110h-54q-28 78 -103 110z" />
    <glyph glyph-name="h" unicode="h" 
d="M280 390q95 0 147.5 -53.5t52.5 -141.5v-195h-120v195q0 85 -90 85h-30q-95 0 -147.5 53.5t-52.5 141.5v195h120v-195q0 -85 90 -85h30zM360 670h120v-375q-35 78 -120 104v271zM40 375q35 -78 120 -104v-271h-120v375z" />
    <glyph glyph-name="i" unicode="i" horiz-adv-x="380" 
d="M325 0q-90 0 -142.5 48t-52.5 142v280q0 50 -19 70t-56 20h-25v110h25q90 0 142.5 -48t52.5 -142v-280q0 -50 19 -70t56 -20h25v-110h-25zM259 560q-22 73 -104 110h195v-110h-91zM30 0v110h91q22 -73 104 -110h-195z" />
    <glyph glyph-name="j" unicode="j" 
d="M360 670h120v-475q0 -88 -52.5 -141.5t-147.5 -53.5h-60q-95 0 -147.5 53.5t-52.5 141.5h120q0 -85 90 -85h40q90 0 90 85v475z" />
    <glyph glyph-name="k" unicode="k" 
d="M440 450q-15 -79 -63 -115q48 -36 63 -115l16 -90q4 -20 24 -20h20v-110h-10q-69 0 -106.5 31t-49.5 109l-10 66q-12 74 -84 74q-80 0 -80 -85v-195h-120v195q0 88 52.5 141.5t147.5 53.5q72 0 84 74l10 66q12 78 49.5 109t106.5 31h10v-110h-20q-20 0 -24 -20zM160 399
q-85 -26 -120 -104v375h120v-271z" />
    <glyph glyph-name="l" unicode="l" horiz-adv-x="450" 
d="M250 110h190v-110h-200q-95 0 -147.5 53.5t-52.5 141.5v475h120v-475q0 -85 90 -85z" />
    <glyph glyph-name="m" unicode="m" horiz-adv-x="640" 
d="M320 242q-68 0 -105 55l-113 172q-62 94 -62 156v45h120v-35q0 -45 23 -80l136 -201l138 201q23 35 23 80v35h120v-45q0 -63 -62 -156l-111 -167q-42 -60 -107 -60zM40 0v540q19 -43 45 -82l75 -113v-345h-120zM480 0v345l75 113q26 39 45 82v-540h-120z" />
    <glyph glyph-name="n" unicode="n" 
d="M360 0v35q0 45 -23 80l-235 354q-62 94 -62 156v45h120v-35q0 -45 23 -80l235 -354q62 -94 62 -156v-45h-120zM480 130q-16 36 -45 82l-75 113v345h120v-540zM40 0v540q19 -43 45 -82l75 -113v-345h-120z" />
    <glyph glyph-name="o" unicode="o" 
d="M280 670q95 0 147.5 -53.5t52.5 -141.5v-280q0 -88 -52.5 -141.5t-147.5 -53.5h-40q-95 0 -147.5 53.5t-52.5 141.5v280q0 88 52.5 141.5t147.5 53.5h40zM360 195v280q0 85 -90 85h-20q-90 0 -90 -85v-280q0 -85 90 -85h20q90 0 90 85z" />
    <glyph glyph-name="p" unicode="p" horiz-adv-x="500" 
d="M280 670q95 0 147.5 -53.5t52.5 -141.5t-52.5 -141.5t-147.5 -53.5h-30q-90 0 -90 -85v-195h-120v195q0 88 52.5 141.5t147.5 53.5h30q90 0 90 85t-90 85h-20q-90 0 -90 -85v-76q-85 -26 -120 -104v180q0 88 52.5 141.5t147.5 53.5h40z" />
    <glyph glyph-name="q" unicode="q" 
d="M330 126q30 22 30 69v280q0 85 -90 85h-20q-90 0 -90 -85v-280q0 -85 90 -85h30q95 0 147.5 -53.5t52.5 -141.5h-120q0 85 -80 85h-40q-95 0 -147.5 53.5t-52.5 141.5v280q0 88 52.5 141.5t147.5 53.5h40q95 0 147.5 -53.5t52.5 -141.5v-280q0 -75 -38 -125
q-42 44 -112 56z" />
    <glyph glyph-name="r" unicode="r" 
d="M480 110h20v-110h-10q-69 0 -106.5 31t-49.5 109l-10 66q-12 74 -84 74q-80 0 -80 -85v-195h-120v195q0 88 52.5 141.5t147.5 53.5h30q90 0 90 85t-90 85h-20q-90 0 -90 -85v-76q-85 -26 -120 -104v180q0 88 52.5 141.5t147.5 53.5h40q95 0 147.5 -53.5t52.5 -141.5
q0 -112 -83 -159q31 -34 43 -96l16 -90q4 -20 24 -20z" />
    <glyph glyph-name="s" unicode="s" horiz-adv-x="510" 
d="M280 390q95 0 147.5 -53.5t52.5 -141.5t-52.5 -141.5t-147.5 -53.5h-40q-95 0 -147.5 53.5t-52.5 141.5h120q0 -85 90 -85h20q90 0 90 85t-90 85h-30q-95 0 -147.5 53.5t-52.5 141.5t52.5 141.5t147.5 53.5h40q95 0 147.5 -53.5t52.5 -141.5h-120q0 85 -90 85h-20
q-90 0 -90 -85t90 -85h30z" />
    <glyph glyph-name="t" unicode="t" horiz-adv-x="460" 
d="M10 560v110h255q-82 -37 -104 -110h-151zM170 0v480q0 94 52.5 142t142.5 48h85v-110h-85q-37 0 -56 -20t-19 -70v-470h-120z" />
    <glyph glyph-name="u" unicode="u" 
d="M360 670h120v-475q0 -88 -52.5 -141.5t-147.5 -53.5h-40q-95 0 -147.5 53.5t-52.5 141.5v475h120v-475q0 -85 90 -85h20q90 0 90 85v475z" />
    <glyph glyph-name="v" unicode="v" 
d="M260 0q-68 0 -105 55l-93 138q-13 19 -17.5 36.5t-4.5 50.5v390h120v-405q0 -10 5 -17l161 -229q-30 -19 -66 -19zM346 35l-70 100l79 113q5 7 5 17v405h120v-390q0 -33 -4.5 -50.5t-17.5 -36.5l-91 -133q-9 -13 -21 -25z" />
    <glyph glyph-name="w" unicode="w" horiz-adv-x="840" 
d="M260 0q-68 0 -105 55l-93 138q-13 19 -17.5 36.5t-4.5 50.5v390h120v-405q0 -10 5 -17l161 -229q-30 -19 -66 -19zM580 0q-68 0 -105 55l-55 82l-53 -77q-9 -13 -21 -25l-70 100l79 113q5 7 5 17v405h120v-405q0 -10 5 -17l161 -229q-30 -19 -66 -19zM666 35l-70 100
l79 113q5 7 5 17v405h120v-390q0 -33 -4.5 -50.5t-17.5 -36.5l-91 -133q-9 -13 -21 -25z" />
    <glyph glyph-name="x" unicode="x" 
d="M490 0q-16 0 -30 3t-24 5.5t-22 12t-18 14t-18 21t-16.5 23t-19.5 29.5t-21 32l-267 400q-12 20 -24 20h-10v110h10q16 0 30 -3t24 -5.5t22 -12t18 -14t18 -21t16.5 -23t19.5 -29.5t21 -32l267 -400q12 -20 24 -20h10v-110h-10zM341 353l-69 104l49 73q6 9 21 32
t19.5 29.5t16.5 23t18 21t18 14t22 12t24 5.5t30 3h10v-110h-10q-12 0 -24 -20zM30 0h-10v110h10q12 0 24 20l125 187l69 -104l-49 -73q-6 -9 -21 -32t-19.5 -29.5t-16.5 -23t-18 -21t-18 -14t-22 -12t-24 -5.5t-30 -3z" />
    <glyph glyph-name="y" unicode="y" horiz-adv-x="500" 
d="M174 235l-122 178q-13 19 -17.5 36.5t-4.5 50.5v170h120v-185q0 -10 5 -17l82 -119q-49 -65 -63 -114zM190 0v205q0 43 47 110l108 153q5 7 5 17v185h120v-170q0 -33 -4.5 -50.5t-17.5 -36.5l-91 -133q-47 -70 -47 -110v-170h-120z" />
    <glyph glyph-name="z" unicode="z" horiz-adv-x="500" 
d="M30 0v45q0 62 62 156l235 354q23 35 23 80v35h120v-45q0 -62 -62 -156l-235 -354q-23 -35 -23 -80v-35h-120zM30 560v110h300v-35q0 -39 -20 -69l-4 -6h-276zM170 0v35q0 39 20 69l4 6h276v-110h-300z" />
    <glyph glyph-name="braceleft" unicode="{" horiz-adv-x="350" 
d="M220 475q0 -89 -51 -140q51 -51 51 -140v-150q0 -85 90 -85h30v-110h-40q-95 0 -147.5 53.5t-52.5 141.5v150q0 85 -90 85v110q90 0 90 85v150q0 88 52.5 141.5t147.5 53.5h40v-110h-30q-90 0 -90 -85v-150z" />
    <glyph glyph-name="bar" unicode="|" horiz-adv-x="180" 
d="M40 770h100v-870h-100v870z" />
    <glyph glyph-name="braceright" unicode="}" horiz-adv-x="350" 
d="M130 475v150q0 85 -90 85h-30v110h40q95 0 147.5 -53.5t52.5 -141.5v-150q0 -85 90 -85v-110q-90 0 -90 -85v-150q0 -88 -52.5 -141.5t-147.5 -53.5h-40v110h30q90 0 90 85v150q0 89 51 140q-51 51 -51 140z" />
    <glyph glyph-name="asciitilde" unicode="~" horiz-adv-x="500" 
d="M460 425h-100q0 -45 -36 -45q-20 0 -73.5 22.5t-99.5 22.5q-111 0 -111 -165h100q0 45 36 45q20 0 73.5 -22.5t99.5 -22.5q111 0 111 165z" />
    <glyph glyph-name="exclamdown" unicode="&#xa1;" horiz-adv-x="200" 
d="M160 670v-120h-120v20q0 100 100 100h20zM160 510v-510h-120v510h120z" />
    <glyph glyph-name="cent" unicode="&#xa2;" horiz-adv-x="500" 
d="M315 730v-620h165v-110h-165v-60h-110v62q-79 10 -122 61.5t-43 131.5v280q0 75 37.5 125t107.5 65v-124q-25 -21 -25 -66v-280q0 -60 45 -77v612h110zM360 475q0 45 -25 66v124q70 -15 107.5 -65t37.5 -125h-120z" />
    <glyph glyph-name="sterling" unicode="&#xa3;" horiz-adv-x="510" 
d="M280 670h200v-110h-190q-90 0 -90 -85v-85h200v-110h-370v110h50v85q0 88 52.5 141.5t147.5 53.5zM200 260v-150h280v-110h-450v110h50v150h120z" />
    <glyph glyph-name="currency" unicode="&#xa4;" 
d="M402 517q78 -50 78 -162v-40q0 -112 -78 -162l78 -153h-100l-62 122q-24 -2 -38 -2h-40q-14 0 -38 2l-62 -122h-100l78 153q-78 50 -78 162v40q0 112 78 162l-78 153h100l62 -122q24 2 38 2h40q14 0 38 -2l62 122h100zM270 230q90 0 90 85v40q0 85 -90 85h-20
q-90 0 -90 -85v-40q0 -85 90 -85h20z" />
    <glyph glyph-name="yen" unicode="&#xa5;" horiz-adv-x="500" 
d="M470 590q0 -33 -4.5 -50.5t-17.5 -36.5l-119 -173h131v-110h-420v110h131l-119 173q-13 19 -17.5 36.5t-4.5 50.5v80h120v-95q0 -10 5 -17l94 -136l96 136q5 7 5 17v95h120v-80zM190 0v200h120v-200h-120z" />
    <glyph glyph-name="brokenbar" unicode="&#xa6;" horiz-adv-x="180" 
d="M40 400v370h100v-370h-100zM40 -100v370h100v-370h-100z" />
    <glyph glyph-name="section" unicode="&#xa7;" 
d="M280 490q95 0 147.5 -53.5t52.5 -141.5h-120q0 85 -90 85h-30q-95 0 -147.5 53.5t-52.5 141.5t52.5 141.5t147.5 53.5h40q95 0 147.5 -53.5t52.5 -141.5h-120q0 85 -90 85h-20q-90 0 -90 -85t90 -85h30zM240 180q-95 0 -147.5 53.5t-52.5 141.5h120q0 -85 90 -85h30
q95 0 147.5 -53.5t52.5 -141.5t-52.5 -141.5t-147.5 -53.5h-40q-95 0 -147.5 53.5t-52.5 141.5h120q0 -85 90 -85h20q90 0 90 85t-90 85h-30z" />
    <glyph glyph-name="dieresis" unicode="&#xa8;" horiz-adv-x="400" 
d="M160 830v-120h-120v20q0 100 100 100h20zM240 710v120h120v-20q0 -100 -100 -100h-20z" />
    <glyph glyph-name="copyright" unicode="&#xa9;" horiz-adv-x="720" 
d="M480 670q95 0 147.5 -53.5t52.5 -141.5v-280q0 -88 -52.5 -141.5t-147.5 -53.5h-240q-95 0 -147.5 53.5t-52.5 141.5v280q0 88 52.5 141.5t147.5 53.5h240zM590 195v280q0 110 -111 110h-238q-111 0 -111 -110v-280q0 -110 111 -110h238q111 0 111 110zM280 283
q0 -68 72 -68h164v-88h-172q-76 0 -118 42.5t-42 113.5v104q0 71 42 113.5t118 42.5h32q76 0 118 -42.5t42 -113.5h-96q0 68 -72 68h-16q-72 0 -72 -68v-104z" />
    <glyph glyph-name="ordfeminine" unicode="&#xaa;" horiz-adv-x="432" 
d="M232 670q76 0 118 -42.5t42 -113.5v-234h-96v234q0 68 -72 68h-16q-72 0 -72 -68v-78q0 -68 72 -68h16q39 0 56 19v-102q-23 -5 -48 -5h-32q-76 0 -118 42.5t-42 113.5v78q0 71 42 113.5t118 42.5h32zM40 180v80h352v-80h-352z" />
    <glyph glyph-name="guillemotleft" unicode="&#xab;" horiz-adv-x="640" 
d="M40 335q0 68 55 105l138 93q19 13 36.5 17.5t50.5 4.5h10v-120h-25q-10 0 -17 -5l-135 -95l135 -95q7 -5 17 -5h25v-120h-10q-33 0 -50.5 4.5t-36.5 17.5l-138 93q-55 37 -55 105zM310 335q0 68 55 105l138 93q19 13 36.5 17.5t50.5 4.5h10v-120h-25q-10 0 -17 -5
l-135 -95l135 -95q7 -5 17 -5h25v-120h-10q-33 0 -50.5 4.5t-36.5 17.5l-138 93q-55 37 -55 105z" />
    <glyph glyph-name="logicalnot" unicode="&#xac;" horiz-adv-x="560" 
d="M520 390v-275h-110v165h-370v110h480z" />
    <glyph glyph-name="uni00AD" unicode="&#xad;" horiz-adv-x="380" 
d="M40 280v110h300v-110h-300z" />
    <glyph glyph-name="registered" unicode="&#xae;" horiz-adv-x="720" 
d="M480 670q95 0 147.5 -53.5t52.5 -141.5v-280q0 -88 -52.5 -141.5t-147.5 -53.5h-240q-95 0 -147.5 53.5t-52.5 141.5v280q0 88 52.5 141.5t147.5 53.5h240zM590 195v280q0 110 -111 110h-238q-111 0 -111 -110v-280q0 -110 111 -110h238q111 0 111 110zM528 215h6v-88
h-28q-36 0 -62 21t-37.5 46t-29.5 46t-41 21q-33 0 -43.5 -18t-10.5 -50v-66h-96v66q0 71 42 113.5t118 42.5h34q34 0 48 16t14 37t-14 37t-48 16h-26q-72 0 -72 -68v-31q-68 -20 -96 -83v114q0 71 42 113.5t118 42.5h32q76 0 118 -36t42 -95q0 -88 -86 -122q47 -61 58 -69
q8 -6 18 -6z" />
    <glyph glyph-name="macron" unicode="&#xaf;" horiz-adv-x="380" 
d="M40 710v90h300v-90h-300z" />
    <glyph glyph-name="degree" unicode="&#xb0;" horiz-adv-x="432" 
d="M232 670q76 0 118 -42.5t42 -113.5v-78q0 -71 -42 -113.5t-118 -42.5h-32q-76 0 -118 42.5t-42 113.5v78q0 71 42 113.5t118 42.5h32zM296 436v78q0 68 -72 68h-16q-72 0 -72 -68v-78q0 -68 72 -68h16q72 0 72 68z" />
    <glyph glyph-name="plusminus" unicode="&#xb1;" 
d="M315 465h165v-110h-165v-165h-110v165h-165v110h165v165h110v-165zM40 40v110h440v-110h-440z" />
    <glyph glyph-name="uni00B2" unicode="&#xb2;" horiz-adv-x="430" 
d="M135 390v-52h-96v52q0 71 42 113.5t118 42.5h24q72 0 72 68t-72 68h-16q-72 0 -72 -68h-96q0 71 42 113.5t118 42.5h32q76 0 118 -42.5t42 -113.5t-42 -113.5t-118 -42.5h-24q-72 0 -72 -68zM39 234v88h352v-88h-352z" />
    <glyph glyph-name="uni00B3" unicode="&#xb3;" horiz-adv-x="430" 
d="M207 682q-72 0 -72 -68h-96q0 71 42 113.5t118 42.5h32q76 0 118 -42.5t42 -113.5q0 -61 -30 -100q-35 34 -90 45q24 17 24 55q0 68 -72 68h-16zM231 546q76 0 118 -42.5t42 -113.5t-42 -113.5t-118 -42.5h-32q-76 0 -118 42.5t-42 113.5h96q0 -68 72 -68h16q72 0 72 68
t-64 68h-96v88h96z" />
    <glyph glyph-name="acute" unicode="&#xb4;" horiz-adv-x="260" 
d="M130 855h90q0 -70 -37 -107.5t-104 -37.5h-39v80h25q39 0 52 17t13 48z" />
    <glyph glyph-name="uni00B5" unicode="&#xb5;" 
d="M160 -200h-120v870h120v-870zM360 670h120v-475q0 -88 -52.5 -141.5t-147.5 -53.5h-40q-33 0 -60 6v128q22 -24 70 -24h20q90 0 90 85v475z" />
    <glyph glyph-name="paragraph" unicode="&#xb6;" horiz-adv-x="500" 
d="M240 670h100v-670h-80v280h-20q-95 0 -147.5 53.5t-52.5 141.5t52.5 141.5t147.5 53.5zM460 0h-80v670h80v-670z" />
    <glyph glyph-name="periodcentered" unicode="&#xb7;" horiz-adv-x="200" 
d="M40 275v120h120v-20q0 -100 -100 -100h-20z" />
    <glyph glyph-name="cedilla" unicode="&#xb8;" horiz-adv-x="235" 
d="M40 -90q31 0 48 13t17 52v25h90v-39q0 -65 -41 -98t-114 -33v80z" />
    <glyph glyph-name="uni00B9" unicode="&#xb9;" horiz-adv-x="430" 
d="M55 614v88h48q72 0 72 68h96q0 -71 -42 -113.5t-118 -42.5h-56zM175 338v269q68 20 96 83v-352h-96zM39 234v88h352v-88h-352z" />
    <glyph glyph-name="ordmasculine" unicode="&#xba;" horiz-adv-x="432" 
d="M232 670q76 0 118 -42.5t42 -113.5v-78q0 -71 -42 -113.5t-118 -42.5h-32q-76 0 -118 42.5t-42 113.5v78q0 71 42 113.5t118 42.5h32zM296 436v78q0 68 -72 68h-16q-72 0 -72 -68v-78q0 -68 72 -68h16q72 0 72 68zM40 180v80h352v-80h-352z" />
    <glyph glyph-name="guillemotright" unicode="&#xbb;" horiz-adv-x="640" 
d="M330 335q0 -68 -55 -105l-138 -93q-19 -13 -36.5 -17.5t-50.5 -4.5h-10v120h25q10 0 17 5l135 95l-135 95q-7 5 -17 5h-25v120h10q33 0 50.5 -4.5t36.5 -17.5l138 -93q55 -37 55 -105zM600 335q0 -68 -55 -105l-138 -93q-19 -13 -36.5 -17.5t-50.5 -4.5h-10v120h25
q10 0 17 5l135 95l-135 95q-7 5 -17 5h-25v120h10q33 0 50.5 -4.5t36.5 -17.5l138 -93q55 -37 55 -105z" />
    <glyph glyph-name="onequarter" unicode="&#xbc;" horiz-adv-x="1100" 
d="M55 514v88h48q72 0 72 68h96q0 -71 -42 -113.5t-118 -42.5h-56zM390 0l310 670h100l-310 -670h-100zM175 238v269q68 20 96 83v-352h-96zM1085 192v-88h-48v-104h-96v104h-144v28q0 31 16 55l3 5h125v214l-142 -210q-18 -27 -18 -64v-28h-96v36q0 52 50 125l132 195
q49 76 129 76h41v-344h48zM39 134v88h352v-88h-352z" />
    <glyph glyph-name="onehalf" unicode="&#xbd;" horiz-adv-x="1150" 
d="M55 514v88h48q72 0 72 68h96q0 -71 -42 -113.5t-118 -42.5h-56zM390 0l310 670h100l-310 -670h-100zM175 238v269q68 20 96 83v-352h-96zM855 156v-52h-96v52q0 71 42 113.5t118 42.5h24q72 0 72 68t-72 68h-16q-72 0 -72 -68h-96q0 71 42 113.5t118 42.5h32
q76 0 118 -42.5t42 -113.5t-42 -113.5t-118 -42.5h-24q-72 0 -72 -68zM39 134v88h352v-88h-352zM759 0v88h352v-88h-352z" />
    <glyph glyph-name="threequarters" unicode="&#xbe;" horiz-adv-x="1060" 
d="M207 582q-72 0 -72 -68h-96q0 71 42 113.5t118 42.5h32q76 0 118 -42.5t42 -113.5q0 -61 -30 -100q-35 34 -90 45q24 17 24 55q0 68 -72 68h-16zM350 0l310 670h100l-310 -670h-100zM1045 192v-88h-48v-104h-96v104h-144v28q0 31 16 55l3 5h125v214l-142 -210
q-18 -27 -18 -64v-28h-96v36q0 52 50 125l132 195q49 76 129 76h41v-344h48zM231 446q76 0 118 -42.5t42 -113.5t-42 -113.5t-118 -42.5h-32q-76 0 -118 42.5t-42 113.5h96q0 -68 72 -68h16q72 0 72 68t-64 68h-96v88h96z" />
    <glyph glyph-name="questiondown" unicode="&#xbf;" 
d="M360 670v-120h-120v20q0 100 100 100h20zM240 510h120v-230h-110q-90 0 -90 -85t90 -85h20q90 0 90 85h120q0 -88 -52.5 -141.5t-147.5 -53.5h-40q-95 0 -147.5 53.5t-52.5 141.5t52.5 141.5t147.5 53.5v120z" />
    <glyph glyph-name="Agrave" unicode="&#xc0;" 
d="M230 855q0 -31 13 -48t52 -17h25v-80h-39q-67 0 -104 37.5t-37 107.5h90zM40 0v175q0 88 52.5 141.5t147.5 53.5h40q44 0 80 -17v52q0 10 -5 17l-97 136l-93 -136q-5 -7 -5 -17v-26q-85 -26 -120 -104v115q0 33 4.5 50.5t17.5 36.5l93 138q37 55 105 55q65 0 107 -60
l91 -133q13 -19 17.5 -36.5t4.5 -50.5v-390h-120v175q0 85 -90 85h-20q-90 0 -90 -85v-175h-120z" />
    <glyph glyph-name="Aacute" unicode="&#xc1;" 
d="M290 855h90q0 -70 -37 -107.5t-104 -37.5h-39v80h25q39 0 52 17t13 48zM40 0v175q0 88 52.5 141.5t147.5 53.5h40q44 0 80 -17v52q0 10 -5 17l-97 136l-93 -136q-5 -7 -5 -17v-26q-85 -26 -120 -104v115q0 33 4.5 50.5t17.5 36.5l93 138q37 55 105 55q65 0 107 -60
l91 -133q13 -19 17.5 -36.5t4.5 -50.5v-390h-120v175q0 85 -90 85h-20q-90 0 -90 -85v-175h-120z" />
    <glyph glyph-name="Acircumflex" unicode="&#xc2;" 
d="M358 811q41 -27 51.5 -42t10.5 -44v-15h-90v5q0 10 -4 15t-19 15l-47 31l-47 -31q-15 -10 -19 -15t-4 -15v-5h-90v15q0 29 10.5 44t51.5 42l98 64zM40 0v175q0 88 52.5 141.5t147.5 53.5h40q44 0 80 -17v52q0 10 -5 17l-97 136l-93 -136q-5 -7 -5 -17v-26
q-85 -26 -120 -104v115q0 33 4.5 50.5t17.5 36.5l93 138q37 55 105 55q65 0 107 -60l91 -133q13 -19 17.5 -36.5t4.5 -50.5v-390h-120v175q0 85 -90 85h-20q-90 0 -90 -85v-175h-120z" />
    <glyph glyph-name="Atilde" unicode="&#xc3;" 
d="M450 855h-80q0 -55 -36 -55q-16 0 -33 8.5t-30.5 19t-37.5 19t-52 8.5q-111 0 -111 -145h80q0 55 36 55q19 0 40 -13.5t49 -27.5t64 -14q111 0 111 145zM40 0v175q0 88 52.5 141.5t147.5 53.5h40q44 0 80 -17v52q0 10 -5 17l-97 136l-93 -136q-5 -7 -5 -17v-26
q-85 -26 -120 -104v115q0 33 4.5 50.5t17.5 36.5l93 138q37 55 105 55q65 0 107 -60l91 -133q13 -19 17.5 -36.5t4.5 -50.5v-390h-120v175q0 85 -90 85h-20q-90 0 -90 -85v-175h-120z" />
    <glyph glyph-name="Adieresis" unicode="&#xc4;" 
d="M220 830v-120h-120v20q0 100 100 100h20zM300 710v120h120v-20q0 -100 -100 -100h-20zM40 0v175q0 88 52.5 141.5t147.5 53.5h40q44 0 80 -17v52q0 10 -5 17l-97 136l-93 -136q-5 -7 -5 -17v-26q-85 -26 -120 -104v115q0 33 4.5 50.5t17.5 36.5l93 138q37 55 105 55
q65 0 107 -60l91 -133q13 -19 17.5 -36.5t4.5 -50.5v-390h-120v175q0 85 -90 85h-20q-90 0 -90 -85v-175h-120z" />
    <glyph glyph-name="Aring" unicode="&#xc5;" 
d="M266 950q124 0 124 -120t-124 -120h-12q-124 0 -124 120t124 120h12zM263 786q43 0 43 44t-43 44h-6q-43 0 -43 -44t43 -44h6zM40 0v175q0 88 52.5 141.5t147.5 53.5h40q44 0 80 -17v52q0 10 -5 17l-97 136l-93 -136q-5 -7 -5 -17v-26q-85 -26 -120 -104v115
q0 33 4.5 50.5t17.5 36.5l93 138q37 55 105 55q65 0 107 -60l91 -133q13 -19 17.5 -36.5t4.5 -50.5v-390h-120v175q0 85 -90 85h-20q-90 0 -90 -85v-175h-120z" />
    <glyph glyph-name="AE" unicode="&#xc6;" horiz-adv-x="820" 
d="M160 379q-85 -26 -120 -104v115q0 33 4.5 50.5t17.5 36.5l93 138q37 55 105 55q65 0 107 -60l19 -28q50 88 174 88h40q95 0 147.5 -53.5t52.5 -141.5h-120q0 85 -90 85h-20q-90 0 -90 -85v-20q0 -85 90 -85h110v-110h-120q-76 0 -125 34t-67 96q-8 25 -23 46l-87 122
l-93 -136q-5 -7 -5 -17v-26zM480 195q0 -85 90 -85h230v-110h-240q-88 0 -144 50.5t-56 124.5q0 85 -90 85h-20q-90 0 -90 -85v-175h-120v175q0 88 52.5 141.5t147.5 53.5h40q44 0 80 -17q34 -76 120 -102v-56z" />
    <glyph glyph-name="Ccedilla" unicode="&#xc7;" horiz-adv-x="500" 
d="M160 195q0 -85 90 -85h230v-110h-150v-39q0 -65 -41 -98t-114 -33v80q31 0 48 13t17 52v25q-95 0 -147.5 53.5t-52.5 141.5v280q0 88 52.5 141.5t147.5 53.5h40q95 0 147.5 -53.5t52.5 -141.5h-120q0 85 -90 85h-20q-90 0 -90 -85v-280z" />
    <glyph glyph-name="Egrave" unicode="&#xc8;" horiz-adv-x="500" 
d="M230 855q0 -31 13 -48t52 -17h25v-80h-39q-67 0 -104 37.5t-37 107.5h90zM240 260q-95 0 -147.5 53.5t-52.5 141.5v20q0 88 52.5 141.5t147.5 53.5h40q95 0 147.5 -53.5t52.5 -141.5h-120q0 85 -90 85h-20q-90 0 -90 -85v-20q0 -85 90 -85h110v-110h-120zM160 195
q0 -85 90 -85h230v-110h-240q-95 0 -147.5 53.5t-52.5 141.5v160q35 -78 120 -104v-56z" />
    <glyph glyph-name="Eacute" unicode="&#xc9;" horiz-adv-x="500" 
d="M290 855h90q0 -70 -37 -107.5t-104 -37.5h-39v80h25q39 0 52 17t13 48zM240 260q-95 0 -147.5 53.5t-52.5 141.5v20q0 88 52.5 141.5t147.5 53.5h40q95 0 147.5 -53.5t52.5 -141.5h-120q0 85 -90 85h-20q-90 0 -90 -85v-20q0 -85 90 -85h110v-110h-120zM160 195
q0 -85 90 -85h230v-110h-240q-95 0 -147.5 53.5t-52.5 141.5v160q35 -78 120 -104v-56z" />
    <glyph glyph-name="Ecircumflex" unicode="&#xca;" horiz-adv-x="500" 
d="M358 811q41 -27 51.5 -42t10.5 -44v-15h-90v5q0 10 -4 15t-19 15l-47 31l-47 -31q-15 -10 -19 -15t-4 -15v-5h-90v15q0 29 10.5 44t51.5 42l98 64zM240 260q-95 0 -147.5 53.5t-52.5 141.5v20q0 88 52.5 141.5t147.5 53.5h40q95 0 147.5 -53.5t52.5 -141.5h-120
q0 85 -90 85h-20q-90 0 -90 -85v-20q0 -85 90 -85h110v-110h-120zM160 195q0 -85 90 -85h230v-110h-240q-95 0 -147.5 53.5t-52.5 141.5v160q35 -78 120 -104v-56z" />
    <glyph glyph-name="Edieresis" unicode="&#xcb;" horiz-adv-x="500" 
d="M220 830v-120h-120v20q0 100 100 100h20zM300 710v120h120v-20q0 -100 -100 -100h-20zM240 260q-95 0 -147.5 53.5t-52.5 141.5v20q0 88 52.5 141.5t147.5 53.5h40q95 0 147.5 -53.5t52.5 -141.5h-120q0 85 -90 85h-20q-90 0 -90 -85v-20q0 -85 90 -85h110v-110h-120z
M160 195q0 -85 90 -85h230v-110h-240q-95 0 -147.5 53.5t-52.5 141.5v160q35 -78 120 -104v-56z" />
    <glyph glyph-name="Igrave" unicode="&#xcc;" horiz-adv-x="380" 
d="M160 855q0 -31 13 -48t52 -17h25v-80h-39q-67 0 -104 37.5t-37 107.5h90zM325 0q-90 0 -142.5 48t-52.5 142v280q0 50 -19 70t-56 20h-25v110h25q90 0 142.5 -48t52.5 -142v-280q0 -50 19 -70t56 -20h25v-110h-25zM259 560q-22 73 -104 110h195v-110h-91zM30 0v110h91
q22 -73 104 -110h-195z" />
    <glyph glyph-name="Iacute" unicode="&#xcd;" horiz-adv-x="380" 
d="M220 855h90q0 -70 -37 -107.5t-104 -37.5h-39v80h25q39 0 52 17t13 48zM325 0q-90 0 -142.5 48t-52.5 142v280q0 50 -19 70t-56 20h-25v110h25q90 0 142.5 -48t52.5 -142v-280q0 -50 19 -70t56 -20h25v-110h-25zM259 560q-22 73 -104 110h195v-110h-91zM30 0v110h91
q22 -73 104 -110h-195z" />
    <glyph glyph-name="Icircumflex" unicode="&#xce;" horiz-adv-x="380" 
d="M288 811q41 -27 51.5 -42t10.5 -44v-15h-90v5q0 10 -4 15t-19 15l-47 31l-47 -31q-15 -10 -19 -15t-4 -15v-5h-90v15q0 29 10.5 44t51.5 42l98 64zM325 0q-90 0 -142.5 48t-52.5 142v280q0 50 -19 70t-56 20h-25v110h25q90 0 142.5 -48t52.5 -142v-280q0 -50 19 -70
t56 -20h25v-110h-25zM259 560q-22 73 -104 110h195v-110h-91zM30 0v110h91q22 -73 104 -110h-195z" />
    <glyph glyph-name="Idieresis" unicode="&#xcf;" horiz-adv-x="380" 
d="M150 830v-120h-120v20q0 100 100 100h20zM230 710v120h120v-20q0 -100 -100 -100h-20zM325 0q-90 0 -142.5 48t-52.5 142v280q0 50 -19 70t-56 20h-25v110h25q90 0 142.5 -48t52.5 -142v-280q0 -50 19 -70t56 -20h25v-110h-25zM259 560q-22 73 -104 110h195v-110h-91z
M30 0v110h91q22 -73 104 -110h-195z" />
    <glyph glyph-name="Eth" unicode="&#xd0;" 
d="M160 260v-150h110q90 0 90 85v280q0 85 -90 85h-110v-150h-120v260h240q95 0 147.5 -53.5t52.5 -141.5v-280q0 -88 -52.5 -141.5t-147.5 -53.5h-240v260h120zM0 280v110h260v-110h-260z" />
    <glyph glyph-name="Ntilde" unicode="&#xd1;" 
d="M450 855h-80q0 -55 -36 -55q-16 0 -33 8.5t-30.5 19t-37.5 19t-52 8.5q-111 0 -111 -145h80q0 55 36 55q19 0 40 -13.5t49 -27.5t64 -14q111 0 111 145zM360 0v35q0 45 -23 80l-235 354q-62 94 -62 156v45h120v-35q0 -45 23 -80l235 -354q62 -94 62 -156v-45h-120z
M480 130q-16 36 -45 82l-75 113v345h120v-540zM40 0v540q19 -43 45 -82l75 -113v-345h-120z" />
    <glyph glyph-name="Ograve" unicode="&#xd2;" 
d="M230 855q0 -31 13 -48t52 -17h25v-80h-39q-67 0 -104 37.5t-37 107.5h90zM280 670q95 0 147.5 -53.5t52.5 -141.5v-280q0 -88 -52.5 -141.5t-147.5 -53.5h-40q-95 0 -147.5 53.5t-52.5 141.5v280q0 88 52.5 141.5t147.5 53.5h40zM360 195v280q0 85 -90 85h-20
q-90 0 -90 -85v-280q0 -85 90 -85h20q90 0 90 85z" />
    <glyph glyph-name="Oacute" unicode="&#xd3;" 
d="M290 855h90q0 -70 -37 -107.5t-104 -37.5h-39v80h25q39 0 52 17t13 48zM280 670q95 0 147.5 -53.5t52.5 -141.5v-280q0 -88 -52.5 -141.5t-147.5 -53.5h-40q-95 0 -147.5 53.5t-52.5 141.5v280q0 88 52.5 141.5t147.5 53.5h40zM360 195v280q0 85 -90 85h-20
q-90 0 -90 -85v-280q0 -85 90 -85h20q90 0 90 85z" />
    <glyph glyph-name="Ocircumflex" unicode="&#xd4;" 
d="M358 811q41 -27 51.5 -42t10.5 -44v-15h-90v5q0 10 -4 15t-19 15l-47 31l-47 -31q-15 -10 -19 -15t-4 -15v-5h-90v15q0 29 10.5 44t51.5 42l98 64zM280 670q95 0 147.5 -53.5t52.5 -141.5v-280q0 -88 -52.5 -141.5t-147.5 -53.5h-40q-95 0 -147.5 53.5t-52.5 141.5v280
q0 88 52.5 141.5t147.5 53.5h40zM360 195v280q0 85 -90 85h-20q-90 0 -90 -85v-280q0 -85 90 -85h20q90 0 90 85z" />
    <glyph glyph-name="Otilde" unicode="&#xd5;" 
d="M450 855h-80q0 -55 -36 -55q-16 0 -33 8.5t-30.5 19t-37.5 19t-52 8.5q-111 0 -111 -145h80q0 55 36 55q19 0 40 -13.5t49 -27.5t64 -14q111 0 111 145zM280 670q95 0 147.5 -53.5t52.5 -141.5v-280q0 -88 -52.5 -141.5t-147.5 -53.5h-40q-95 0 -147.5 53.5t-52.5 141.5
v280q0 88 52.5 141.5t147.5 53.5h40zM360 195v280q0 85 -90 85h-20q-90 0 -90 -85v-280q0 -85 90 -85h20q90 0 90 85z" />
    <glyph glyph-name="Odieresis" unicode="&#xd6;" 
d="M220 830v-120h-120v20q0 100 100 100h20zM300 710v120h120v-20q0 -100 -100 -100h-20zM280 670q95 0 147.5 -53.5t52.5 -141.5v-280q0 -88 -52.5 -141.5t-147.5 -53.5h-40q-95 0 -147.5 53.5t-52.5 141.5v280q0 88 52.5 141.5t147.5 53.5h40zM360 195v280q0 85 -90 85
h-20q-90 0 -90 -85v-280q0 -85 90 -85h20q90 0 90 85z" />
    <glyph glyph-name="multiply" unicode="&#xd7;" horiz-adv-x="526" 
d="M486 480l-145 -145l145 -145l-78 -78l-145 145l-145 -145l-78 78l145 145l-145 145l78 78l145 -145l145 145z" />
    <glyph glyph-name="Oslash" unicode="&#xd8;" 
d="M480 670l-37 -72q37 -47 37 -123v-280q0 -88 -52.5 -141.5t-147.5 -53.5h-40q-42 0 -73 10l52 103q13 -3 31 -3h20q90 0 90 85v239l-220 -434h-100l36 72q-36 50 -36 123v280q0 88 52.5 141.5t147.5 53.5h40q42 0 73 -10l-53 -103q-14 3 -30 3h-20q-90 0 -90 -85v-239
l220 434h100z" />
    <glyph glyph-name="Ugrave" unicode="&#xd9;" 
d="M230 855q0 -31 13 -48t52 -17h25v-80h-39q-67 0 -104 37.5t-37 107.5h90zM360 670h120v-475q0 -88 -52.5 -141.5t-147.5 -53.5h-40q-95 0 -147.5 53.5t-52.5 141.5v475h120v-475q0 -85 90 -85h20q90 0 90 85v475z" />
    <glyph glyph-name="Uacute" unicode="&#xda;" 
d="M290 855h90q0 -70 -37 -107.5t-104 -37.5h-39v80h25q39 0 52 17t13 48zM360 670h120v-475q0 -88 -52.5 -141.5t-147.5 -53.5h-40q-95 0 -147.5 53.5t-52.5 141.5v475h120v-475q0 -85 90 -85h20q90 0 90 85v475z" />
    <glyph glyph-name="Ucircumflex" unicode="&#xdb;" 
d="M358 811q41 -27 51.5 -42t10.5 -44v-15h-90v5q0 10 -4 15t-19 15l-47 31l-47 -31q-15 -10 -19 -15t-4 -15v-5h-90v15q0 29 10.5 44t51.5 42l98 64zM360 670h120v-475q0 -88 -52.5 -141.5t-147.5 -53.5h-40q-95 0 -147.5 53.5t-52.5 141.5v475h120v-475q0 -85 90 -85h20
q90 0 90 85v475z" />
    <glyph glyph-name="Udieresis" unicode="&#xdc;" 
d="M220 830v-120h-120v20q0 100 100 100h20zM300 710v120h120v-20q0 -100 -100 -100h-20zM360 670h120v-475q0 -88 -52.5 -141.5t-147.5 -53.5h-40q-95 0 -147.5 53.5t-52.5 141.5v475h120v-475q0 -85 90 -85h20q90 0 90 85v475z" />
    <glyph glyph-name="Yacute" unicode="&#xdd;" horiz-adv-x="500" 
d="M280 855h90q0 -70 -37 -107.5t-104 -37.5h-39v80h25q39 0 52 17t13 48zM174 235l-122 178q-13 19 -17.5 36.5t-4.5 50.5v170h120v-185q0 -10 5 -17l82 -119q-49 -65 -63 -114zM190 0v205q0 43 47 110l108 153q5 7 5 17v185h120v-170q0 -33 -4.5 -50.5t-17.5 -36.5
l-91 -133q-47 -70 -47 -110v-170h-120z" />
    <glyph glyph-name="Thorn" unicode="&#xde;" horiz-adv-x="500" 
d="M280 540q95 0 147.5 -53.5t52.5 -141.5t-52.5 -141.5t-147.5 -53.5h-30q-90 0 -90 -85v-65h-120v65q0 88 52.5 141.5t147.5 53.5h30q90 0 90 85t-90 85h-20q-90 0 -90 -85v-76q-85 -26 -120 -104v505h120v-142q35 12 80 12h40z" />
    <glyph glyph-name="germandbls" unicode="&#xdf;" 
d="M270 560h-20q-90 0 -90 -85v-475h-120v475q0 88 52.5 141.5t147.5 53.5h40q95 0 147.5 -53.5t52.5 -141.5q0 -75 -38 -125q-42 44 -112 56q30 22 30 69q0 85 -90 85zM280 390q95 0 147.5 -53.5t52.5 -141.5t-52.5 -141.5t-147.5 -53.5h-60v110h50q90 0 90 85t-80 85h-60
v110h60z" />
    <glyph glyph-name="agrave" unicode="&#xe0;" 
d="M230 855q0 -31 13 -48t52 -17h25v-80h-39q-67 0 -104 37.5t-37 107.5h90zM40 0v175q0 88 52.5 141.5t147.5 53.5h40q44 0 80 -17v52q0 10 -5 17l-97 136l-93 -136q-5 -7 -5 -17v-26q-85 -26 -120 -104v115q0 33 4.5 50.5t17.5 36.5l93 138q37 55 105 55q65 0 107 -60
l91 -133q13 -19 17.5 -36.5t4.5 -50.5v-390h-120v175q0 85 -90 85h-20q-90 0 -90 -85v-175h-120z" />
    <glyph glyph-name="aacute" unicode="&#xe1;" 
d="M290 855h90q0 -70 -37 -107.5t-104 -37.5h-39v80h25q39 0 52 17t13 48zM40 0v175q0 88 52.5 141.5t147.5 53.5h40q44 0 80 -17v52q0 10 -5 17l-97 136l-93 -136q-5 -7 -5 -17v-26q-85 -26 -120 -104v115q0 33 4.5 50.5t17.5 36.5l93 138q37 55 105 55q65 0 107 -60
l91 -133q13 -19 17.5 -36.5t4.5 -50.5v-390h-120v175q0 85 -90 85h-20q-90 0 -90 -85v-175h-120z" />
    <glyph glyph-name="acircumflex" unicode="&#xe2;" 
d="M358 811q41 -27 51.5 -42t10.5 -44v-15h-90v5q0 10 -4 15t-19 15l-47 31l-47 -31q-15 -10 -19 -15t-4 -15v-5h-90v15q0 29 10.5 44t51.5 42l98 64zM40 0v175q0 88 52.5 141.5t147.5 53.5h40q44 0 80 -17v52q0 10 -5 17l-97 136l-93 -136q-5 -7 -5 -17v-26
q-85 -26 -120 -104v115q0 33 4.5 50.5t17.5 36.5l93 138q37 55 105 55q65 0 107 -60l91 -133q13 -19 17.5 -36.5t4.5 -50.5v-390h-120v175q0 85 -90 85h-20q-90 0 -90 -85v-175h-120z" />
    <glyph glyph-name="atilde" unicode="&#xe3;" 
d="M450 855h-80q0 -55 -36 -55q-16 0 -33 8.5t-30.5 19t-37.5 19t-52 8.5q-111 0 -111 -145h80q0 55 36 55q19 0 40 -13.5t49 -27.5t64 -14q111 0 111 145zM40 0v175q0 88 52.5 141.5t147.5 53.5h40q44 0 80 -17v52q0 10 -5 17l-97 136l-93 -136q-5 -7 -5 -17v-26
q-85 -26 -120 -104v115q0 33 4.5 50.5t17.5 36.5l93 138q37 55 105 55q65 0 107 -60l91 -133q13 -19 17.5 -36.5t4.5 -50.5v-390h-120v175q0 85 -90 85h-20q-90 0 -90 -85v-175h-120z" />
    <glyph glyph-name="adieresis" unicode="&#xe4;" 
d="M220 830v-120h-120v20q0 100 100 100h20zM300 710v120h120v-20q0 -100 -100 -100h-20zM40 0v175q0 88 52.5 141.5t147.5 53.5h40q44 0 80 -17v52q0 10 -5 17l-97 136l-93 -136q-5 -7 -5 -17v-26q-85 -26 -120 -104v115q0 33 4.5 50.5t17.5 36.5l93 138q37 55 105 55
q65 0 107 -60l91 -133q13 -19 17.5 -36.5t4.5 -50.5v-390h-120v175q0 85 -90 85h-20q-90 0 -90 -85v-175h-120z" />
    <glyph glyph-name="aring" unicode="&#xe5;" 
d="M266 950q124 0 124 -120t-124 -120h-12q-124 0 -124 120t124 120h12zM263 786q43 0 43 44t-43 44h-6q-43 0 -43 -44t43 -44h6zM40 0v175q0 88 52.5 141.5t147.5 53.5h40q44 0 80 -17v52q0 10 -5 17l-97 136l-93 -136q-5 -7 -5 -17v-26q-85 -26 -120 -104v115
q0 33 4.5 50.5t17.5 36.5l93 138q37 55 105 55q65 0 107 -60l91 -133q13 -19 17.5 -36.5t4.5 -50.5v-390h-120v175q0 85 -90 85h-20q-90 0 -90 -85v-175h-120z" />
    <glyph glyph-name="ae" unicode="&#xe6;" horiz-adv-x="820" 
d="M160 379q-85 -26 -120 -104v115q0 33 4.5 50.5t17.5 36.5l93 138q37 55 105 55q65 0 107 -60l19 -28q50 88 174 88h40q95 0 147.5 -53.5t52.5 -141.5h-120q0 85 -90 85h-20q-90 0 -90 -85v-20q0 -85 90 -85h110v-110h-120q-76 0 -125 34t-67 96q-8 25 -23 46l-87 122
l-93 -136q-5 -7 -5 -17v-26zM480 195q0 -85 90 -85h230v-110h-240q-88 0 -144 50.5t-56 124.5q0 85 -90 85h-20q-90 0 -90 -85v-175h-120v175q0 88 52.5 141.5t147.5 53.5h40q44 0 80 -17q34 -76 120 -102v-56z" />
    <glyph glyph-name="ccedilla" unicode="&#xe7;" horiz-adv-x="500" 
d="M160 195q0 -85 90 -85h230v-110h-150v-39q0 -65 -41 -98t-114 -33v80q31 0 48 13t17 52v25q-95 0 -147.5 53.5t-52.5 141.5v280q0 88 52.5 141.5t147.5 53.5h40q95 0 147.5 -53.5t52.5 -141.5h-120q0 85 -90 85h-20q-90 0 -90 -85v-280z" />
    <glyph glyph-name="egrave" unicode="&#xe8;" horiz-adv-x="500" 
d="M230 855q0 -31 13 -48t52 -17h25v-80h-39q-67 0 -104 37.5t-37 107.5h90zM240 260q-95 0 -147.5 53.5t-52.5 141.5v20q0 88 52.5 141.5t147.5 53.5h40q95 0 147.5 -53.5t52.5 -141.5h-120q0 85 -90 85h-20q-90 0 -90 -85v-20q0 -85 90 -85h110v-110h-120zM160 195
q0 -85 90 -85h230v-110h-240q-95 0 -147.5 53.5t-52.5 141.5v160q35 -78 120 -104v-56z" />
    <glyph glyph-name="eacute" unicode="&#xe9;" horiz-adv-x="500" 
d="M290 855h90q0 -70 -37 -107.5t-104 -37.5h-39v80h25q39 0 52 17t13 48zM240 260q-95 0 -147.5 53.5t-52.5 141.5v20q0 88 52.5 141.5t147.5 53.5h40q95 0 147.5 -53.5t52.5 -141.5h-120q0 85 -90 85h-20q-90 0 -90 -85v-20q0 -85 90 -85h110v-110h-120zM160 195
q0 -85 90 -85h230v-110h-240q-95 0 -147.5 53.5t-52.5 141.5v160q35 -78 120 -104v-56z" />
    <glyph glyph-name="ecircumflex" unicode="&#xea;" horiz-adv-x="500" 
d="M358 811q41 -27 51.5 -42t10.5 -44v-15h-90v5q0 10 -4 15t-19 15l-47 31l-47 -31q-15 -10 -19 -15t-4 -15v-5h-90v15q0 29 10.5 44t51.5 42l98 64zM240 260q-95 0 -147.5 53.5t-52.5 141.5v20q0 88 52.5 141.5t147.5 53.5h40q95 0 147.5 -53.5t52.5 -141.5h-120
q0 85 -90 85h-20q-90 0 -90 -85v-20q0 -85 90 -85h110v-110h-120zM160 195q0 -85 90 -85h230v-110h-240q-95 0 -147.5 53.5t-52.5 141.5v160q35 -78 120 -104v-56z" />
    <glyph glyph-name="edieresis" unicode="&#xeb;" horiz-adv-x="500" 
d="M220 830v-120h-120v20q0 100 100 100h20zM300 710v120h120v-20q0 -100 -100 -100h-20zM240 260q-95 0 -147.5 53.5t-52.5 141.5v20q0 88 52.5 141.5t147.5 53.5h40q95 0 147.5 -53.5t52.5 -141.5h-120q0 85 -90 85h-20q-90 0 -90 -85v-20q0 -85 90 -85h110v-110h-120z
M160 195q0 -85 90 -85h230v-110h-240q-95 0 -147.5 53.5t-52.5 141.5v160q35 -78 120 -104v-56z" />
    <glyph glyph-name="igrave" unicode="&#xec;" horiz-adv-x="380" 
d="M160 855q0 -31 13 -48t52 -17h25v-80h-39q-67 0 -104 37.5t-37 107.5h90zM325 0q-90 0 -142.5 48t-52.5 142v280q0 50 -19 70t-56 20h-25v110h25q90 0 142.5 -48t52.5 -142v-280q0 -50 19 -70t56 -20h25v-110h-25zM259 560q-22 73 -104 110h195v-110h-91zM30 0v110h91
q22 -73 104 -110h-195z" />
    <glyph glyph-name="iacute" unicode="&#xed;" horiz-adv-x="380" 
d="M220 855h90q0 -70 -37 -107.5t-104 -37.5h-39v80h25q39 0 52 17t13 48zM325 0q-90 0 -142.5 48t-52.5 142v280q0 50 -19 70t-56 20h-25v110h25q90 0 142.5 -48t52.5 -142v-280q0 -50 19 -70t56 -20h25v-110h-25zM259 560q-22 73 -104 110h195v-110h-91zM30 0v110h91
q22 -73 104 -110h-195z" />
    <glyph glyph-name="icircumflex" unicode="&#xee;" horiz-adv-x="380" 
d="M288 811q41 -27 51.5 -42t10.5 -44v-15h-90v5q0 10 -4 15t-19 15l-47 31l-47 -31q-15 -10 -19 -15t-4 -15v-5h-90v15q0 29 10.5 44t51.5 42l98 64zM325 0q-90 0 -142.5 48t-52.5 142v280q0 50 -19 70t-56 20h-25v110h25q90 0 142.5 -48t52.5 -142v-280q0 -50 19 -70
t56 -20h25v-110h-25zM259 560q-22 73 -104 110h195v-110h-91zM30 0v110h91q22 -73 104 -110h-195z" />
    <glyph glyph-name="idieresis" unicode="&#xef;" horiz-adv-x="380" 
d="M150 830v-120h-120v20q0 100 100 100h20zM230 710v120h120v-20q0 -100 -100 -100h-20zM325 0q-90 0 -142.5 48t-52.5 142v280q0 50 -19 70t-56 20h-25v110h25q90 0 142.5 -48t52.5 -142v-280q0 -50 19 -70t56 -20h25v-110h-25zM259 560q-22 73 -104 110h195v-110h-91z
M30 0v110h91q22 -73 104 -110h-195z" />
    <glyph glyph-name="eth" unicode="&#xf0;" 
d="M160 260v-150h110q90 0 90 85v280q0 85 -90 85h-110v-150h-120v260h240q95 0 147.5 -53.5t52.5 -141.5v-280q0 -88 -52.5 -141.5t-147.5 -53.5h-240v260h120zM0 280v110h260v-110h-260z" />
    <glyph glyph-name="ntilde" unicode="&#xf1;" 
d="M450 855h-80q0 -55 -36 -55q-16 0 -33 8.5t-30.5 19t-37.5 19t-52 8.5q-111 0 -111 -145h80q0 55 36 55q19 0 40 -13.5t49 -27.5t64 -14q111 0 111 145zM360 0v35q0 45 -23 80l-235 354q-62 94 -62 156v45h120v-35q0 -45 23 -80l235 -354q62 -94 62 -156v-45h-120z
M480 130q-16 36 -45 82l-75 113v345h120v-540zM40 0v540q19 -43 45 -82l75 -113v-345h-120z" />
    <glyph glyph-name="ograve" unicode="&#xf2;" 
d="M230 855q0 -31 13 -48t52 -17h25v-80h-39q-67 0 -104 37.5t-37 107.5h90zM280 670q95 0 147.5 -53.5t52.5 -141.5v-280q0 -88 -52.5 -141.5t-147.5 -53.5h-40q-95 0 -147.5 53.5t-52.5 141.5v280q0 88 52.5 141.5t147.5 53.5h40zM360 195v280q0 85 -90 85h-20
q-90 0 -90 -85v-280q0 -85 90 -85h20q90 0 90 85z" />
    <glyph glyph-name="oacute" unicode="&#xf3;" 
d="M290 855h90q0 -70 -37 -107.5t-104 -37.5h-39v80h25q39 0 52 17t13 48zM280 670q95 0 147.5 -53.5t52.5 -141.5v-280q0 -88 -52.5 -141.5t-147.5 -53.5h-40q-95 0 -147.5 53.5t-52.5 141.5v280q0 88 52.5 141.5t147.5 53.5h40zM360 195v280q0 85 -90 85h-20
q-90 0 -90 -85v-280q0 -85 90 -85h20q90 0 90 85z" />
    <glyph glyph-name="ocircumflex" unicode="&#xf4;" 
d="M358 811q41 -27 51.5 -42t10.5 -44v-15h-90v5q0 10 -4 15t-19 15l-47 31l-47 -31q-15 -10 -19 -15t-4 -15v-5h-90v15q0 29 10.5 44t51.5 42l98 64zM280 670q95 0 147.5 -53.5t52.5 -141.5v-280q0 -88 -52.5 -141.5t-147.5 -53.5h-40q-95 0 -147.5 53.5t-52.5 141.5v280
q0 88 52.5 141.5t147.5 53.5h40zM360 195v280q0 85 -90 85h-20q-90 0 -90 -85v-280q0 -85 90 -85h20q90 0 90 85z" />
    <glyph glyph-name="otilde" unicode="&#xf5;" 
d="M450 855h-80q0 -55 -36 -55q-16 0 -33 8.5t-30.5 19t-37.5 19t-52 8.5q-111 0 -111 -145h80q0 55 36 55q19 0 40 -13.5t49 -27.5t64 -14q111 0 111 145zM280 670q95 0 147.5 -53.5t52.5 -141.5v-280q0 -88 -52.5 -141.5t-147.5 -53.5h-40q-95 0 -147.5 53.5t-52.5 141.5
v280q0 88 52.5 141.5t147.5 53.5h40zM360 195v280q0 85 -90 85h-20q-90 0 -90 -85v-280q0 -85 90 -85h20q90 0 90 85z" />
    <glyph glyph-name="odieresis" unicode="&#xf6;" 
d="M220 830v-120h-120v20q0 100 100 100h20zM300 710v120h120v-20q0 -100 -100 -100h-20zM280 670q95 0 147.5 -53.5t52.5 -141.5v-280q0 -88 -52.5 -141.5t-147.5 -53.5h-40q-95 0 -147.5 53.5t-52.5 141.5v280q0 88 52.5 141.5t147.5 53.5h40zM360 195v280q0 85 -90 85
h-20q-90 0 -90 -85v-280q0 -85 90 -85h20q90 0 90 85z" />
    <glyph glyph-name="divide" unicode="&#xf7;" 
d="M200 465v120h120v-20q0 -100 -100 -100h-20zM40 280v110h440v-110h-440zM200 85v120h120v-20q0 -100 -100 -100h-20z" />
    <glyph glyph-name="oslash" unicode="&#xf8;" 
d="M480 670l-37 -72q37 -47 37 -123v-280q0 -88 -52.5 -141.5t-147.5 -53.5h-40q-42 0 -73 10l52 103q13 -3 31 -3h20q90 0 90 85v239l-220 -434h-100l36 72q-36 50 -36 123v280q0 88 52.5 141.5t147.5 53.5h40q42 0 73 -10l-53 -103q-14 3 -30 3h-20q-90 0 -90 -85v-239
l220 434h100z" />
    <glyph glyph-name="ugrave" unicode="&#xf9;" 
d="M230 855q0 -31 13 -48t52 -17h25v-80h-39q-67 0 -104 37.5t-37 107.5h90zM360 670h120v-475q0 -88 -52.5 -141.5t-147.5 -53.5h-40q-95 0 -147.5 53.5t-52.5 141.5v475h120v-475q0 -85 90 -85h20q90 0 90 85v475z" />
    <glyph glyph-name="uacute" unicode="&#xfa;" 
d="M290 855h90q0 -70 -37 -107.5t-104 -37.5h-39v80h25q39 0 52 17t13 48zM360 670h120v-475q0 -88 -52.5 -141.5t-147.5 -53.5h-40q-95 0 -147.5 53.5t-52.5 141.5v475h120v-475q0 -85 90 -85h20q90 0 90 85v475z" />
    <glyph glyph-name="ucircumflex" unicode="&#xfb;" 
d="M358 811q41 -27 51.5 -42t10.5 -44v-15h-90v5q0 10 -4 15t-19 15l-47 31l-47 -31q-15 -10 -19 -15t-4 -15v-5h-90v15q0 29 10.5 44t51.5 42l98 64zM360 670h120v-475q0 -88 -52.5 -141.5t-147.5 -53.5h-40q-95 0 -147.5 53.5t-52.5 141.5v475h120v-475q0 -85 90 -85h20
q90 0 90 85v475z" />
    <glyph glyph-name="udieresis" unicode="&#xfc;" 
d="M220 830v-120h-120v20q0 100 100 100h20zM300 710v120h120v-20q0 -100 -100 -100h-20zM360 670h120v-475q0 -88 -52.5 -141.5t-147.5 -53.5h-40q-95 0 -147.5 53.5t-52.5 141.5v475h120v-475q0 -85 90 -85h20q90 0 90 85v475z" />
    <glyph glyph-name="yacute" unicode="&#xfd;" horiz-adv-x="500" 
d="M280 855h90q0 -70 -37 -107.5t-104 -37.5h-39v80h25q39 0 52 17t13 48zM174 235l-122 178q-13 19 -17.5 36.5t-4.5 50.5v170h120v-185q0 -10 5 -17l82 -119q-49 -65 -63 -114zM190 0v205q0 43 47 110l108 153q5 7 5 17v185h120v-170q0 -33 -4.5 -50.5t-17.5 -36.5
l-91 -133q-47 -70 -47 -110v-170h-120z" />
    <glyph glyph-name="thorn" unicode="&#xfe;" horiz-adv-x="500" 
d="M280 540q95 0 147.5 -53.5t52.5 -141.5t-52.5 -141.5t-147.5 -53.5h-30q-90 0 -90 -85v-65h-120v65q0 88 52.5 141.5t147.5 53.5h30q90 0 90 85t-90 85h-20q-90 0 -90 -85v-76q-85 -26 -120 -104v505h120v-142q35 12 80 12h40z" />
    <glyph glyph-name="ydieresis" unicode="&#xff;" horiz-adv-x="500" 
d="M210 830v-120h-120v20q0 100 100 100h20zM290 710v120h120v-20q0 -100 -100 -100h-20zM174 235l-122 178q-13 19 -17.5 36.5t-4.5 50.5v170h120v-185q0 -10 5 -17l82 -119q-49 -65 -63 -114zM190 0v205q0 43 47 110l108 153q5 7 5 17v185h120v-170q0 -33 -4.5 -50.5
t-17.5 -36.5l-91 -133q-47 -70 -47 -110v-170h-120z" />
    <glyph glyph-name="Amacron" unicode="&#x100;" 
d="M110 710v90h300v-90h-300zM40 0v175q0 88 52.5 141.5t147.5 53.5h40q44 0 80 -17v52q0 10 -5 17l-97 136l-93 -136q-5 -7 -5 -17v-26q-85 -26 -120 -104v115q0 33 4.5 50.5t17.5 36.5l93 138q37 55 105 55q65 0 107 -60l91 -133q13 -19 17.5 -36.5t4.5 -50.5v-390h-120
v175q0 85 -90 85h-20q-90 0 -90 -85v-175h-120z" />
    <glyph glyph-name="amacron" unicode="&#x101;" 
d="M110 710v90h300v-90h-300zM40 0v175q0 88 52.5 141.5t147.5 53.5h40q44 0 80 -17v52q0 10 -5 17l-97 136l-93 -136q-5 -7 -5 -17v-26q-85 -26 -120 -104v115q0 33 4.5 50.5t17.5 36.5l93 138q37 55 105 55q65 0 107 -60l91 -133q13 -19 17.5 -36.5t4.5 -50.5v-390h-120
v175q0 85 -90 85h-20q-90 0 -90 -85v-175h-120z" />
    <glyph glyph-name="Abreve" unicode="&#x102;" 
d="M330 855h90q0 -70 -37 -107.5t-104 -37.5h-38q-67 0 -104 37.5t-37 107.5h90q0 -31 13 -48t52 -17h10q39 0 52 17t13 48zM40 0v175q0 88 52.5 141.5t147.5 53.5h40q44 0 80 -17v52q0 10 -5 17l-97 136l-93 -136q-5 -7 -5 -17v-26q-85 -26 -120 -104v115q0 33 4.5 50.5
t17.5 36.5l93 138q37 55 105 55q65 0 107 -60l91 -133q13 -19 17.5 -36.5t4.5 -50.5v-390h-120v175q0 85 -90 85h-20q-90 0 -90 -85v-175h-120z" />
    <glyph glyph-name="abreve" unicode="&#x103;" 
d="M330 855h90q0 -70 -37 -107.5t-104 -37.5h-38q-67 0 -104 37.5t-37 107.5h90q0 -31 13 -48t52 -17h10q39 0 52 17t13 48zM40 0v175q0 88 52.5 141.5t147.5 53.5h40q44 0 80 -17v52q0 10 -5 17l-97 136l-93 -136q-5 -7 -5 -17v-26q-85 -26 -120 -104v115q0 33 4.5 50.5
t17.5 36.5l93 138q37 55 105 55q65 0 107 -60l91 -133q13 -19 17.5 -36.5t4.5 -50.5v-390h-120v175q0 85 -90 85h-20q-90 0 -90 -85v-175h-120z" />
    <glyph glyph-name="Aogonek" unicode="&#x104;" 
d="M458 477q13 -19 17.5 -36.5t4.5 -50.5v-390q-32 0 -48.5 -7.5t-16.5 -32.5v-10q0 -25 16.5 -32.5t48.5 -7.5v-80q-73 0 -114 25.5t-41 75.5v18q0 46 35 71v155q0 85 -90 85h-20q-90 0 -90 -85v-175h-120v175q0 88 52.5 141.5t147.5 53.5h40q44 0 80 -17v52q0 10 -5 17
l-97 136l-93 -136q-5 -7 -5 -17v-26q-85 -26 -120 -104v115q0 33 4.5 50.5t17.5 36.5l93 138q37 55 105 55q65 0 107 -60z" />
    <glyph glyph-name="aogonek" unicode="&#x105;" 
d="M458 477q13 -19 17.5 -36.5t4.5 -50.5v-390q-32 0 -48.5 -7.5t-16.5 -32.5v-10q0 -25 16.5 -32.5t48.5 -7.5v-80q-73 0 -114 25.5t-41 75.5v18q0 46 35 71v155q0 85 -90 85h-20q-90 0 -90 -85v-175h-120v175q0 88 52.5 141.5t147.5 53.5h40q44 0 80 -17v52q0 10 -5 17
l-97 136l-93 -136q-5 -7 -5 -17v-26q-85 -26 -120 -104v115q0 33 4.5 50.5t17.5 36.5l93 138q37 55 105 55q65 0 107 -60z" />
    <glyph glyph-name="Cacute" unicode="&#x106;" horiz-adv-x="500" 
d="M290 855h90q0 -70 -37 -107.5t-104 -37.5h-39v80h25q39 0 52 17t13 48zM160 195q0 -85 90 -85h230v-110h-240q-95 0 -147.5 53.5t-52.5 141.5v280q0 88 52.5 141.5t147.5 53.5h40q95 0 147.5 -53.5t52.5 -141.5h-120q0 85 -90 85h-20q-90 0 -90 -85v-280z" />
    <glyph glyph-name="cacute" unicode="&#x107;" horiz-adv-x="500" 
d="M290 855h90q0 -70 -37 -107.5t-104 -37.5h-39v80h25q39 0 52 17t13 48zM160 195q0 -85 90 -85h230v-110h-240q-95 0 -147.5 53.5t-52.5 141.5v280q0 88 52.5 141.5t147.5 53.5h40q95 0 147.5 -53.5t52.5 -141.5h-120q0 85 -90 85h-20q-90 0 -90 -85v-280z" />
    <glyph glyph-name="Cdotaccent" unicode="&#x10a;" horiz-adv-x="500" 
d="M200 710v120h120v-20q0 -100 -100 -100h-20zM160 195q0 -85 90 -85h230v-110h-240q-95 0 -147.5 53.5t-52.5 141.5v280q0 88 52.5 141.5t147.5 53.5h40q95 0 147.5 -53.5t52.5 -141.5h-120q0 85 -90 85h-20q-90 0 -90 -85v-280z" />
    <glyph glyph-name="cdotaccent" unicode="&#x10b;" horiz-adv-x="500" 
d="M200 710v120h120v-20q0 -100 -100 -100h-20zM160 195q0 -85 90 -85h230v-110h-240q-95 0 -147.5 53.5t-52.5 141.5v280q0 88 52.5 141.5t147.5 53.5h40q95 0 147.5 -53.5t52.5 -141.5h-120q0 85 -90 85h-20q-90 0 -90 -85v-280z" />
    <glyph glyph-name="Ccaron" unicode="&#x10c;" horiz-adv-x="500" 
d="M358 754l-98 -64l-98 64q-41 27 -51.5 42t-10.5 44v15h90v-5q0 -10 4 -15t19 -15l47 -31l47 31q15 10 19 15t4 15v5h90v-15q0 -29 -10.5 -44t-51.5 -42zM160 195q0 -85 90 -85h230v-110h-240q-95 0 -147.5 53.5t-52.5 141.5v280q0 88 52.5 141.5t147.5 53.5h40
q95 0 147.5 -53.5t52.5 -141.5h-120q0 85 -90 85h-20q-90 0 -90 -85v-280z" />
    <glyph glyph-name="ccaron" unicode="&#x10d;" horiz-adv-x="500" 
d="M358 754l-98 -64l-98 64q-41 27 -51.5 42t-10.5 44v15h90v-5q0 -10 4 -15t19 -15l47 -31l47 31q15 10 19 15t4 15v5h90v-15q0 -29 -10.5 -44t-51.5 -42zM160 195q0 -85 90 -85h230v-110h-240q-95 0 -147.5 53.5t-52.5 141.5v280q0 88 52.5 141.5t147.5 53.5h40
q95 0 147.5 -53.5t52.5 -141.5h-120q0 85 -90 85h-20q-90 0 -90 -85v-280z" />
    <glyph glyph-name="Dcaron" unicode="&#x10e;" 
d="M348 754l-98 -64l-98 64q-41 27 -51.5 42t-10.5 44v15h90v-5q0 -10 4 -15t19 -15l47 -31l47 31q15 10 19 15t4 15v5h90v-15q0 -29 -10.5 -44t-51.5 -42zM280 670q95 0 147.5 -53.5t52.5 -141.5v-280q0 -88 -52.5 -141.5t-147.5 -53.5h-240v670h240zM360 475q0 85 -90 85
h-110v-450h110q90 0 90 85v280z" />
    <glyph glyph-name="dcaron" unicode="&#x10f;" 
d="M348 754l-98 -64l-98 64q-41 27 -51.5 42t-10.5 44v15h90v-5q0 -10 4 -15t19 -15l47 -31l47 31q15 10 19 15t4 15v5h90v-15q0 -29 -10.5 -44t-51.5 -42zM280 670q95 0 147.5 -53.5t52.5 -141.5v-280q0 -88 -52.5 -141.5t-147.5 -53.5h-240v670h240zM360 475q0 85 -90 85
h-110v-450h110q90 0 90 85v280z" />
    <glyph glyph-name="Dcroat" unicode="&#x110;" 
d="M160 260v-150h110q90 0 90 85v280q0 85 -90 85h-110v-150h-120v260h240q95 0 147.5 -53.5t52.5 -141.5v-280q0 -88 -52.5 -141.5t-147.5 -53.5h-240v260h120zM0 280v110h260v-110h-260z" />
    <glyph glyph-name="dcroat" unicode="&#x111;" 
d="M160 260v-150h110q90 0 90 85v280q0 85 -90 85h-110v-150h-120v260h240q95 0 147.5 -53.5t52.5 -141.5v-280q0 -88 -52.5 -141.5t-147.5 -53.5h-240v260h120zM0 280v110h260v-110h-260z" />
    <glyph glyph-name="Emacron" unicode="&#x112;" horiz-adv-x="500" 
d="M110 710v90h300v-90h-300zM240 260q-95 0 -147.5 53.5t-52.5 141.5v20q0 88 52.5 141.5t147.5 53.5h40q95 0 147.5 -53.5t52.5 -141.5h-120q0 85 -90 85h-20q-90 0 -90 -85v-20q0 -85 90 -85h110v-110h-120zM160 195q0 -85 90 -85h230v-110h-240q-95 0 -147.5 53.5
t-52.5 141.5v160q35 -78 120 -104v-56z" />
    <glyph glyph-name="emacron" unicode="&#x113;" horiz-adv-x="500" 
d="M110 710v90h300v-90h-300zM240 260q-95 0 -147.5 53.5t-52.5 141.5v20q0 88 52.5 141.5t147.5 53.5h40q95 0 147.5 -53.5t52.5 -141.5h-120q0 85 -90 85h-20q-90 0 -90 -85v-20q0 -85 90 -85h110v-110h-120zM160 195q0 -85 90 -85h230v-110h-240q-95 0 -147.5 53.5
t-52.5 141.5v160q35 -78 120 -104v-56z" />
    <glyph glyph-name="Edotaccent" unicode="&#x116;" horiz-adv-x="500" 
d="M200 710v120h120v-20q0 -100 -100 -100h-20zM240 260q-95 0 -147.5 53.5t-52.5 141.5v20q0 88 52.5 141.5t147.5 53.5h40q95 0 147.5 -53.5t52.5 -141.5h-120q0 85 -90 85h-20q-90 0 -90 -85v-20q0 -85 90 -85h110v-110h-120zM160 195q0 -85 90 -85h230v-110h-240
q-95 0 -147.5 53.5t-52.5 141.5v160q35 -78 120 -104v-56z" />
    <glyph glyph-name="edotaccent" unicode="&#x117;" horiz-adv-x="500" 
d="M200 710v120h120v-20q0 -100 -100 -100h-20zM240 260q-95 0 -147.5 53.5t-52.5 141.5v20q0 88 52.5 141.5t147.5 53.5h40q95 0 147.5 -53.5t52.5 -141.5h-120q0 85 -90 85h-20q-90 0 -90 -85v-20q0 -85 90 -85h110v-110h-120zM160 195q0 -85 90 -85h230v-110h-240
q-95 0 -147.5 53.5t-52.5 141.5v160q35 -78 120 -104v-56z" />
    <glyph glyph-name="Eogonek" unicode="&#x118;" horiz-adv-x="500" 
d="M240 260q-95 0 -147.5 53.5t-52.5 141.5v20q0 88 52.5 141.5t147.5 53.5h40q95 0 147.5 -53.5t52.5 -141.5h-120q0 85 -90 85h-20q-90 0 -90 -85v-20q0 -85 90 -85h110v-110h-120zM160 195q0 -85 90 -85h230v-110q-32 0 -48.5 -7.5t-16.5 -32.5v-10q0 -25 16.5 -32.5
t48.5 -7.5v-80q-73 0 -114 25.5t-41 75.5v18q0 30 15 51h-100q-95 0 -147.5 53.5t-52.5 141.5v160q35 -78 120 -104v-56z" />
    <glyph glyph-name="eogonek" unicode="&#x119;" horiz-adv-x="500" 
d="M240 260q-95 0 -147.5 53.5t-52.5 141.5v20q0 88 52.5 141.5t147.5 53.5h40q95 0 147.5 -53.5t52.5 -141.5h-120q0 85 -90 85h-20q-90 0 -90 -85v-20q0 -85 90 -85h110v-110h-120zM160 195q0 -85 90 -85h230v-110q-32 0 -48.5 -7.5t-16.5 -32.5v-10q0 -25 16.5 -32.5
t48.5 -7.5v-80q-73 0 -114 25.5t-41 75.5v18q0 30 15 51h-100q-95 0 -147.5 53.5t-52.5 141.5v160q35 -78 120 -104v-56z" />
    <glyph glyph-name="Ecaron" unicode="&#x11a;" horiz-adv-x="500" 
d="M358 754l-98 -64l-98 64q-41 27 -51.5 42t-10.5 44v15h90v-5q0 -10 4 -15t19 -15l47 -31l47 31q15 10 19 15t4 15v5h90v-15q0 -29 -10.5 -44t-51.5 -42zM240 260q-95 0 -147.5 53.5t-52.5 141.5v20q0 88 52.5 141.5t147.5 53.5h40q95 0 147.5 -53.5t52.5 -141.5h-120
q0 85 -90 85h-20q-90 0 -90 -85v-20q0 -85 90 -85h110v-110h-120zM160 195q0 -85 90 -85h230v-110h-240q-95 0 -147.5 53.5t-52.5 141.5v160q35 -78 120 -104v-56z" />
    <glyph glyph-name="ecaron" unicode="&#x11b;" horiz-adv-x="500" 
d="M358 754l-98 -64l-98 64q-41 27 -51.5 42t-10.5 44v15h90v-5q0 -10 4 -15t19 -15l47 -31l47 31q15 10 19 15t4 15v5h90v-15q0 -29 -10.5 -44t-51.5 -42zM240 260q-95 0 -147.5 53.5t-52.5 141.5v20q0 88 52.5 141.5t147.5 53.5h40q95 0 147.5 -53.5t52.5 -141.5h-120
q0 85 -90 85h-20q-90 0 -90 -85v-20q0 -85 90 -85h110v-110h-120zM160 195q0 -85 90 -85h230v-110h-240q-95 0 -147.5 53.5t-52.5 141.5v160q35 -78 120 -104v-56z" />
    <glyph glyph-name="Gbreve" unicode="&#x11e;" horiz-adv-x="550" 
d="M330 855h90q0 -70 -37 -107.5t-104 -37.5h-38q-67 0 -104 37.5t-37 107.5h90q0 -31 13 -48t52 -17h10q39 0 52 17t13 48zM280 390q95 0 147.5 -53.5t52.5 -141.5t-52.5 -141.5t-147.5 -53.5h-40q-95 0 -147.5 53.5t-52.5 141.5v280q0 88 52.5 141.5t147.5 53.5h40
q95 0 147.5 -53.5t52.5 -141.5h-120q0 85 -90 85h-20q-90 0 -90 -85v-280q0 -85 90 -85h20q90 0 90 85t-90 85v110h10zM383 390h157v-110h-54q-28 78 -103 110z" />
    <glyph glyph-name="gbreve" unicode="&#x11f;" horiz-adv-x="550" 
d="M330 855h90q0 -70 -37 -107.5t-104 -37.5h-38q-67 0 -104 37.5t-37 107.5h90q0 -31 13 -48t52 -17h10q39 0 52 17t13 48zM280 390q95 0 147.5 -53.5t52.5 -141.5t-52.5 -141.5t-147.5 -53.5h-40q-95 0 -147.5 53.5t-52.5 141.5v280q0 88 52.5 141.5t147.5 53.5h40
q95 0 147.5 -53.5t52.5 -141.5h-120q0 85 -90 85h-20q-90 0 -90 -85v-280q0 -85 90 -85h20q90 0 90 85t-90 85v110h10zM383 390h157v-110h-54q-28 78 -103 110z" />
    <glyph glyph-name="Gdotaccent" unicode="&#x120;" horiz-adv-x="550" 
d="M200 710v120h120v-20q0 -100 -100 -100h-20zM280 390q95 0 147.5 -53.5t52.5 -141.5t-52.5 -141.5t-147.5 -53.5h-40q-95 0 -147.5 53.5t-52.5 141.5v280q0 88 52.5 141.5t147.5 53.5h40q95 0 147.5 -53.5t52.5 -141.5h-120q0 85 -90 85h-20q-90 0 -90 -85v-280
q0 -85 90 -85h20q90 0 90 85t-90 85v110h10zM383 390h157v-110h-54q-28 78 -103 110z" />
    <glyph glyph-name="gdotaccent" unicode="&#x121;" horiz-adv-x="550" 
d="M200 710v120h120v-20q0 -100 -100 -100h-20zM280 390q95 0 147.5 -53.5t52.5 -141.5t-52.5 -141.5t-147.5 -53.5h-40q-95 0 -147.5 53.5t-52.5 141.5v280q0 88 52.5 141.5t147.5 53.5h40q95 0 147.5 -53.5t52.5 -141.5h-120q0 85 -90 85h-20q-90 0 -90 -85v-280
q0 -85 90 -85h20q90 0 90 85t-90 85v110h10zM383 390h157v-110h-54q-28 78 -103 110z" />
    <glyph glyph-name="Gcommaaccent" unicode="&#x122;" horiz-adv-x="550" 
d="M280 390q95 0 147.5 -53.5t52.5 -141.5t-52.5 -141.5t-147.5 -53.5h-40q-95 0 -147.5 53.5t-52.5 141.5v280q0 88 52.5 141.5t147.5 53.5h40q95 0 147.5 -53.5t52.5 -141.5h-120q0 85 -90 85h-20q-90 0 -90 -85v-280q0 -85 90 -85h20q90 0 90 85t-90 85v110h10zM383 390
h157v-110h-54q-28 78 -103 110zM150 -110q31 0 48 13t17 52v25h90v-39q0 -65 -41 -98t-114 -33v80z" />
    <glyph glyph-name="gcommaaccent" unicode="&#x123;" horiz-adv-x="550" 
d="M280 390q95 0 147.5 -53.5t52.5 -141.5t-52.5 -141.5t-147.5 -53.5h-40q-95 0 -147.5 53.5t-52.5 141.5v280q0 88 52.5 141.5t147.5 53.5h40q95 0 147.5 -53.5t52.5 -141.5h-120q0 85 -90 85h-20q-90 0 -90 -85v-280q0 -85 90 -85h20q90 0 90 85t-90 85v110h10zM383 390
h157v-110h-54q-28 78 -103 110zM150 -110q31 0 48 13t17 52v25h90v-39q0 -65 -41 -98t-114 -33v80z" />
    <glyph glyph-name="Hbar" unicode="&#x126;" 
d="M520 610v-110h-40v-205q-35 78 -120 104v101h-360v110h40v60h120v-60h200v60h120v-60h40zM280 390q95 0 147.5 -53.5t52.5 -141.5v-195h-120v195q0 85 -90 85h-30q-95 0 -147.5 53.5t-52.5 141.5v5h120v-5q0 -85 90 -85h30zM40 375q35 -78 120 -104v-271h-120v375z" />
    <glyph glyph-name="hbar" unicode="&#x127;" 
d="M520 610v-110h-40v-205q-35 78 -120 104v101h-360v110h40v60h120v-60h200v60h120v-60h40zM280 390q95 0 147.5 -53.5t52.5 -141.5v-195h-120v195q0 85 -90 85h-30q-95 0 -147.5 53.5t-52.5 141.5v5h120v-5q0 -85 90 -85h30zM40 375q35 -78 120 -104v-271h-120v375z" />
    <glyph glyph-name="Imacron" unicode="&#x12a;" horiz-adv-x="380" 
d="M40 710v90h300v-90h-300zM325 0q-90 0 -142.5 48t-52.5 142v280q0 50 -19 70t-56 20h-25v110h25q90 0 142.5 -48t52.5 -142v-280q0 -50 19 -70t56 -20h25v-110h-25zM259 560q-22 73 -104 110h195v-110h-91zM30 0v110h91q22 -73 104 -110h-195z" />
    <glyph glyph-name="imacron" unicode="&#x12b;" horiz-adv-x="380" 
d="M40 710v90h300v-90h-300zM325 0q-90 0 -142.5 48t-52.5 142v280q0 50 -19 70t-56 20h-25v110h25q90 0 142.5 -48t52.5 -142v-280q0 -50 19 -70t56 -20h25v-110h-25zM259 560q-22 73 -104 110h195v-110h-91zM30 0v110h91q22 -73 104 -110h-195z" />
    <glyph glyph-name="Iogonek" unicode="&#x12e;" horiz-adv-x="380" 
d="M250 200q0 -50 19 -70t56 -20h25v-110q-32 0 -48.5 -7.5t-16.5 -32.5v-10q0 -25 16.5 -32.5t48.5 -7.5v-80q-73 0 -114 25.5t-41 75.5v18q0 30 15 51h-180v110h91q21 -68 93 -105q4 5 13 14q-97 42 -97 171v280q0 50 -19 70t-56 20h-25v110h25q90 0 142.5 -48t52.5 -142
v-280zM155 670h195v-110h-91q-22 73 -104 110z" />
    <glyph glyph-name="iogonek" unicode="&#x12f;" horiz-adv-x="380" 
d="M250 200q0 -50 19 -70t56 -20h25v-110q-32 0 -48.5 -7.5t-16.5 -32.5v-10q0 -25 16.5 -32.5t48.5 -7.5v-80q-73 0 -114 25.5t-41 75.5v18q0 30 15 51h-180v110h91q21 -68 93 -105q4 5 13 14q-97 42 -97 171v280q0 50 -19 70t-56 20h-25v110h25q90 0 142.5 -48t52.5 -142
v-280zM155 670h195v-110h-91q-22 73 -104 110z" />
    <glyph glyph-name="Idotaccent" unicode="&#x130;" horiz-adv-x="380" 
d="M130 710v120h120v-20q0 -100 -100 -100h-20zM325 0q-90 0 -142.5 48t-52.5 142v280q0 50 -19 70t-56 20h-25v110h25q90 0 142.5 -48t52.5 -142v-280q0 -50 19 -70t56 -20h25v-110h-25zM259 560q-22 73 -104 110h195v-110h-91zM30 0v110h91q22 -73 104 -110h-195z" />
    <glyph glyph-name="dotlessi" unicode="&#x131;" horiz-adv-x="380" 
d="M325 0q-90 0 -142.5 48t-52.5 142v280q0 50 -19 70t-56 20h-25v110h25q90 0 142.5 -48t52.5 -142v-280q0 -50 19 -70t56 -20h25v-110h-25zM259 560q-22 73 -104 110h195v-110h-91zM30 0v110h91q22 -73 104 -110h-195z" />
    <glyph glyph-name="Kcommaaccent" unicode="&#x136;" 
d="M440 450q-15 -79 -63 -115q48 -36 63 -115l16 -90q4 -20 24 -20h20v-110h-10q-69 0 -106.5 31t-49.5 109l-10 66q-12 74 -84 74q-80 0 -80 -85v-195h-120v195q0 88 52.5 141.5t147.5 53.5q72 0 84 74l10 66q12 78 49.5 109t106.5 31h10v-110h-20q-20 0 -24 -20zM160 399
q-85 -26 -120 -104v375h120v-271zM160 -110q31 0 48 13t17 52v25h90v-39q0 -65 -41 -98t-114 -33v80z" />
    <glyph glyph-name="kcommaaccent" unicode="&#x137;" 
d="M440 450q-15 -79 -63 -115q48 -36 63 -115l16 -90q4 -20 24 -20h20v-110h-10q-69 0 -106.5 31t-49.5 109l-10 66q-12 74 -84 74q-80 0 -80 -85v-195h-120v195q0 88 52.5 141.5t147.5 53.5q72 0 84 74l10 66q12 78 49.5 109t106.5 31h10v-110h-20q-20 0 -24 -20zM160 399
q-85 -26 -120 -104v375h120v-271zM160 -110q31 0 48 13t17 52v25h90v-39q0 -65 -41 -98t-114 -33v80z" />
    <glyph glyph-name="Lacute" unicode="&#x139;" horiz-adv-x="450" 
d="M130 855h90q0 -70 -37 -107.5t-104 -37.5h-39v80h25q39 0 52 17t13 48zM250 110h190v-110h-200q-95 0 -147.5 53.5t-52.5 141.5v475h120v-475q0 -85 90 -85z" />
    <glyph glyph-name="lacute" unicode="&#x13a;" horiz-adv-x="450" 
d="M130 855h90q0 -70 -37 -107.5t-104 -37.5h-39v80h25q39 0 52 17t13 48zM250 110h190v-110h-200q-95 0 -147.5 53.5t-52.5 141.5v475h120v-475q0 -85 90 -85z" />
    <glyph glyph-name="Lcommaaccent" unicode="&#x13b;" horiz-adv-x="450" 
d="M250 110h190v-110h-200q-95 0 -147.5 53.5t-52.5 141.5v475h120v-475q0 -85 90 -85zM170 -110q31 0 48 13t17 52v25h90v-39q0 -65 -41 -98t-114 -33v80z" />
    <glyph glyph-name="lcommaaccent" unicode="&#x13c;" horiz-adv-x="450" 
d="M250 110h190v-110h-200q-95 0 -147.5 53.5t-52.5 141.5v475h120v-475q0 -85 90 -85zM170 -110q31 0 48 13t17 52v25h90v-39q0 -65 -41 -98t-114 -33v80z" />
    <glyph glyph-name="Lcaron" unicode="&#x13d;" horiz-adv-x="450" 
d="M250 110h190v-110h-200q-95 0 -147.5 53.5t-52.5 141.5v475h120v-475q0 -85 90 -85zM200 450l20 220h100l-13 -130q-10 -90 -97 -90h-10z" />
    <glyph glyph-name="lcaron" unicode="&#x13e;" horiz-adv-x="450" 
d="M250 110h190v-110h-200q-95 0 -147.5 53.5t-52.5 141.5v475h120v-475q0 -85 90 -85zM200 450l20 220h100l-13 -130q-10 -90 -97 -90h-10z" />
    <glyph glyph-name="Lslash" unicode="&#x141;" horiz-adv-x="450" 
d="M40 421v249h120v-217zM0 280v110l260 70v-110zM160 303v-108q0 -85 90 -85h190v-110h-200q-95 0 -147.5 53.5t-52.5 141.5v76z" />
    <glyph glyph-name="lslash" unicode="&#x142;" horiz-adv-x="450" 
d="M40 421v249h120v-217zM0 280v110l260 70v-110zM160 303v-108q0 -85 90 -85h190v-110h-200q-95 0 -147.5 53.5t-52.5 141.5v76z" />
    <glyph glyph-name="Nacute" unicode="&#x143;" 
d="M290 855h90q0 -70 -37 -107.5t-104 -37.5h-39v80h25q39 0 52 17t13 48zM360 0v35q0 45 -23 80l-235 354q-62 94 -62 156v45h120v-35q0 -45 23 -80l235 -354q62 -94 62 -156v-45h-120zM480 130q-16 36 -45 82l-75 113v345h120v-540zM40 0v540q19 -43 45 -82l75 -113v-345
h-120z" />
    <glyph glyph-name="nacute" unicode="&#x144;" 
d="M290 855h90q0 -70 -37 -107.5t-104 -37.5h-39v80h25q39 0 52 17t13 48zM360 0v35q0 45 -23 80l-235 354q-62 94 -62 156v45h120v-35q0 -45 23 -80l235 -354q62 -94 62 -156v-45h-120zM480 130q-16 36 -45 82l-75 113v345h120v-540zM40 0v540q19 -43 45 -82l75 -113v-345
h-120z" />
    <glyph glyph-name="Ncommaaccent" unicode="&#x145;" 
d="M360 0v35q0 45 -23 80l-235 354q-62 94 -62 156v45h120v-35q0 -45 23 -80l235 -354q62 -94 62 -156v-45h-120zM480 130q-16 36 -45 82l-75 113v345h120v-540zM40 0v540q19 -43 45 -82l75 -113v-345h-120zM150 -110q31 0 48 13t17 52v25h90v-39q0 -65 -41 -98t-114 -33v80
z" />
    <glyph glyph-name="ncommaaccent" unicode="&#x146;" 
d="M360 0v35q0 45 -23 80l-235 354q-62 94 -62 156v45h120v-35q0 -45 23 -80l235 -354q62 -94 62 -156v-45h-120zM480 130q-16 36 -45 82l-75 113v345h120v-540zM40 0v540q19 -43 45 -82l75 -113v-345h-120zM150 -110q31 0 48 13t17 52v25h90v-39q0 -65 -41 -98t-114 -33v80
z" />
    <glyph glyph-name="Ncaron" unicode="&#x147;" 
d="M358 754l-98 -64l-98 64q-41 27 -51.5 42t-10.5 44v15h90v-5q0 -10 4 -15t19 -15l47 -31l47 31q15 10 19 15t4 15v5h90v-15q0 -29 -10.5 -44t-51.5 -42zM360 0v35q0 45 -23 80l-235 354q-62 94 -62 156v45h120v-35q0 -45 23 -80l235 -354q62 -94 62 -156v-45h-120z
M480 130q-16 36 -45 82l-75 113v345h120v-540zM40 0v540q19 -43 45 -82l75 -113v-345h-120z" />
    <glyph glyph-name="ncaron" unicode="&#x148;" 
d="M358 754l-98 -64l-98 64q-41 27 -51.5 42t-10.5 44v15h90v-5q0 -10 4 -15t19 -15l47 -31l47 31q15 10 19 15t4 15v5h90v-15q0 -29 -10.5 -44t-51.5 -42zM360 0v35q0 45 -23 80l-235 354q-62 94 -62 156v45h120v-35q0 -45 23 -80l235 -354q62 -94 62 -156v-45h-120z
M480 130q-16 36 -45 82l-75 113v345h120v-540zM40 0v540q19 -43 45 -82l75 -113v-345h-120z" />
    <glyph glyph-name="Eng" unicode="&#x14a;" 
d="M183 555l235 -354q62 -94 62 -156v-50q0 -88 -52.5 -141.5t-147.5 -53.5h-10v110q90 0 90 85v40q0 45 -23 80l-235 354q-62 94 -62 156v45h120v-35q0 -45 23 -80zM360 670h120v-540q-16 36 -45 82l-75 113v345zM40 540q19 -43 45 -82l75 -113v-345h-120v540z" />
    <glyph glyph-name="eng" unicode="&#x14b;" 
d="M183 555l235 -354q62 -94 62 -156v-50q0 -88 -52.5 -141.5t-147.5 -53.5h-10v110q90 0 90 85v40q0 45 -23 80l-235 354q-62 94 -62 156v45h120v-35q0 -45 23 -80zM360 670h120v-540q-16 36 -45 82l-75 113v345zM40 540q19 -43 45 -82l75 -113v-345h-120v540z" />
    <glyph glyph-name="Omacron" unicode="&#x14c;" 
d="M110 710v90h300v-90h-300zM280 670q95 0 147.5 -53.5t52.5 -141.5v-280q0 -88 -52.5 -141.5t-147.5 -53.5h-40q-95 0 -147.5 53.5t-52.5 141.5v280q0 88 52.5 141.5t147.5 53.5h40zM360 195v280q0 85 -90 85h-20q-90 0 -90 -85v-280q0 -85 90 -85h20q90 0 90 85z" />
    <glyph glyph-name="omacron" unicode="&#x14d;" 
d="M110 710v90h300v-90h-300zM280 670q95 0 147.5 -53.5t52.5 -141.5v-280q0 -88 -52.5 -141.5t-147.5 -53.5h-40q-95 0 -147.5 53.5t-52.5 141.5v280q0 88 52.5 141.5t147.5 53.5h40zM360 195v280q0 85 -90 85h-20q-90 0 -90 -85v-280q0 -85 90 -85h20q90 0 90 85z" />
    <glyph glyph-name="Ohungarumlaut" unicode="&#x150;" 
d="M160 855h90q0 -70 -37 -107.5t-104 -37.5h-39v80h25q39 0 52 17t13 48zM360 855h90q0 -70 -37 -107.5t-104 -37.5h-39v80h25q39 0 52 17t13 48zM280 670q95 0 147.5 -53.5t52.5 -141.5v-280q0 -88 -52.5 -141.5t-147.5 -53.5h-40q-95 0 -147.5 53.5t-52.5 141.5v280
q0 88 52.5 141.5t147.5 53.5h40zM360 195v280q0 85 -90 85h-20q-90 0 -90 -85v-280q0 -85 90 -85h20q90 0 90 85z" />
    <glyph glyph-name="ohungarumlaut" unicode="&#x151;" 
d="M160 855h90q0 -70 -37 -107.5t-104 -37.5h-39v80h25q39 0 52 17t13 48zM360 855h90q0 -70 -37 -107.5t-104 -37.5h-39v80h25q39 0 52 17t13 48zM280 670q95 0 147.5 -53.5t52.5 -141.5v-280q0 -88 -52.5 -141.5t-147.5 -53.5h-40q-95 0 -147.5 53.5t-52.5 141.5v280
q0 88 52.5 141.5t147.5 53.5h40zM360 195v280q0 85 -90 85h-20q-90 0 -90 -85v-280q0 -85 90 -85h20q90 0 90 85z" />
    <glyph glyph-name="OE" unicode="&#x152;" horiz-adv-x="820" 
d="M480 195q0 -85 90 -85h230v-110h-240q-88 0 -140 46q-52 -46 -140 -46h-40q-95 0 -147.5 53.5t-52.5 141.5v280q0 88 52.5 141.5t147.5 53.5h40q88 0 140 -46q52 46 140 46h40q95 0 147.5 -53.5t52.5 -141.5h-120q0 85 -90 85h-20q-90 0 -90 -85v-20q0 -85 90 -85h110
v-110h-120q-95 0 -147.5 53.5t-52.5 141.5v20q0 85 -90 85h-20q-90 0 -90 -85v-280q0 -85 90 -85h20q90 0 90 85v160q35 -78 120 -104v-56z" />
    <glyph glyph-name="oe" unicode="&#x153;" horiz-adv-x="820" 
d="M480 195q0 -85 90 -85h230v-110h-240q-88 0 -140 46q-52 -46 -140 -46h-40q-95 0 -147.5 53.5t-52.5 141.5v280q0 88 52.5 141.5t147.5 53.5h40q88 0 140 -46q52 46 140 46h40q95 0 147.5 -53.5t52.5 -141.5h-120q0 85 -90 85h-20q-90 0 -90 -85v-20q0 -85 90 -85h110
v-110h-120q-95 0 -147.5 53.5t-52.5 141.5v20q0 85 -90 85h-20q-90 0 -90 -85v-280q0 -85 90 -85h20q90 0 90 85v160q35 -78 120 -104v-56z" />
    <glyph glyph-name="Racute" unicode="&#x154;" 
d="M290 855h90q0 -70 -37 -107.5t-104 -37.5h-39v80h25q39 0 52 17t13 48zM480 110h20v-110h-10q-69 0 -106.5 31t-49.5 109l-10 66q-12 74 -84 74q-80 0 -80 -85v-195h-120v195q0 88 52.5 141.5t147.5 53.5h30q90 0 90 85t-90 85h-20q-90 0 -90 -85v-76q-85 -26 -120 -104
v180q0 88 52.5 141.5t147.5 53.5h40q95 0 147.5 -53.5t52.5 -141.5q0 -112 -83 -159q31 -34 43 -96l16 -90q4 -20 24 -20z" />
    <glyph glyph-name="racute" unicode="&#x155;" 
d="M290 855h90q0 -70 -37 -107.5t-104 -37.5h-39v80h25q39 0 52 17t13 48zM480 110h20v-110h-10q-69 0 -106.5 31t-49.5 109l-10 66q-12 74 -84 74q-80 0 -80 -85v-195h-120v195q0 88 52.5 141.5t147.5 53.5h30q90 0 90 85t-90 85h-20q-90 0 -90 -85v-76q-85 -26 -120 -104
v180q0 88 52.5 141.5t147.5 53.5h40q95 0 147.5 -53.5t52.5 -141.5q0 -112 -83 -159q31 -34 43 -96l16 -90q4 -20 24 -20z" />
    <glyph glyph-name="Rcommaaccent" unicode="&#x156;" 
d="M480 110h20v-110h-10q-69 0 -106.5 31t-49.5 109l-10 66q-12 74 -84 74q-80 0 -80 -85v-195h-120v195q0 88 52.5 141.5t147.5 53.5h30q90 0 90 85t-90 85h-20q-90 0 -90 -85v-76q-85 -26 -120 -104v180q0 88 52.5 141.5t147.5 53.5h40q95 0 147.5 -53.5t52.5 -141.5
q0 -112 -83 -159q31 -34 43 -96l16 -90q4 -20 24 -20zM150 -110q31 0 48 13t17 52v25h90v-39q0 -65 -41 -98t-114 -33v80z" />
    <glyph glyph-name="rcommaaccent" unicode="&#x157;" 
d="M480 110h20v-110h-10q-69 0 -106.5 31t-49.5 109l-10 66q-12 74 -84 74q-80 0 -80 -85v-195h-120v195q0 88 52.5 141.5t147.5 53.5h30q90 0 90 85t-90 85h-20q-90 0 -90 -85v-76q-85 -26 -120 -104v180q0 88 52.5 141.5t147.5 53.5h40q95 0 147.5 -53.5t52.5 -141.5
q0 -112 -83 -159q31 -34 43 -96l16 -90q4 -20 24 -20zM150 -110q31 0 48 13t17 52v25h90v-39q0 -65 -41 -98t-114 -33v80z" />
    <glyph glyph-name="Rcaron" unicode="&#x158;" 
d="M358 754l-98 -64l-98 64q-41 27 -51.5 42t-10.5 44v15h90v-5q0 -10 4 -15t19 -15l47 -31l47 31q15 10 19 15t4 15v5h90v-15q0 -29 -10.5 -44t-51.5 -42zM480 110h20v-110h-10q-69 0 -106.5 31t-49.5 109l-10 66q-12 74 -84 74q-80 0 -80 -85v-195h-120v195
q0 88 52.5 141.5t147.5 53.5h30q90 0 90 85t-90 85h-20q-90 0 -90 -85v-76q-85 -26 -120 -104v180q0 88 52.5 141.5t147.5 53.5h40q95 0 147.5 -53.5t52.5 -141.5q0 -112 -83 -159q31 -34 43 -96l16 -90q4 -20 24 -20z" />
    <glyph glyph-name="rcaron" unicode="&#x159;" 
d="M358 754l-98 -64l-98 64q-41 27 -51.5 42t-10.5 44v15h90v-5q0 -10 4 -15t19 -15l47 -31l47 31q15 10 19 15t4 15v5h90v-15q0 -29 -10.5 -44t-51.5 -42zM480 110h20v-110h-10q-69 0 -106.5 31t-49.5 109l-10 66q-12 74 -84 74q-80 0 -80 -85v-195h-120v195
q0 88 52.5 141.5t147.5 53.5h30q90 0 90 85t-90 85h-20q-90 0 -90 -85v-76q-85 -26 -120 -104v180q0 88 52.5 141.5t147.5 53.5h40q95 0 147.5 -53.5t52.5 -141.5q0 -112 -83 -159q31 -34 43 -96l16 -90q4 -20 24 -20z" />
    <glyph glyph-name="Sacute" unicode="&#x15a;" horiz-adv-x="510" 
d="M290 855h90q0 -70 -37 -107.5t-104 -37.5h-39v80h25q39 0 52 17t13 48zM280 390q95 0 147.5 -53.5t52.5 -141.5t-52.5 -141.5t-147.5 -53.5h-40q-95 0 -147.5 53.5t-52.5 141.5h120q0 -85 90 -85h20q90 0 90 85t-90 85h-30q-95 0 -147.5 53.5t-52.5 141.5t52.5 141.5
t147.5 53.5h40q95 0 147.5 -53.5t52.5 -141.5h-120q0 85 -90 85h-20q-90 0 -90 -85t90 -85h30z" />
    <glyph glyph-name="sacute" unicode="&#x15b;" horiz-adv-x="510" 
d="M290 855h90q0 -70 -37 -107.5t-104 -37.5h-39v80h25q39 0 52 17t13 48zM280 390q95 0 147.5 -53.5t52.5 -141.5t-52.5 -141.5t-147.5 -53.5h-40q-95 0 -147.5 53.5t-52.5 141.5h120q0 -85 90 -85h20q90 0 90 85t-90 85h-30q-95 0 -147.5 53.5t-52.5 141.5t52.5 141.5
t147.5 53.5h40q95 0 147.5 -53.5t52.5 -141.5h-120q0 85 -90 85h-20q-90 0 -90 -85t90 -85h30z" />
    <glyph glyph-name="Scedilla" unicode="&#x15e;" horiz-adv-x="510" 
d="M280 390q95 0 147.5 -53.5t52.5 -141.5q0 -82 -45.5 -134.5t-129.5 -59.5v-41q0 -65 -41 -98t-114 -33v80q31 0 48 13t17 52v27q-84 7 -129.5 59.5t-45.5 134.5h120q0 -85 90 -85h20q90 0 90 85t-90 85h-30q-95 0 -147.5 53.5t-52.5 141.5t52.5 141.5t147.5 53.5h40
q95 0 147.5 -53.5t52.5 -141.5h-120q0 85 -90 85h-20q-90 0 -90 -85t90 -85h30z" />
    <glyph glyph-name="scedilla" unicode="&#x15f;" horiz-adv-x="510" 
d="M280 390q95 0 147.5 -53.5t52.5 -141.5q0 -82 -45.5 -134.5t-129.5 -59.5v-41q0 -65 -41 -98t-114 -33v80q31 0 48 13t17 52v27q-84 7 -129.5 59.5t-45.5 134.5h120q0 -85 90 -85h20q90 0 90 85t-90 85h-30q-95 0 -147.5 53.5t-52.5 141.5t52.5 141.5t147.5 53.5h40
q95 0 147.5 -53.5t52.5 -141.5h-120q0 85 -90 85h-20q-90 0 -90 -85t90 -85h30z" />
    <glyph glyph-name="Scaron" unicode="&#x160;" horiz-adv-x="510" 
d="M358 754l-98 -64l-98 64q-41 27 -51.5 42t-10.5 44v15h90v-5q0 -10 4 -15t19 -15l47 -31l47 31q15 10 19 15t4 15v5h90v-15q0 -29 -10.5 -44t-51.5 -42zM280 390q95 0 147.5 -53.5t52.5 -141.5t-52.5 -141.5t-147.5 -53.5h-40q-95 0 -147.5 53.5t-52.5 141.5h120
q0 -85 90 -85h20q90 0 90 85t-90 85h-30q-95 0 -147.5 53.5t-52.5 141.5t52.5 141.5t147.5 53.5h40q95 0 147.5 -53.5t52.5 -141.5h-120q0 85 -90 85h-20q-90 0 -90 -85t90 -85h30z" />
    <glyph glyph-name="scaron" unicode="&#x161;" horiz-adv-x="510" 
d="M358 754l-98 -64l-98 64q-41 27 -51.5 42t-10.5 44v15h90v-5q0 -10 4 -15t19 -15l47 -31l47 31q15 10 19 15t4 15v5h90v-15q0 -29 -10.5 -44t-51.5 -42zM280 390q95 0 147.5 -53.5t52.5 -141.5t-52.5 -141.5t-147.5 -53.5h-40q-95 0 -147.5 53.5t-52.5 141.5h120
q0 -85 90 -85h20q90 0 90 85t-90 85h-30q-95 0 -147.5 53.5t-52.5 141.5t52.5 141.5t147.5 53.5h40q95 0 147.5 -53.5t52.5 -141.5h-120q0 85 -90 85h-20q-90 0 -90 -85t90 -85h30z" />
    <glyph glyph-name="uni0162" unicode="&#x162;" horiz-adv-x="460" 
d="M265 670q-82 -37 -104 -110h-151v110h255zM365 670h85v-110h-85q-37 0 -56 -20t-19 -70v-470h-15v-39q0 -65 -41 -98t-114 -33v80q31 0 48 13t17 52v25h-15v480q0 94 52.5 142t142.5 48z" />
    <glyph glyph-name="uni0163" unicode="&#x163;" horiz-adv-x="460" 
d="M265 670q-82 -37 -104 -110h-151v110h255zM365 670h85v-110h-85q-37 0 -56 -20t-19 -70v-470h-15v-39q0 -65 -41 -98t-114 -33v80q31 0 48 13t17 52v25h-15v480q0 94 52.5 142t142.5 48z" />
    <glyph glyph-name="Tcaron" unicode="&#x164;" horiz-adv-x="460" 
d="M328 754l-98 -64l-98 64q-41 27 -51.5 42t-10.5 44v15h90v-5q0 -10 4 -15t19 -15l47 -31l47 31q15 10 19 15t4 15v5h90v-15q0 -29 -10.5 -44t-51.5 -42zM10 560v110h255q-82 -37 -104 -110h-151zM170 0v480q0 94 52.5 142t142.5 48h85v-110h-85q-37 0 -56 -20t-19 -70
v-470h-120z" />
    <glyph glyph-name="tcaron" unicode="&#x165;" horiz-adv-x="460" 
d="M328 754l-98 -64l-98 64q-41 27 -51.5 42t-10.5 44v15h90v-5q0 -10 4 -15t19 -15l47 -31l47 31q15 10 19 15t4 15v5h90v-15q0 -29 -10.5 -44t-51.5 -42zM10 560v110h255q-82 -37 -104 -110h-151zM170 0v480q0 94 52.5 142t142.5 48h85v-110h-85q-37 0 -56 -20t-19 -70
v-470h-120z" />
    <glyph glyph-name="Tbar" unicode="&#x166;" horiz-adv-x="460" 
d="M10 560v110h255q-82 -37 -104 -110h-151zM170 410v70q0 94 52.5 142t142.5 48h85v-110h-85q-37 0 -56 -20t-19 -70v-60h-120zM90 280v110h280v-110h-280zM290 260v-260h-120v260h120z" />
    <glyph glyph-name="tbar" unicode="&#x167;" horiz-adv-x="460" 
d="M10 560v110h255q-82 -37 -104 -110h-151zM170 410v70q0 94 52.5 142t142.5 48h85v-110h-85q-37 0 -56 -20t-19 -70v-60h-120zM90 280v110h280v-110h-280zM290 260v-260h-120v260h120z" />
    <glyph glyph-name="Umacron" unicode="&#x16a;" 
d="M110 710v90h300v-90h-300zM360 670h120v-475q0 -88 -52.5 -141.5t-147.5 -53.5h-40q-95 0 -147.5 53.5t-52.5 141.5v475h120v-475q0 -85 90 -85h20q90 0 90 85v475z" />
    <glyph glyph-name="umacron" unicode="&#x16b;" 
d="M110 710v90h300v-90h-300zM360 670h120v-475q0 -88 -52.5 -141.5t-147.5 -53.5h-40q-95 0 -147.5 53.5t-52.5 141.5v475h120v-475q0 -85 90 -85h20q90 0 90 85v475z" />
    <glyph glyph-name="Uring" unicode="&#x16e;" 
d="M266 950q124 0 124 -120t-124 -120h-12q-124 0 -124 120t124 120h12zM263 786q43 0 43 44t-43 44h-6q-43 0 -43 -44t43 -44h6zM360 670h120v-475q0 -88 -52.5 -141.5t-147.5 -53.5h-40q-95 0 -147.5 53.5t-52.5 141.5v475h120v-475q0 -85 90 -85h20q90 0 90 85v475z" />
    <glyph glyph-name="uring" unicode="&#x16f;" 
d="M266 950q124 0 124 -120t-124 -120h-12q-124 0 -124 120t124 120h12zM263 786q43 0 43 44t-43 44h-6q-43 0 -43 -44t43 -44h6zM360 670h120v-475q0 -88 -52.5 -141.5t-147.5 -53.5h-40q-95 0 -147.5 53.5t-52.5 141.5v475h120v-475q0 -85 90 -85h20q90 0 90 85v475z" />
    <glyph glyph-name="Uhungarumlaut" unicode="&#x170;" 
d="M160 855h90q0 -70 -37 -107.5t-104 -37.5h-39v80h25q39 0 52 17t13 48zM360 855h90q0 -70 -37 -107.5t-104 -37.5h-39v80h25q39 0 52 17t13 48zM360 670h120v-475q0 -88 -52.5 -141.5t-147.5 -53.5h-40q-95 0 -147.5 53.5t-52.5 141.5v475h120v-475q0 -85 90 -85h20
q90 0 90 85v475z" />
    <glyph glyph-name="uhungarumlaut" unicode="&#x171;" 
d="M160 855h90q0 -70 -37 -107.5t-104 -37.5h-39v80h25q39 0 52 17t13 48zM360 855h90q0 -70 -37 -107.5t-104 -37.5h-39v80h25q39 0 52 17t13 48zM360 670h120v-475q0 -88 -52.5 -141.5t-147.5 -53.5h-40q-95 0 -147.5 53.5t-52.5 141.5v475h120v-475q0 -85 90 -85h20
q90 0 90 85v475z" />
    <glyph glyph-name="Uogonek" unicode="&#x172;" 
d="M360 670h120v-475q0 -76 -40 -127.5t-112 -63.5q-32 -5 -47.5 -14t-15.5 -30v-10q0 -25 16.5 -32.5t48.5 -7.5v-80q-73 0 -114 25.5t-41 75.5v18q0 33 18 55q-74 13 -113.5 64t-39.5 127v475h120v-475q0 -85 90 -85h20q90 0 90 85v475z" />
    <glyph glyph-name="uogonek" unicode="&#x173;" 
d="M360 670h120v-475q0 -76 -40 -127.5t-112 -63.5q-32 -5 -47.5 -14t-15.5 -30v-10q0 -25 16.5 -32.5t48.5 -7.5v-80q-73 0 -114 25.5t-41 75.5v18q0 33 18 55q-74 13 -113.5 64t-39.5 127v475h120v-475q0 -85 90 -85h20q90 0 90 85v475z" />
    <glyph glyph-name="Wcircumflex" unicode="&#x174;" horiz-adv-x="840" 
d="M518 811q41 -27 51.5 -42t10.5 -44v-15h-90v5q0 10 -4 15t-19 15l-47 31l-47 -31q-15 -10 -19 -15t-4 -15v-5h-90v15q0 29 10.5 44t51.5 42l98 64zM260 0q-68 0 -105 55l-93 138q-13 19 -17.5 36.5t-4.5 50.5v390h120v-405q0 -10 5 -17l161 -229q-30 -19 -66 -19zM580 0
q-68 0 -105 55l-55 82l-53 -77q-9 -13 -21 -25l-70 100l79 113q5 7 5 17v405h120v-405q0 -10 5 -17l161 -229q-30 -19 -66 -19zM666 35l-70 100l79 113q5 7 5 17v405h120v-390q0 -33 -4.5 -50.5t-17.5 -36.5l-91 -133q-9 -13 -21 -25z" />
    <glyph glyph-name="wcircumflex" unicode="&#x175;" horiz-adv-x="840" 
d="M518 811q41 -27 51.5 -42t10.5 -44v-15h-90v5q0 10 -4 15t-19 15l-47 31l-47 -31q-15 -10 -19 -15t-4 -15v-5h-90v15q0 29 10.5 44t51.5 42l98 64zM260 0q-68 0 -105 55l-93 138q-13 19 -17.5 36.5t-4.5 50.5v390h120v-405q0 -10 5 -17l161 -229q-30 -19 -66 -19zM580 0
q-68 0 -105 55l-55 82l-53 -77q-9 -13 -21 -25l-70 100l79 113q5 7 5 17v405h120v-405q0 -10 5 -17l161 -229q-30 -19 -66 -19zM666 35l-70 100l79 113q5 7 5 17v405h120v-390q0 -33 -4.5 -50.5t-17.5 -36.5l-91 -133q-9 -13 -21 -25z" />
    <glyph glyph-name="Ycircumflex" unicode="&#x176;" horiz-adv-x="500" 
d="M348 811q41 -27 51.5 -42t10.5 -44v-15h-90v5q0 10 -4 15t-19 15l-47 31l-47 -31q-15 -10 -19 -15t-4 -15v-5h-90v15q0 29 10.5 44t51.5 42l98 64zM174 235l-122 178q-13 19 -17.5 36.5t-4.5 50.5v170h120v-185q0 -10 5 -17l82 -119q-49 -65 -63 -114zM190 0v205
q0 43 47 110l108 153q5 7 5 17v185h120v-170q0 -33 -4.5 -50.5t-17.5 -36.5l-91 -133q-47 -70 -47 -110v-170h-120z" />
    <glyph glyph-name="ycircumflex" unicode="&#x177;" horiz-adv-x="500" 
d="M348 811q41 -27 51.5 -42t10.5 -44v-15h-90v5q0 10 -4 15t-19 15l-47 31l-47 -31q-15 -10 -19 -15t-4 -15v-5h-90v15q0 29 10.5 44t51.5 42l98 64zM174 235l-122 178q-13 19 -17.5 36.5t-4.5 50.5v170h120v-185q0 -10 5 -17l82 -119q-49 -65 -63 -114zM190 0v205
q0 43 47 110l108 153q5 7 5 17v185h120v-170q0 -33 -4.5 -50.5t-17.5 -36.5l-91 -133q-47 -70 -47 -110v-170h-120z" />
    <glyph glyph-name="Ydieresis" unicode="&#x178;" horiz-adv-x="500" 
d="M210 830v-120h-120v20q0 100 100 100h20zM290 710v120h120v-20q0 -100 -100 -100h-20zM174 235l-122 178q-13 19 -17.5 36.5t-4.5 50.5v170h120v-185q0 -10 5 -17l82 -119q-49 -65 -63 -114zM190 0v205q0 43 47 110l108 153q5 7 5 17v185h120v-170q0 -33 -4.5 -50.5
t-17.5 -36.5l-91 -133q-47 -70 -47 -110v-170h-120z" />
    <glyph glyph-name="Zacute" unicode="&#x179;" horiz-adv-x="500" 
d="M280 855h90q0 -70 -37 -107.5t-104 -37.5h-39v80h25q39 0 52 17t13 48zM30 0v45q0 62 62 156l235 354q23 35 23 80v35h120v-45q0 -62 -62 -156l-235 -354q-23 -35 -23 -80v-35h-120zM30 560v110h300v-35q0 -39 -20 -69l-4 -6h-276zM170 0v35q0 39 20 69l4 6h276v-110
h-300z" />
    <glyph glyph-name="zacute" unicode="&#x17a;" horiz-adv-x="500" 
d="M280 855h90q0 -70 -37 -107.5t-104 -37.5h-39v80h25q39 0 52 17t13 48zM30 0v45q0 62 62 156l235 354q23 35 23 80v35h120v-45q0 -62 -62 -156l-235 -354q-23 -35 -23 -80v-35h-120zM30 560v110h300v-35q0 -39 -20 -69l-4 -6h-276zM170 0v35q0 39 20 69l4 6h276v-110
h-300z" />
    <glyph glyph-name="Zdotaccent" unicode="&#x17b;" horiz-adv-x="500" 
d="M190 710v120h120v-20q0 -100 -100 -100h-20zM30 0v45q0 62 62 156l235 354q23 35 23 80v35h120v-45q0 -62 -62 -156l-235 -354q-23 -35 -23 -80v-35h-120zM30 560v110h300v-35q0 -39 -20 -69l-4 -6h-276zM170 0v35q0 39 20 69l4 6h276v-110h-300z" />
    <glyph glyph-name="zdotaccent" unicode="&#x17c;" horiz-adv-x="500" 
d="M190 710v120h120v-20q0 -100 -100 -100h-20zM30 0v45q0 62 62 156l235 354q23 35 23 80v35h120v-45q0 -62 -62 -156l-235 -354q-23 -35 -23 -80v-35h-120zM30 560v110h300v-35q0 -39 -20 -69l-4 -6h-276zM170 0v35q0 39 20 69l4 6h276v-110h-300z" />
    <glyph glyph-name="Zcaron" unicode="&#x17d;" horiz-adv-x="500" 
d="M348 754l-98 -64l-98 64q-41 27 -51.5 42t-10.5 44v15h90v-5q0 -10 4 -15t19 -15l47 -31l47 31q15 10 19 15t4 15v5h90v-15q0 -29 -10.5 -44t-51.5 -42zM30 0v45q0 62 62 156l235 354q23 35 23 80v35h120v-45q0 -62 -62 -156l-235 -354q-23 -35 -23 -80v-35h-120zM30 560
v110h300v-35q0 -39 -20 -69l-4 -6h-276zM170 0v35q0 39 20 69l4 6h276v-110h-300z" />
    <glyph glyph-name="zcaron" unicode="&#x17e;" horiz-adv-x="500" 
d="M348 754l-98 -64l-98 64q-41 27 -51.5 42t-10.5 44v15h90v-5q0 -10 4 -15t19 -15l47 -31l47 31q15 10 19 15t4 15v5h90v-15q0 -29 -10.5 -44t-51.5 -42zM30 0v45q0 62 62 156l235 354q23 35 23 80v35h120v-45q0 -62 -62 -156l-235 -354q-23 -35 -23 -80v-35h-120zM30 560
v110h300v-35q0 -39 -20 -69l-4 -6h-276zM170 0v35q0 39 20 69l4 6h276v-110h-300z" />
    <glyph glyph-name="florin" unicode="&#x192;" horiz-adv-x="590" 
d="M482 670h68v-110h-73q-91 0 -102 -85l-12 -85h112v-110h-370v110h138l12 85q12 88 72 141.5t155 53.5zM215 195l10 65h120l-10 -65q-14 -89 -73 -142t-154 -53h-68v110h73q89 0 102 85z" />
    <glyph glyph-name="Scommaaccent" unicode="&#x218;" horiz-adv-x="510" 
d="M280 390q95 0 147.5 -53.5t52.5 -141.5t-52.5 -141.5t-147.5 -53.5h-40q-95 0 -147.5 53.5t-52.5 141.5h120q0 -85 90 -85h20q90 0 90 85t-90 85h-30q-95 0 -147.5 53.5t-52.5 141.5t52.5 141.5t147.5 53.5h40q95 0 147.5 -53.5t52.5 -141.5h-120q0 85 -90 85h-20
q-90 0 -90 -85t90 -85h30zM150 -111q31 0 48 13t17 52v25h90v-39q0 -65 -41 -98t-114 -33v80z" />
    <glyph glyph-name="scommaaccent" unicode="&#x219;" horiz-adv-x="510" 
d="M280 390q95 0 147.5 -53.5t52.5 -141.5t-52.5 -141.5t-147.5 -53.5h-40q-95 0 -147.5 53.5t-52.5 141.5h120q0 -85 90 -85h20q90 0 90 85t-90 85h-30q-95 0 -147.5 53.5t-52.5 141.5t52.5 141.5t147.5 53.5h40q95 0 147.5 -53.5t52.5 -141.5h-120q0 85 -90 85h-20
q-90 0 -90 -85t90 -85h30zM150 -111q31 0 48 13t17 52v25h90v-39q0 -65 -41 -98t-114 -33v80z" />
    <glyph glyph-name="uni021A" unicode="&#x21a;" horiz-adv-x="460" 
d="M10 560v110h255q-82 -37 -104 -110h-151zM170 0v480q0 94 52.5 142t142.5 48h85v-110h-85q-37 0 -56 -20t-19 -70v-470h-120zM120 -110q31 0 48 13t17 52v25h90v-39q0 -65 -41 -98t-114 -33v80z" />
    <glyph glyph-name="uni021B" unicode="&#x21b;" horiz-adv-x="460" 
d="M10 560v110h255q-82 -37 -104 -110h-151zM170 0v480q0 94 52.5 142t142.5 48h85v-110h-85q-37 0 -56 -20t-19 -70v-470h-120zM120 -110q31 0 48 13t17 52v25h90v-39q0 -65 -41 -98t-114 -33v80z" />
    <glyph glyph-name="circumflex" unicode="&#x2c6;" horiz-adv-x="400" 
d="M298 811q41 -27 51.5 -42t10.5 -44v-15h-90v5q0 10 -4 15t-19 15l-47 31l-47 -31q-15 -10 -19 -15t-4 -15v-5h-90v15q0 29 10.5 44t51.5 42l98 64z" />
    <glyph glyph-name="caron" unicode="&#x2c7;" horiz-adv-x="400" 
d="M298 754l-98 -64l-98 64q-41 27 -51.5 42t-10.5 44v15h90v-5q0 -10 4 -15t19 -15l47 -31l47 31q15 10 19 15t4 15v5h90v-15q0 -29 -10.5 -44t-51.5 -42z" />
    <glyph glyph-name="breve" unicode="&#x2d8;" horiz-adv-x="400" 
d="M270 855h90q0 -70 -37 -107.5t-104 -37.5h-38q-67 0 -104 37.5t-37 107.5h90q0 -31 13 -48t52 -17h10q39 0 52 17t13 48z" />
    <glyph glyph-name="dotaccent" unicode="&#x2d9;" horiz-adv-x="200" 
d="M40 710v120h120v-20q0 -100 -100 -100h-20z" />
    <glyph glyph-name="ring" unicode="&#x2da;" horiz-adv-x="340" 
d="M176 950q124 0 124 -120t-124 -120h-12q-124 0 -124 120t124 120h12zM173 786q43 0 43 44t-43 44h-6q-43 0 -43 -44t43 -44h6z" />
    <glyph glyph-name="ogonek" unicode="&#x2db;" horiz-adv-x="235" 
d="M195 -90v-80q-73 0 -114 25.5t-41 75.5v18q0 50 41 75.5t114 25.5v-50q-32 0 -48.5 -7.5t-16.5 -32.5v-10q0 -25 16.5 -32.5t48.5 -7.5z" />
    <glyph glyph-name="tilde" unicode="&#x2dc;" horiz-adv-x="460" 
d="M420 855h-80q0 -55 -36 -55q-16 0 -33 8.5t-30.5 19t-37.5 19t-52 8.5q-111 0 -111 -145h80q0 55 36 55q19 0 40 -13.5t49 -27.5t64 -14q111 0 111 145z" />
    <glyph glyph-name="hungarumlaut" unicode="&#x2dd;" horiz-adv-x="460" 
d="M130 855h90q0 -70 -37 -107.5t-104 -37.5h-39v80h25q39 0 52 17t13 48zM330 855h90q0 -70 -37 -107.5t-104 -37.5h-39v80h25q39 0 52 17t13 48z" />
    <glyph glyph-name="gravecomb" unicode="&#x300;" horiz-adv-x="0" 
d="M-130 855q0 -31 13 -48t52 -17h25v-80h-39q-67 0 -104 37.5t-37 107.5h90z" />
    <glyph glyph-name="acutecomb" unicode="&#x301;" horiz-adv-x="0" 
d="M-130 855h90q0 -70 -37 -107.5t-104 -37.5h-39v80h25q39 0 52 17t13 48z" />
    <glyph glyph-name="uni0302" unicode="&#x302;" horiz-adv-x="0" 
d="M-102 811q41 -27 51.5 -42t10.5 -44v-15h-90v5q0 10 -4 15t-19 15l-47 31l-47 -31q-15 -10 -19 -15t-4 -15v-5h-90v15q0 29 10.5 44t51.5 42l98 64z" />
    <glyph glyph-name="tildecomb" unicode="&#x303;" horiz-adv-x="0" 
d="M-40 855h-80q0 -55 -36 -55q-16 0 -33 8.5t-30.5 19t-37.5 19t-52 8.5q-111 0 -111 -145h80q0 55 36 55q19 0 40 -13.5t49 -27.5t64 -14q111 0 111 145z" />
    <glyph glyph-name="uni0304" unicode="&#x304;" horiz-adv-x="0" 
d="M-340 710v90h300v-90h-300z" />
    <glyph glyph-name="uni0306" unicode="&#x306;" horiz-adv-x="0" 
d="M-130 855h90q0 -70 -37 -107.5t-104 -37.5h-38q-67 0 -104 37.5t-37 107.5h90q0 -31 13 -48t52 -17h10q39 0 52 17t13 48z" />
    <glyph glyph-name="uni0307" unicode="&#x307;" horiz-adv-x="0" 
d="M-160 710v120h120v-20q0 -100 -100 -100h-20z" />
    <glyph glyph-name="uni0308" unicode="&#x308;" horiz-adv-x="0" 
d="M-240 830v-120h-120v20q0 100 100 100h20zM-160 710v120h120v-20q0 -100 -100 -100h-20z" />
    <glyph glyph-name="uni030A" unicode="&#x30a;" horiz-adv-x="0" 
d="M-164 950q124 0 124 -120t-124 -120h-12q-124 0 -124 120t124 120h12zM-167 786q43 0 43 44t-43 44h-6q-43 0 -43 -44t43 -44h6z" />
    <glyph glyph-name="uni030B" unicode="&#x30b;" horiz-adv-x="0" 
d="M-330 855h90q0 -70 -37 -107.5t-104 -37.5h-39v80h25q39 0 52 17t13 48zM-130 855h90q0 -70 -37 -107.5t-104 -37.5h-39v80h25q39 0 52 17t13 48z" />
    <glyph glyph-name="uni030C" unicode="&#x30c;" horiz-adv-x="0" 
d="M-102 754l-98 -64l-98 64q-41 27 -51.5 42t-10.5 44v15h90v-5q0 -10 4 -15t19 -15l47 -31l47 31q15 10 19 15t4 15v5h90v-15q0 -29 -10.5 -44t-51.5 -42z" />
    <glyph glyph-name="uni0312" unicode="&#x312;" horiz-adv-x="0" 
d="M-40 780q-31 0 -48 -13t-17 -52v-15h-90v29q0 65 41 98t114 33v-80z" />
    <glyph glyph-name="uni0326" unicode="&#x326;" horiz-adv-x="0" 
d="M-195 -110q31 0 48 13t17 52v25h90v-39q0 -65 -41 -98t-114 -33v80z" />
    <glyph glyph-name="uni0327" unicode="&#x327;" horiz-adv-x="0" 
d="M-195 -90q31 0 48 13t17 52v35h90v-49q0 -65 -41 -98t-114 -33v80z" />
    <glyph glyph-name="uni0328" unicode="&#x328;" horiz-adv-x="0" 
d="M-40 -90v-80q-73 0 -114 25.5t-41 75.5v18q0 50 41 75.5t114 25.5v-50q-32 0 -48.5 -7.5t-16.5 -32.5v-10q0 -25 16.5 -32.5t48.5 -7.5z" />
    <glyph glyph-name="uni0394" unicode="&#x394;" horiz-adv-x="532" 
d="M436 519l66 -519h-472l66 519q11 83 54 117t116 34t116 -34t54 -117zM164 110h204l-48 395q-4 34 -16.5 44.5t-37.5 10.5t-37.5 -10.5t-16.5 -44.5z" />
    <glyph glyph-name="uni03A9" unicode="&#x3a9;" horiz-adv-x="590" 
d="M550 335q0 -64 -28 -110.5t-82 -68.5v-46h110v-110h-230v250h20q90 0 90 85v140q0 85 -90 85h-90q-90 0 -90 -85v-140q0 -85 90 -85h20v-250h-230v110h110v46q-54 22 -82 68.5t-28 110.5v140q0 88 52.5 141.5t147.5 53.5h110q95 0 147.5 -53.5t52.5 -141.5v-140z" />
    <glyph glyph-name="uni03BC" unicode="&#x3bc;" 
d="M160 -200h-120v870h120v-870zM360 670h120v-475q0 -88 -52.5 -141.5t-147.5 -53.5h-40q-33 0 -60 6v128q22 -24 70 -24h20q90 0 90 85v475z" />
    <glyph glyph-name="pi" unicode="&#x3c0;" 
d="M480 670v-670h-120v560h-200v-560h-120v670h440z" />
    <glyph glyph-name="uni0401" unicode="&#x401;" horiz-adv-x="500" 
d="M220 830v-120h-120v20q0 100 100 100h20zM300 710v120h120v-20q0 -100 -100 -100h-20zM250 560q-90 0 -90 -85v-20q0 -85 90 -85h110v-110h-120q-95 0 -147.5 53.5t-52.5 141.5v20q0 88 52.5 141.5t147.5 53.5h240v-110h-230zM160 195q0 -85 90 -85h230v-110h-240
q-95 0 -147.5 53.5t-52.5 141.5v160q35 -78 120 -104v-56z" />
    <glyph glyph-name="uni0402" unicode="&#x402;" horiz-adv-x="640" 
d="M265 670q-82 -37 -104 -110h-151v110h255zM410 390q95 0 147.5 -53.5t52.5 -141.5t-52.5 -141.5t-147.5 -53.5h-240v480q0 94 52.5 142t142.5 48h125v-110h-125q-37 0 -56 -20t-19 -70v-360h120q80 0 80 85t-80 85h-100v110h100z" />
    <glyph glyph-name="uni0403" unicode="&#x403;" horiz-adv-x="470" 
d="M310 855h90q0 -70 -37 -107.5t-104 -37.5h-39v80h25q39 0 52 17t13 48zM240 670h220v-110h-210q-90 0 -90 -85v-475h-120v475q0 88 52.5 141.5t147.5 53.5z" />
    <glyph glyph-name="uni0404" unicode="&#x404;" horiz-adv-x="500" 
d="M160 195q0 -85 90 -85h230v-110h-240q-95 0 -147.5 53.5t-52.5 141.5v280q0 88 52.5 141.5t147.5 53.5h40q95 0 147.5 -53.5t52.5 -141.5h-120q0 85 -90 85h-20q-90 0 -90 -85v-105h200v-110h-200v-65z" />
    <glyph glyph-name="uni0405" unicode="&#x405;" horiz-adv-x="510" 
d="M280 390q95 0 147.5 -53.5t52.5 -141.5t-52.5 -141.5t-147.5 -53.5h-40q-95 0 -147.5 53.5t-52.5 141.5h120q0 -85 90 -85h20q90 0 90 85t-90 85h-30q-95 0 -147.5 53.5t-52.5 141.5t52.5 141.5t147.5 53.5h40q95 0 147.5 -53.5t52.5 -141.5h-120q0 85 -90 85h-20
q-90 0 -90 -85t90 -85h30z" />
    <glyph glyph-name="uni0406" unicode="&#x406;" horiz-adv-x="380" 
d="M325 0q-90 0 -142.5 48t-52.5 142v280q0 50 -19 70t-56 20h-25v110h25q90 0 142.5 -48t52.5 -142v-280q0 -50 19 -70t56 -20h25v-110h-25zM259 560q-22 73 -104 110h195v-110h-91zM30 0v110h91q22 -73 104 -110h-195z" />
    <glyph glyph-name="uni0407" unicode="&#x407;" horiz-adv-x="380" 
d="M150 830v-120h-120v20q0 100 100 100h20zM230 710v120h120v-20q0 -100 -100 -100h-20zM325 0q-90 0 -142.5 48t-52.5 142v280q0 50 -19 70t-56 20h-25v110h25q90 0 142.5 -48t52.5 -142v-280q0 -50 19 -70t56 -20h25v-110h-25zM259 560q-22 73 -104 110h195v-110h-91z
M30 0v110h91q22 -73 104 -110h-195z" />
    <glyph glyph-name="uni0408" unicode="&#x408;" 
d="M360 670h120v-475q0 -88 -52.5 -141.5t-147.5 -53.5h-60q-95 0 -147.5 53.5t-52.5 141.5h120q0 -85 90 -85h40q90 0 90 85v475z" />
    <glyph glyph-name="uni0409" unicode="&#x409;" horiz-adv-x="850" 
d="M620 390q95 0 147.5 -53.5t52.5 -141.5t-52.5 -141.5t-147.5 -53.5h-240v560h-110q-25 0 -38 -11t-16 -44l-30 -365q-6 -77 -46 -108.5t-110 -31.5h-10v110h20q23 0 24 20l36 389q8 84 55 117.5t135 33.5h210v-560h110q90 0 90 85t-80 85h-100v110h100z" />
    <glyph glyph-name="uni040A" unicode="&#x40a;" horiz-adv-x="830" 
d="M600 390q95 0 147.5 -53.5t52.5 -141.5t-52.5 -141.5t-147.5 -53.5h-240v195q0 85 -90 85h-30q-95 0 -147.5 53.5t-52.5 141.5v195h120v-195q0 -85 90 -85h30q95 0 147.5 -53.5t52.5 -141.5v-85h110q90 0 90 85t-80 85h-100v110h100zM480 295q-35 78 -120 104v271h120
v-375zM40 375q35 -78 120 -104v-271h-120v375z" />
    <glyph glyph-name="uni040B" unicode="&#x40b;" horiz-adv-x="650" 
d="M265 670q-82 -37 -104 -110h-151v110h255zM410 390q95 0 147.5 -53.5t52.5 -141.5v-195h-120v195q0 85 -80 85h-120v-280h-120v480q0 94 52.5 142t142.5 48h125v-110h-125q-37 0 -56 -20t-19 -70v-80h120z" />
    <glyph glyph-name="uni040C" unicode="&#x40c;" 
d="M310 855h90q0 -70 -37 -107.5t-104 -37.5h-39v80h25q39 0 52 17t13 48zM440 450q-15 -79 -63 -115q48 -36 63 -115l16 -90q4 -20 24 -20h20v-110h-10q-69 0 -106.5 31t-49.5 109l-10 66q-12 74 -84 74q-80 0 -80 -85v-195h-120v195q0 88 52.5 141.5t147.5 53.5
q72 0 84 74l10 66q12 78 49.5 109t106.5 31h10v-110h-20q-20 0 -24 -20zM160 399q-85 -26 -120 -104v375h120v-271z" />
    <glyph glyph-name="uni040E" unicode="&#x40e;" horiz-adv-x="510" 
d="M330 855h90q0 -70 -37 -107.5t-104 -37.5h-38q-67 0 -104 37.5t-37 107.5h90q0 -31 13 -48t52 -17h10q39 0 52 17t13 48zM177 245l-115 168q-22 32 -22 87v170h120v-185q0 -10 5 -17l82 -119zM360 670h120v-170q0 -33 -4.5 -50.5t-17.5 -36.5l-221 -323
q-32 -47 -71.5 -68.5t-100.5 -21.5h-25v110h30q41 0 65 36l218 319q7 10 7 20v185z" />
    <glyph glyph-name="uni040F" unicode="&#x40f;" 
d="M184 110q65 0 100.5 -36.5t35.5 -96.5v-77h-120v42q0 58 -54 58h-106v670h120v-560h24zM268 110q62 -34 71 -110h141v670h-120v-560h-92z" />
    <glyph glyph-name="uni0410" unicode="&#x410;" 
d="M40 0v175q0 88 52.5 141.5t147.5 53.5h40q44 0 80 -17v52q0 10 -5 17l-97 136l-93 -136q-5 -7 -5 -17v-26q-85 -26 -120 -104v115q0 33 4.5 50.5t17.5 36.5l93 138q37 55 105 55q65 0 107 -60l91 -133q13 -19 17.5 -36.5t4.5 -50.5v-390h-120v175q0 85 -90 85h-20
q-90 0 -90 -85v-175h-120z" />
    <glyph glyph-name="uni0411" unicode="&#x411;" 
d="M280 390q95 0 147.5 -53.5t52.5 -141.5t-52.5 -141.5t-147.5 -53.5h-240v670h410v-110h-290v-450h110q90 0 90 85t-80 85h-100v110h100z" />
    <glyph glyph-name="uni0412" unicode="&#x412;" 
d="M280 390q95 0 147.5 -53.5t52.5 -141.5t-52.5 -141.5t-147.5 -53.5h-240v670h240q95 0 147.5 -53.5t52.5 -141.5q0 -75 -38 -125q-42 44 -112 56q30 22 30 69q0 85 -90 85h-110v-170h120zM270 110q90 0 90 85t-80 85h-120v-170h110z" />
    <glyph glyph-name="uni0413" unicode="&#x413;" horiz-adv-x="470" 
d="M240 670h220v-110h-210q-90 0 -90 -85v-475h-120v475q0 88 52.5 141.5t147.5 53.5z" />
    <glyph glyph-name="uni0414" unicode="&#x414;" horiz-adv-x="680" 
d="M534 110q65 0 100.5 -36.5t35.5 -96.5v-77h-120v42q0 58 -54 58h-312q-54 0 -54 -58v-42h-120v77q0 60 31 96.5t88 36.5h4l37 409q8 84 55 117.5t135 33.5h210v-540h-120v430h-110q-25 0 -38 -11t-16 -44l-33 -395h281z" />
    <glyph glyph-name="uni0415" unicode="&#x415;" horiz-adv-x="500" 
d="M250 560q-90 0 -90 -85v-20q0 -85 90 -85h110v-110h-120q-95 0 -147.5 53.5t-52.5 141.5v20q0 88 52.5 141.5t147.5 53.5h240v-110h-230zM160 195q0 -85 90 -85h230v-110h-240q-95 0 -147.5 53.5t-52.5 141.5v160q35 -78 120 -104v-56z" />
    <glyph glyph-name="uni0416" unicode="&#x416;" horiz-adv-x="840" 
d="M196 464q11 -74 84 -74h60v-110h-60q-73 0 -84 -74l-10 -66q-12 -78 -49.5 -109t-106.5 -31h-10v110h20q20 0 24 20l16 90q13 79 63 115q-50 36 -63 115l-16 90q-4 20 -24 20h-20v110h10q69 0 106.5 -31t49.5 -109zM360 0v670h120v-670h-120zM760 450q-15 -79 -63 -115
q48 -36 63 -115l16 -90q4 -20 24 -20h20v-110h-10q-69 0 -106.5 31t-49.5 109l-10 66q-12 74 -84 74h-60v110h60q72 0 84 74l10 66q12 78 49.5 109t106.5 31h10v-110h-20q-20 0 -24 -20z" />
    <glyph glyph-name="uni0417" unicode="&#x417;" horiz-adv-x="500" 
d="M230 560q-90 0 -90 -85h-120q0 88 52.5 141.5t147.5 53.5h40q95 0 147.5 -53.5t52.5 -141.5q0 -75 -38 -125q-42 44 -112 56q30 22 30 69q0 85 -90 85h-20zM260 390q95 0 147.5 -53.5t52.5 -141.5t-52.5 -141.5t-147.5 -53.5h-40q-95 0 -147.5 53.5t-52.5 141.5h120
q0 -85 90 -85h20q90 0 90 85t-80 85h-120v110h120z" />
    <glyph glyph-name="uni0418" unicode="&#x418;" 
d="M160 0h-120v45q0 62 62 156l235 354q23 35 23 80v35h120v-45q0 -62 -62 -156l-235 -354q-23 -35 -23 -80v-35zM40 130v540h120v-345l-75 -113q-29 -46 -45 -82zM480 0h-120v345l75 113q26 39 45 82v-540z" />
    <glyph glyph-name="uni0419" unicode="&#x419;" 
d="M330 855h90q0 -70 -37 -107.5t-104 -37.5h-38q-67 0 -104 37.5t-37 107.5h90q0 -31 13 -48t52 -17h10q39 0 52 17t13 48zM160 0h-120v45q0 62 62 156l235 354q23 35 23 80v35h120v-45q0 -62 -62 -156l-235 -354q-23 -35 -23 -80v-35zM40 130v540h120v-345l-75 -113
q-29 -46 -45 -82zM480 0h-120v345l75 113q26 39 45 82v-540z" />
    <glyph glyph-name="uni041A" unicode="&#x41a;" 
d="M440 450q-15 -79 -63 -115q48 -36 63 -115l16 -90q4 -20 24 -20h20v-110h-10q-69 0 -106.5 31t-49.5 109l-10 66q-12 74 -84 74q-80 0 -80 -85v-195h-120v195q0 88 52.5 141.5t147.5 53.5q72 0 84 74l10 66q12 78 49.5 109t106.5 31h10v-110h-20q-20 0 -24 -20zM160 399
q-85 -26 -120 -104v375h120v-271z" />
    <glyph glyph-name="uni041B" unicode="&#x41b;" horiz-adv-x="540" 
d="M290 670h210v-670h-120v560h-110q-25 0 -38 -11t-16 -44l-30 -365q-7 -79 -43.5 -109.5t-112.5 -30.5h-10v110h20q23 0 24 20l36 389q8 84 55 117.5t135 33.5z" />
    <glyph glyph-name="uni041C" unicode="&#x41c;" horiz-adv-x="640" 
d="M320 242q-68 0 -105 55l-113 172q-62 94 -62 156v45h120v-35q0 -45 23 -80l136 -201l138 201q23 35 23 80v35h120v-45q0 -63 -62 -156l-111 -167q-42 -60 -107 -60zM40 0v540q19 -43 45 -82l75 -113v-345h-120zM480 0v345l75 113q26 39 45 82v-540h-120z" />
    <glyph glyph-name="uni041D" unicode="&#x41d;" 
d="M280 390q95 0 147.5 -53.5t52.5 -141.5v-195h-120v195q0 85 -90 85h-30q-95 0 -147.5 53.5t-52.5 141.5v195h120v-195q0 -85 90 -85h30zM360 670h120v-375q-35 78 -120 104v271zM40 375q35 -78 120 -104v-271h-120v375z" />
    <glyph glyph-name="uni041E" unicode="&#x41e;" 
d="M280 670q95 0 147.5 -53.5t52.5 -141.5v-280q0 -88 -52.5 -141.5t-147.5 -53.5h-40q-95 0 -147.5 53.5t-52.5 141.5v280q0 88 52.5 141.5t147.5 53.5h40zM360 195v280q0 85 -90 85h-20q-90 0 -90 -85v-280q0 -85 90 -85h20q90 0 90 85z" />
    <glyph glyph-name="uni041F" unicode="&#x41f;" 
d="M480 670v-670h-120v560h-200v-560h-120v670h440z" />
    <glyph glyph-name="uni0420" unicode="&#x420;" horiz-adv-x="500" 
d="M280 670q95 0 147.5 -53.5t52.5 -141.5t-52.5 -141.5t-147.5 -53.5h-30q-90 0 -90 -85v-195h-120v195q0 88 52.5 141.5t147.5 53.5h30q90 0 90 85t-90 85h-20q-90 0 -90 -85v-76q-85 -26 -120 -104v180q0 88 52.5 141.5t147.5 53.5h40z" />
    <glyph glyph-name="uni0421" unicode="&#x421;" horiz-adv-x="500" 
d="M160 195q0 -85 90 -85h230v-110h-240q-95 0 -147.5 53.5t-52.5 141.5v280q0 88 52.5 141.5t147.5 53.5h40q95 0 147.5 -53.5t52.5 -141.5h-120q0 85 -90 85h-20q-90 0 -90 -85v-280z" />
    <glyph glyph-name="uni0422" unicode="&#x422;" horiz-adv-x="460" 
d="M10 560v110h255q-82 -37 -104 -110h-151zM170 0v480q0 94 52.5 142t142.5 48h85v-110h-85q-37 0 -56 -20t-19 -70v-470h-120z" />
    <glyph glyph-name="uni0423" unicode="&#x423;" horiz-adv-x="510" 
d="M177 245l-115 168q-22 32 -22 87v170h120v-185q0 -10 5 -17l82 -119zM360 670h120v-170q0 -33 -4.5 -50.5t-17.5 -36.5l-221 -323q-32 -47 -71.5 -68.5t-100.5 -21.5h-25v110h30q41 0 65 36l218 319q7 10 7 20v185z" />
    <glyph glyph-name="uni0424" unicode="&#x424;" horiz-adv-x="640" 
d="M260 0v670h120v-670h-120zM30 395q0 88 52.5 141.5t147.5 53.5h10v-110q-90 0 -90 -85v-120q0 -85 90 -85v-110h-10q-95 0 -147.5 53.5t-52.5 141.5v120zM410 590q95 0 147.5 -53.5t52.5 -141.5v-120q0 -88 -52.5 -141.5t-147.5 -53.5h-10v110q90 0 90 85v120
q0 85 -90 85v110h10z" />
    <glyph glyph-name="uni0425" unicode="&#x425;" 
d="M490 0q-16 0 -30 3t-24 5.5t-22 12t-18 14t-18 21t-16.5 23t-19.5 29.5t-21 32l-267 400q-12 20 -24 20h-10v110h10q16 0 30 -3t24 -5.5t22 -12t18 -14t18 -21t16.5 -23t19.5 -29.5t21 -32l267 -400q12 -20 24 -20h10v-110h-10zM341 353l-69 104l49 73q6 9 21 32
t19.5 29.5t16.5 23t18 21t18 14t22 12t24 5.5t30 3h10v-110h-10q-12 0 -24 -20zM30 0h-10v110h10q12 0 24 20l125 187l69 -104l-49 -73q-6 -9 -21 -32t-19.5 -29.5t-16.5 -23t-18 -21t-18 -14t-22 -12t-24 -5.5t-30 -3z" />
    <glyph glyph-name="uni0426" unicode="&#x426;" horiz-adv-x="590" 
d="M444 110q65 0 100.5 -36.5t35.5 -96.5v-77h-120v42q0 58 -54 58h-366v670h120v-560h284zM480 670v-540h-120v540h120z" />
    <glyph glyph-name="uni0427" unicode="&#x427;" horiz-adv-x="510" 
d="M270 390q95 0 147.5 -53.5t52.5 -141.5v-195h-120v195q0 85 -90 85h-30q-95 0 -147.5 53.5t-52.5 141.5v195h120v-195q0 -85 90 -85h30zM350 670h120v-375q-35 78 -120 104v271z" />
    <glyph glyph-name="uni0428" unicode="&#x428;" horiz-adv-x="760" 
d="M720 0h-680v670h120v-560h160v560h120v-560h280v-110zM600 130v540h120v-540h-120z" />
    <glyph glyph-name="uni0429" unicode="&#x429;" horiz-adv-x="830" 
d="M684 110q65 0 100.5 -36.5t35.5 -96.5v-77h-120v42q0 58 -54 58h-606v670h120v-560h160v560h120v-560h244zM720 670v-540h-120v540h120z" />
    <glyph glyph-name="uni042A" unicode="&#x42a;" horiz-adv-x="640" 
d="M410 390q95 0 147.5 -53.5t52.5 -141.5t-52.5 -141.5t-147.5 -53.5h-240v470q0 50 -19 70t-56 20h-85v110h85q90 0 142.5 -48t52.5 -142v-370h110q90 0 90 85t-80 85h-100v110h100z" />
    <glyph glyph-name="uni042B" unicode="&#x42b;" horiz-adv-x="690" 
d="M280 390q95 0 147.5 -53.5t52.5 -141.5t-52.5 -141.5t-147.5 -53.5h-240v670h120v-560h110q90 0 90 85t-80 85h-100v110h100zM650 0h-120v670h120v-670z" />
    <glyph glyph-name="uni042C" unicode="&#x42c;" horiz-adv-x="510" 
d="M280 390q95 0 147.5 -53.5t52.5 -141.5t-52.5 -141.5t-147.5 -53.5h-240v670h120v-560h110q90 0 90 85t-80 85h-100v110h100z" />
    <glyph glyph-name="uni042D" unicode="&#x42d;" horiz-adv-x="500" 
d="M260 670q95 0 147.5 -53.5t52.5 -141.5v-280q0 -88 -52.5 -141.5t-147.5 -53.5h-240v110h230q90 0 90 85v65h-200v110h200v105q0 85 -90 85h-20q-90 0 -90 -85h-120q0 88 52.5 141.5t147.5 53.5h40z" />
    <glyph glyph-name="uni042E" unicode="&#x42e;" horiz-adv-x="770" 
d="M530 670q95 0 147.5 -53.5t52.5 -141.5v-280q0 -88 -52.5 -141.5t-147.5 -53.5h-40q-95 0 -147.5 53.5t-52.5 141.5v85h-130v-280h-120v670h120v-280h130v85q0 88 52.5 141.5t147.5 53.5h40zM610 195v280q0 85 -90 85h-20q-90 0 -90 -85v-280q0 -85 90 -85h20q90 0 90 85
z" />
    <glyph glyph-name="uni042F" unicode="&#x42f;" 
d="M480 295q-35 78 -120 104v76q0 85 -90 85h-20q-90 0 -90 -85t90 -85h30q95 0 147.5 -53.5t52.5 -141.5v-195h-120v195q0 85 -80 85q-73 0 -84 -74l-10 -66q-11 -76 -48.5 -108t-107.5 -32h-10v110h20q20 0 24 20l16 90q10 61 42 97q-82 46 -82 158q0 88 52.5 141.5
t147.5 53.5h40q95 0 147.5 -53.5t52.5 -141.5v-180z" />
    <glyph glyph-name="uni0430" unicode="&#x430;" 
d="M40 0v175q0 88 52.5 141.5t147.5 53.5h40q44 0 80 -17v52q0 10 -5 17l-97 136l-93 -136q-5 -7 -5 -17v-26q-85 -26 -120 -104v115q0 33 4.5 50.5t17.5 36.5l93 138q37 55 105 55q65 0 107 -60l91 -133q13 -19 17.5 -36.5t4.5 -50.5v-390h-120v175q0 85 -90 85h-20
q-90 0 -90 -85v-175h-120z" />
    <glyph glyph-name="uni0431" unicode="&#x431;" 
d="M280 390q95 0 147.5 -53.5t52.5 -141.5t-52.5 -141.5t-147.5 -53.5h-240v670h410v-110h-290v-450h110q90 0 90 85t-80 85h-100v110h100z" />
    <glyph glyph-name="uni0432" unicode="&#x432;" 
d="M280 390q95 0 147.5 -53.5t52.5 -141.5t-52.5 -141.5t-147.5 -53.5h-240v670h240q95 0 147.5 -53.5t52.5 -141.5q0 -75 -38 -125q-42 44 -112 56q30 22 30 69q0 85 -90 85h-110v-170h120zM270 110q90 0 90 85t-80 85h-120v-170h110z" />
    <glyph glyph-name="uni0433" unicode="&#x433;" horiz-adv-x="470" 
d="M240 670h220v-110h-210q-90 0 -90 -85v-475h-120v475q0 88 52.5 141.5t147.5 53.5z" />
    <glyph glyph-name="uni0434" unicode="&#x434;" horiz-adv-x="680" 
d="M534 110q65 0 100.5 -36.5t35.5 -96.5v-77h-120v42q0 58 -54 58h-312q-54 0 -54 -58v-42h-120v77q0 60 31 96.5t88 36.5h4l37 409q8 84 55 117.5t135 33.5h210v-540h-120v430h-110q-25 0 -38 -11t-16 -44l-33 -395h281z" />
    <glyph glyph-name="uni0435" unicode="&#x435;" horiz-adv-x="500" 
d="M250 560q-90 0 -90 -85v-20q0 -85 90 -85h110v-110h-120q-95 0 -147.5 53.5t-52.5 141.5v20q0 88 52.5 141.5t147.5 53.5h240v-110h-230zM160 195q0 -85 90 -85h230v-110h-240q-95 0 -147.5 53.5t-52.5 141.5v160q35 -78 120 -104v-56z" />
    <glyph glyph-name="uni0436" unicode="&#x436;" horiz-adv-x="840" 
d="M196 464q11 -74 84 -74h60v-110h-60q-73 0 -84 -74l-10 -66q-12 -78 -49.5 -109t-106.5 -31h-10v110h20q20 0 24 20l16 90q13 79 63 115q-50 36 -63 115l-16 90q-4 20 -24 20h-20v110h10q69 0 106.5 -31t49.5 -109zM360 0v670h120v-670h-120zM760 450q-15 -79 -63 -115
q48 -36 63 -115l16 -90q4 -20 24 -20h20v-110h-10q-69 0 -106.5 31t-49.5 109l-10 66q-12 74 -84 74h-60v110h60q72 0 84 74l10 66q12 78 49.5 109t106.5 31h10v-110h-20q-20 0 -24 -20z" />
    <glyph glyph-name="uni0437" unicode="&#x437;" horiz-adv-x="500" 
d="M230 560q-90 0 -90 -85h-120q0 88 52.5 141.5t147.5 53.5h40q95 0 147.5 -53.5t52.5 -141.5q0 -75 -38 -125q-42 44 -112 56q30 22 30 69q0 85 -90 85h-20zM260 390q95 0 147.5 -53.5t52.5 -141.5t-52.5 -141.5t-147.5 -53.5h-40q-95 0 -147.5 53.5t-52.5 141.5h120
q0 -85 90 -85h20q90 0 90 85t-80 85h-120v110h120z" />
    <glyph glyph-name="uni0438" unicode="&#x438;" 
d="M160 0h-120v45q0 62 62 156l235 354q23 35 23 80v35h120v-45q0 -62 -62 -156l-235 -354q-23 -35 -23 -80v-35zM40 130v540h120v-345l-75 -113q-29 -46 -45 -82zM480 0h-120v345l75 113q26 39 45 82v-540z" />
    <glyph glyph-name="uni0439" unicode="&#x439;" 
d="M330 855h90q0 -70 -37 -107.5t-104 -37.5h-38q-67 0 -104 37.5t-37 107.5h90q0 -31 13 -48t52 -17h10q39 0 52 17t13 48zM160 0h-120v45q0 62 62 156l235 354q23 35 23 80v35h120v-45q0 -62 -62 -156l-235 -354q-23 -35 -23 -80v-35zM40 130v540h120v-345l-75 -113
q-29 -46 -45 -82zM480 0h-120v345l75 113q26 39 45 82v-540z" />
    <glyph glyph-name="uni043A" unicode="&#x43a;" 
d="M440 450q-15 -79 -63 -115q48 -36 63 -115l16 -90q4 -20 24 -20h20v-110h-10q-69 0 -106.5 31t-49.5 109l-10 66q-12 74 -84 74q-80 0 -80 -85v-195h-120v195q0 88 52.5 141.5t147.5 53.5q72 0 84 74l10 66q12 78 49.5 109t106.5 31h10v-110h-20q-20 0 -24 -20zM160 399
q-85 -26 -120 -104v375h120v-271z" />
    <glyph glyph-name="uni043B" unicode="&#x43b;" horiz-adv-x="540" 
d="M290 670h210v-670h-120v560h-110q-25 0 -38 -11t-16 -44l-30 -365q-7 -79 -43.5 -109.5t-112.5 -30.5h-10v110h20q23 0 24 20l36 389q8 84 55 117.5t135 33.5z" />
    <glyph glyph-name="uni043C" unicode="&#x43c;" horiz-adv-x="640" 
d="M320 242q-68 0 -105 55l-113 172q-62 94 -62 156v45h120v-35q0 -45 23 -80l136 -201l138 201q23 35 23 80v35h120v-45q0 -63 -62 -156l-111 -167q-42 -60 -107 -60zM40 0v540q19 -43 45 -82l75 -113v-345h-120zM480 0v345l75 113q26 39 45 82v-540h-120z" />
    <glyph glyph-name="uni043D" unicode="&#x43d;" 
d="M280 390q95 0 147.5 -53.5t52.5 -141.5v-195h-120v195q0 85 -90 85h-30q-95 0 -147.5 53.5t-52.5 141.5v195h120v-195q0 -85 90 -85h30zM360 670h120v-375q-35 78 -120 104v271zM40 375q35 -78 120 -104v-271h-120v375z" />
    <glyph glyph-name="uni043E" unicode="&#x43e;" 
d="M280 670q95 0 147.5 -53.5t52.5 -141.5v-280q0 -88 -52.5 -141.5t-147.5 -53.5h-40q-95 0 -147.5 53.5t-52.5 141.5v280q0 88 52.5 141.5t147.5 53.5h40zM360 195v280q0 85 -90 85h-20q-90 0 -90 -85v-280q0 -85 90 -85h20q90 0 90 85z" />
    <glyph glyph-name="uni043F" unicode="&#x43f;" 
d="M480 670v-670h-120v560h-200v-560h-120v670h440z" />
    <glyph glyph-name="uni0440" unicode="&#x440;" horiz-adv-x="500" 
d="M280 670q95 0 147.5 -53.5t52.5 -141.5t-52.5 -141.5t-147.5 -53.5h-30q-90 0 -90 -85v-195h-120v195q0 88 52.5 141.5t147.5 53.5h30q90 0 90 85t-90 85h-20q-90 0 -90 -85v-76q-85 -26 -120 -104v180q0 88 52.5 141.5t147.5 53.5h40z" />
    <glyph glyph-name="uni0441" unicode="&#x441;" horiz-adv-x="500" 
d="M160 195q0 -85 90 -85h230v-110h-240q-95 0 -147.5 53.5t-52.5 141.5v280q0 88 52.5 141.5t147.5 53.5h40q95 0 147.5 -53.5t52.5 -141.5h-120q0 85 -90 85h-20q-90 0 -90 -85v-280z" />
    <glyph glyph-name="uni0442" unicode="&#x442;" horiz-adv-x="460" 
d="M10 560v110h255q-82 -37 -104 -110h-151zM170 0v480q0 94 52.5 142t142.5 48h85v-110h-85q-37 0 -56 -20t-19 -70v-470h-120z" />
    <glyph glyph-name="uni0443" unicode="&#x443;" horiz-adv-x="510" 
d="M177 245l-115 168q-22 32 -22 87v170h120v-185q0 -10 5 -17l82 -119zM360 670h120v-170q0 -33 -4.5 -50.5t-17.5 -36.5l-221 -323q-32 -47 -71.5 -68.5t-100.5 -21.5h-25v110h30q41 0 65 36l218 319q7 10 7 20v185z" />
    <glyph glyph-name="uni0444" unicode="&#x444;" horiz-adv-x="640" 
d="M260 0v670h120v-670h-120zM30 395q0 88 52.5 141.5t147.5 53.5h10v-110q-90 0 -90 -85v-120q0 -85 90 -85v-110h-10q-95 0 -147.5 53.5t-52.5 141.5v120zM410 590q95 0 147.5 -53.5t52.5 -141.5v-120q0 -88 -52.5 -141.5t-147.5 -53.5h-10v110q90 0 90 85v120
q0 85 -90 85v110h10z" />
    <glyph glyph-name="uni0445" unicode="&#x445;" 
d="M490 0q-16 0 -30 3t-24 5.5t-22 12t-18 14t-18 21t-16.5 23t-19.5 29.5t-21 32l-267 400q-12 20 -24 20h-10v110h10q16 0 30 -3t24 -5.5t22 -12t18 -14t18 -21t16.5 -23t19.5 -29.5t21 -32l267 -400q12 -20 24 -20h10v-110h-10zM341 353l-69 104l49 73q6 9 21 32
t19.5 29.5t16.5 23t18 21t18 14t22 12t24 5.5t30 3h10v-110h-10q-12 0 -24 -20zM30 0h-10v110h10q12 0 24 20l125 187l69 -104l-49 -73q-6 -9 -21 -32t-19.5 -29.5t-16.5 -23t-18 -21t-18 -14t-22 -12t-24 -5.5t-30 -3z" />
    <glyph glyph-name="uni0446" unicode="&#x446;" horiz-adv-x="590" 
d="M444 110q65 0 100.5 -36.5t35.5 -96.5v-77h-120v42q0 58 -54 58h-366v670h120v-560h284zM480 670v-540h-120v540h120z" />
    <glyph glyph-name="uni0447" unicode="&#x447;" horiz-adv-x="510" 
d="M270 390q95 0 147.5 -53.5t52.5 -141.5v-195h-120v195q0 85 -90 85h-30q-95 0 -147.5 53.5t-52.5 141.5v195h120v-195q0 -85 90 -85h30zM350 670h120v-375q-35 78 -120 104v271z" />
    <glyph glyph-name="uni0448" unicode="&#x448;" horiz-adv-x="760" 
d="M720 0h-680v670h120v-560h160v560h120v-560h280v-110zM600 130v540h120v-540h-120z" />
    <glyph glyph-name="uni0449" unicode="&#x449;" horiz-adv-x="830" 
d="M684 110q65 0 100.5 -36.5t35.5 -96.5v-77h-120v42q0 58 -54 58h-606v670h120v-560h160v560h120v-560h244zM720 670v-540h-120v540h120z" />
    <glyph glyph-name="uni044A" unicode="&#x44a;" horiz-adv-x="640" 
d="M410 390q95 0 147.5 -53.5t52.5 -141.5t-52.5 -141.5t-147.5 -53.5h-240v470q0 50 -19 70t-56 20h-85v110h85q90 0 142.5 -48t52.5 -142v-370h110q90 0 90 85t-80 85h-100v110h100z" />
    <glyph glyph-name="uni044B" unicode="&#x44b;" horiz-adv-x="690" 
d="M280 390q95 0 147.5 -53.5t52.5 -141.5t-52.5 -141.5t-147.5 -53.5h-240v670h120v-560h110q90 0 90 85t-80 85h-100v110h100zM650 0h-120v670h120v-670z" />
    <glyph glyph-name="uni044C" unicode="&#x44c;" horiz-adv-x="510" 
d="M280 390q95 0 147.5 -53.5t52.5 -141.5t-52.5 -141.5t-147.5 -53.5h-240v670h120v-560h110q90 0 90 85t-80 85h-100v110h100z" />
    <glyph glyph-name="uni044D" unicode="&#x44d;" horiz-adv-x="500" 
d="M260 670q95 0 147.5 -53.5t52.5 -141.5v-280q0 -88 -52.5 -141.5t-147.5 -53.5h-240v110h230q90 0 90 85v65h-200v110h200v105q0 85 -90 85h-20q-90 0 -90 -85h-120q0 88 52.5 141.5t147.5 53.5h40z" />
    <glyph glyph-name="uni044E" unicode="&#x44e;" horiz-adv-x="770" 
d="M530 670q95 0 147.5 -53.5t52.5 -141.5v-280q0 -88 -52.5 -141.5t-147.5 -53.5h-40q-95 0 -147.5 53.5t-52.5 141.5v85h-130v-280h-120v670h120v-280h130v85q0 88 52.5 141.5t147.5 53.5h40zM610 195v280q0 85 -90 85h-20q-90 0 -90 -85v-280q0 -85 90 -85h20q90 0 90 85
z" />
    <glyph glyph-name="uni044F" unicode="&#x44f;" 
d="M480 295q-35 78 -120 104v76q0 85 -90 85h-20q-90 0 -90 -85t90 -85h30q95 0 147.5 -53.5t52.5 -141.5v-195h-120v195q0 85 -80 85q-73 0 -84 -74l-10 -66q-11 -76 -48.5 -108t-107.5 -32h-10v110h20q20 0 24 20l16 90q10 61 42 97q-82 46 -82 158q0 88 52.5 141.5
t147.5 53.5h40q95 0 147.5 -53.5t52.5 -141.5v-180z" />
    <glyph glyph-name="uni0451" unicode="&#x451;" horiz-adv-x="500" 
d="M220 830v-120h-120v20q0 100 100 100h20zM300 710v120h120v-20q0 -100 -100 -100h-20zM250 560q-90 0 -90 -85v-20q0 -85 90 -85h110v-110h-120q-95 0 -147.5 53.5t-52.5 141.5v20q0 88 52.5 141.5t147.5 53.5h240v-110h-230zM160 195q0 -85 90 -85h230v-110h-240
q-95 0 -147.5 53.5t-52.5 141.5v160q35 -78 120 -104v-56z" />
    <glyph glyph-name="uni0452" unicode="&#x452;" horiz-adv-x="640" 
d="M265 670q-82 -37 -104 -110h-151v110h255zM410 390q95 0 147.5 -53.5t52.5 -141.5t-52.5 -141.5t-147.5 -53.5h-240v480q0 94 52.5 142t142.5 48h125v-110h-125q-37 0 -56 -20t-19 -70v-360h120q80 0 80 85t-80 85h-100v110h100z" />
    <glyph glyph-name="uni0453" unicode="&#x453;" horiz-adv-x="470" 
d="M310 855h90q0 -70 -37 -107.5t-104 -37.5h-39v80h25q39 0 52 17t13 48zM240 670h220v-110h-210q-90 0 -90 -85v-475h-120v475q0 88 52.5 141.5t147.5 53.5z" />
    <glyph glyph-name="uni0454" unicode="&#x454;" horiz-adv-x="500" 
d="M160 195q0 -85 90 -85h230v-110h-240q-95 0 -147.5 53.5t-52.5 141.5v280q0 88 52.5 141.5t147.5 53.5h40q95 0 147.5 -53.5t52.5 -141.5h-120q0 85 -90 85h-20q-90 0 -90 -85v-105h200v-110h-200v-65z" />
    <glyph glyph-name="uni0455" unicode="&#x455;" horiz-adv-x="510" 
d="M280 390q95 0 147.5 -53.5t52.5 -141.5t-52.5 -141.5t-147.5 -53.5h-40q-95 0 -147.5 53.5t-52.5 141.5h120q0 -85 90 -85h20q90 0 90 85t-90 85h-30q-95 0 -147.5 53.5t-52.5 141.5t52.5 141.5t147.5 53.5h40q95 0 147.5 -53.5t52.5 -141.5h-120q0 85 -90 85h-20
q-90 0 -90 -85t90 -85h30z" />
    <glyph glyph-name="uni0456" unicode="&#x456;" horiz-adv-x="380" 
d="M325 0q-90 0 -142.5 48t-52.5 142v280q0 50 -19 70t-56 20h-25v110h25q90 0 142.5 -48t52.5 -142v-280q0 -50 19 -70t56 -20h25v-110h-25zM259 560q-22 73 -104 110h195v-110h-91zM30 0v110h91q22 -73 104 -110h-195z" />
    <glyph glyph-name="uni0457" unicode="&#x457;" horiz-adv-x="380" 
d="M150 830v-120h-120v20q0 100 100 100h20zM230 710v120h120v-20q0 -100 -100 -100h-20zM325 0q-90 0 -142.5 48t-52.5 142v280q0 50 -19 70t-56 20h-25v110h25q90 0 142.5 -48t52.5 -142v-280q0 -50 19 -70t56 -20h25v-110h-25zM259 560q-22 73 -104 110h195v-110h-91z
M30 0v110h91q22 -73 104 -110h-195z" />
    <glyph glyph-name="uni0458" unicode="&#x458;" 
d="M360 670h120v-475q0 -88 -52.5 -141.5t-147.5 -53.5h-60q-95 0 -147.5 53.5t-52.5 141.5h120q0 -85 90 -85h40q90 0 90 85v475z" />
    <glyph glyph-name="uni0459" unicode="&#x459;" horiz-adv-x="850" 
d="M620 390q95 0 147.5 -53.5t52.5 -141.5t-52.5 -141.5t-147.5 -53.5h-240v560h-110q-25 0 -38 -11t-16 -44l-30 -365q-6 -77 -46 -108.5t-110 -31.5h-10v110h20q23 0 24 20l36 389q8 84 55 117.5t135 33.5h210v-560h110q90 0 90 85t-80 85h-100v110h100z" />
    <glyph glyph-name="uni045A" unicode="&#x45a;" horiz-adv-x="830" 
d="M600 390q95 0 147.5 -53.5t52.5 -141.5t-52.5 -141.5t-147.5 -53.5h-240v195q0 85 -90 85h-30q-95 0 -147.5 53.5t-52.5 141.5v195h120v-195q0 -85 90 -85h30q95 0 147.5 -53.5t52.5 -141.5v-85h110q90 0 90 85t-80 85h-100v110h100zM480 295q-35 78 -120 104v271h120
v-375zM40 375q35 -78 120 -104v-271h-120v375z" />
    <glyph glyph-name="uni045B" unicode="&#x45b;" horiz-adv-x="650" 
d="M265 670q-82 -37 -104 -110h-151v110h255zM410 390q95 0 147.5 -53.5t52.5 -141.5v-195h-120v195q0 85 -80 85h-120v-280h-120v480q0 94 52.5 142t142.5 48h125v-110h-125q-37 0 -56 -20t-19 -70v-80h120z" />
    <glyph glyph-name="uni045C" unicode="&#x45c;" 
d="M310 855h90q0 -70 -37 -107.5t-104 -37.5h-39v80h25q39 0 52 17t13 48zM440 450q-15 -79 -63 -115q48 -36 63 -115l16 -90q4 -20 24 -20h20v-110h-10q-69 0 -106.5 31t-49.5 109l-10 66q-12 74 -84 74q-80 0 -80 -85v-195h-120v195q0 88 52.5 141.5t147.5 53.5
q72 0 84 74l10 66q12 78 49.5 109t106.5 31h10v-110h-20q-20 0 -24 -20zM160 399q-85 -26 -120 -104v375h120v-271z" />
    <glyph glyph-name="uni045E" unicode="&#x45e;" horiz-adv-x="510" 
d="M330 855h90q0 -70 -37 -107.5t-104 -37.5h-38q-67 0 -104 37.5t-37 107.5h90q0 -31 13 -48t52 -17h10q39 0 52 17t13 48zM177 245l-115 168q-22 32 -22 87v170h120v-185q0 -10 5 -17l82 -119zM360 670h120v-170q0 -33 -4.5 -50.5t-17.5 -36.5l-221 -323
q-32 -47 -71.5 -68.5t-100.5 -21.5h-25v110h30q41 0 65 36l218 319q7 10 7 20v185z" />
    <glyph glyph-name="uni045F" unicode="&#x45f;" 
d="M184 110q65 0 100.5 -36.5t35.5 -96.5v-77h-120v42q0 58 -54 58h-106v670h120v-560h24zM268 110q62 -34 71 -110h141v670h-120v-560h-92z" />
    <glyph glyph-name="uni0462" unicode="&#x462;" horiz-adv-x="640" 
d="M410 390q95 0 147.5 -53.5t52.5 -141.5t-52.5 -141.5t-147.5 -53.5h-240v450h-160v110h160v110h120v-110h160v-110h-160v-340h110q90 0 90 85t-80 85h-100v110h100z" />
    <glyph glyph-name="uni0463" unicode="&#x463;" horiz-adv-x="640" 
d="M410 390q95 0 147.5 -53.5t52.5 -141.5t-52.5 -141.5t-147.5 -53.5h-240v450h-160v110h160v110h120v-110h160v-110h-160v-340h110q90 0 90 85t-80 85h-100v110h100z" />
    <glyph glyph-name="uni0472" unicode="&#x472;" 
d="M360 390v85q0 85 -90 85h-20q-90 0 -90 -85v-45q-67 10 -120 10v35q0 88 52.5 141.5t147.5 53.5h40q95 0 147.5 -53.5t52.5 -141.5v-95q-63 0 -120 10zM40 310v110q83 0 219.5 -30t220.5 -30v-110q-84 0 -220.5 30t-219.5 30zM480 230v-35q0 -88 -52.5 -141.5
t-147.5 -53.5h-40q-95 0 -147.5 53.5t-52.5 141.5v95q53 0 120 -10v-85q0 -85 90 -85h20q90 0 90 85v45q67 -10 120 -10z" />
    <glyph glyph-name="uni0473" unicode="&#x473;" 
d="M360 390v85q0 85 -90 85h-20q-90 0 -90 -85v-45q-67 10 -120 10v35q0 88 52.5 141.5t147.5 53.5h40q95 0 147.5 -53.5t52.5 -141.5v-95q-63 0 -120 10zM40 310v110q83 0 219.5 -30t220.5 -30v-110q-84 0 -220.5 30t-219.5 30zM480 230v-35q0 -88 -52.5 -141.5
t-147.5 -53.5h-40q-95 0 -147.5 53.5t-52.5 141.5v95q53 0 120 -10v-85q0 -85 90 -85h20q90 0 90 85v45q67 -10 120 -10z" />
    <glyph glyph-name="uni0474" unicode="&#x474;" horiz-adv-x="590" 
d="M160 265q0 -10 5 -17l161 -229q-30 -19 -66 -19q-68 0 -105 55l-93 138q-13 19 -17.5 36.5t-4.5 50.5v390h120v-405zM555 670h25v-110h-25q-37 0 -56 -20t-19 -70v-190q0 -33 -4.5 -50.5t-17.5 -36.5l-91 -133q-9 -13 -21 -25l-70 100l79 113q5 7 5 17v215q0 94 52.5 142
t142.5 48z" />
    <glyph glyph-name="uni0475" unicode="&#x475;" horiz-adv-x="590" 
d="M160 265q0 -10 5 -17l161 -229q-30 -19 -66 -19q-68 0 -105 55l-93 138q-13 19 -17.5 36.5t-4.5 50.5v390h120v-405zM555 670h25v-110h-25q-37 0 -56 -20t-19 -70v-190q0 -33 -4.5 -50.5t-17.5 -36.5l-91 -133q-9 -13 -21 -25l-70 100l79 113q5 7 5 17v215q0 94 52.5 142
t142.5 48z" />
    <glyph glyph-name="uni0490" unicode="&#x490;" horiz-adv-x="500" 
d="M370 770h120v-77q0 -60 -35.5 -96.5t-100.5 -36.5h-104q-90 0 -90 -85v-475h-120v475q0 88 52.5 141.5t147.5 53.5h76q54 0 54 58v42z" />
    <glyph glyph-name="uni0491" unicode="&#x491;" horiz-adv-x="500" 
d="M370 770h120v-77q0 -60 -35.5 -96.5t-100.5 -36.5h-104q-90 0 -90 -85v-475h-120v475q0 88 52.5 141.5t147.5 53.5h76q54 0 54 58v42z" />
    <glyph glyph-name="uni0492" unicode="&#x492;" 
d="M300 560q-90 0 -90 -85v-85h180v-110h-180v-280h-120v280h-70v110h70v85q0 88 52.5 141.5t147.5 53.5h220v-110h-210z" />
    <glyph glyph-name="uni0493" unicode="&#x493;" 
d="M300 560q-90 0 -90 -85v-85h180v-110h-180v-280h-120v280h-70v110h70v85q0 88 52.5 141.5t147.5 53.5h220v-110h-210z" />
    <glyph glyph-name="uni0496" unicode="&#x496;" horiz-adv-x="910" 
d="M196 464q11 -74 84 -74h60v-110h-60q-73 0 -84 -74l-10 -66q-12 -78 -49.5 -109t-106.5 -31h-10v110h20q20 0 24 20l16 90q13 79 63 115q-50 36 -63 115l-16 90q-4 20 -24 20h-20v110h10q69 0 106.5 -31t49.5 -109zM360 0v670h120v-670h-120zM780 109q57 -4 88.5 -40
t31.5 -92v-77h-120v42q0 58 -54 58h-46l-36 206q-12 74 -84 74h-60v110h60q72 0 84 74l10 66q12 78 49.5 109t106.5 31h10v-110h-20q-20 0 -24 -20l-16 -90q-15 -79 -63 -115q48 -35 63 -115z" />
    <glyph glyph-name="uni0497" unicode="&#x497;" horiz-adv-x="910" 
d="M196 464q11 -74 84 -74h60v-110h-60q-73 0 -84 -74l-10 -66q-12 -78 -49.5 -109t-106.5 -31h-10v110h20q20 0 24 20l16 90q13 79 63 115q-50 36 -63 115l-16 90q-4 20 -24 20h-20v110h10q69 0 106.5 -31t49.5 -109zM360 0v670h120v-670h-120zM780 109q57 -4 88.5 -40
t31.5 -92v-77h-120v42q0 58 -54 58h-46l-36 206q-12 74 -84 74h-60v110h60q72 0 84 74l10 66q12 78 49.5 109t106.5 31h10v-110h-20q-20 0 -24 -20l-16 -90q-15 -79 -63 -115q48 -35 63 -115z" />
    <glyph glyph-name="uni049A" unicode="&#x49a;" horiz-adv-x="590" 
d="M460 109q57 -4 88.5 -40t31.5 -92v-77h-120v42q0 58 -54 58h-46l-36 206q-12 74 -84 74q-80 0 -80 -85v-195h-120v195q0 88 52.5 141.5t147.5 53.5q72 0 84 74l10 66q12 78 49.5 109t106.5 31h10v-110h-20q-20 0 -24 -20l-16 -90q-15 -79 -63 -115q48 -35 63 -115z
M160 399q-85 -26 -120 -104v375h120v-271z" />
    <glyph glyph-name="uni049B" unicode="&#x49b;" horiz-adv-x="590" 
d="M460 109q57 -4 88.5 -40t31.5 -92v-77h-120v42q0 58 -54 58h-46l-36 206q-12 74 -84 74q-80 0 -80 -85v-195h-120v195q0 88 52.5 141.5t147.5 53.5q72 0 84 74l10 66q12 78 49.5 109t106.5 31h10v-110h-20q-20 0 -24 -20l-16 -90q-15 -79 -63 -115q48 -35 63 -115z
M160 399q-85 -26 -120 -104v375h120v-271z" />
    <glyph glyph-name="uni04A2" unicode="&#x4a2;" horiz-adv-x="590" 
d="M480 107q48 -10 74 -44.5t26 -85.5v-77h-120v42q0 58 -54 58h-46v195q0 85 -90 85h-30q-95 0 -147.5 53.5t-52.5 141.5v195h120v-195q0 -85 90 -85h30q95 0 147.5 -53.5t52.5 -141.5v-88zM480 295q-35 78 -120 104v271h120v-375zM40 375q35 -78 120 -104v-271h-120v375z
" />
    <glyph glyph-name="uni04A3" unicode="&#x4a3;" horiz-adv-x="590" 
d="M480 107q48 -10 74 -44.5t26 -85.5v-77h-120v42q0 58 -54 58h-46v195q0 85 -90 85h-30q-95 0 -147.5 53.5t-52.5 141.5v195h120v-195q0 -85 90 -85h30q95 0 147.5 -53.5t52.5 -141.5v-88zM480 295q-35 78 -120 104v271h120v-375zM40 375q35 -78 120 -104v-271h-120v375z
" />
    <glyph glyph-name="uni04AE" unicode="&#x4ae;" horiz-adv-x="500" 
d="M174 235l-122 178q-13 19 -17.5 36.5t-4.5 50.5v170h120v-185q0 -10 5 -17l82 -119q-49 -65 -63 -114zM190 0v205q0 43 47 110l108 153q5 7 5 17v185h120v-170q0 -33 -4.5 -50.5t-17.5 -36.5l-91 -133q-47 -70 -47 -110v-170h-120z" />
    <glyph glyph-name="uni04AF" unicode="&#x4af;" horiz-adv-x="500" 
d="M174 235l-122 178q-13 19 -17.5 36.5t-4.5 50.5v170h120v-185q0 -10 5 -17l82 -119q-49 -65 -63 -114zM190 0v205q0 43 47 110l108 153q5 7 5 17v185h120v-170q0 -33 -4.5 -50.5t-17.5 -36.5l-91 -133q-47 -70 -47 -110v-170h-120z" />
    <glyph glyph-name="uni04B0" unicode="&#x4b0;" 
d="M458 413l-91 -133q-25 -36 -35 -60h148v-110h-160v-110h-120v110h-160v110h161q4 36 46 95l108 153q5 7 5 17v185h120v-170q0 -33 -4.5 -50.5t-17.5 -36.5zM184 235l-122 178q-13 19 -17.5 36.5t-4.5 50.5v170h120v-185q0 -10 5 -17l82 -119q-49 -65 -63 -114z" />
    <glyph glyph-name="uni04B1" unicode="&#x4b1;" 
d="M458 413l-91 -133q-25 -36 -35 -60h148v-110h-160v-110h-120v110h-160v110h161q4 36 46 95l108 153q5 7 5 17v185h120v-170q0 -33 -4.5 -50.5t-17.5 -36.5zM184 235l-122 178q-13 19 -17.5 36.5t-4.5 50.5v170h120v-185q0 -10 5 -17l82 -119q-49 -65 -63 -114z" />
    <glyph glyph-name="uni04B2" unicode="&#x4b2;" horiz-adv-x="600" 
d="M481 108q52 -7 80.5 -42.5t28.5 -88.5v-77h-120v42q0 58 -54 58l-362 540q-12 20 -24 20h-10v110h10q18 0 32.5 -2t28.5 -10.5t22 -13t21.5 -22t18.5 -24t22.5 -33t23.5 -35.5zM466 540l-125 -187l-69 104l49 73q6 9 21 32t19.5 29.5t16.5 23t18 21t18 14t22 12t24 5.5
t30 3h10v-110h-10q-12 0 -24 -20zM54 130l125 187l69 -104l-49 -73q-6 -9 -21 -32t-19.5 -29.5t-16.5 -23t-18 -21t-18 -14t-22 -12t-24 -5.5t-30 -3h-10v110h10q12 0 24 20z" />
    <glyph glyph-name="uni04B3" unicode="&#x4b3;" horiz-adv-x="600" 
d="M481 108q52 -7 80.5 -42.5t28.5 -88.5v-77h-120v42q0 58 -54 58l-362 540q-12 20 -24 20h-10v110h10q18 0 32.5 -2t28.5 -10.5t22 -13t21.5 -22t18.5 -24t22.5 -33t23.5 -35.5zM466 540l-125 -187l-69 104l49 73q6 9 21 32t19.5 29.5t16.5 23t18 21t18 14t22 12t24 5.5
t30 3h10v-110h-10q-12 0 -24 -20zM54 130l125 187l69 -104l-49 -73q-6 -9 -21 -32t-19.5 -29.5t-16.5 -23t-18 -21t-18 -14t-22 -12t-24 -5.5t-30 -3h-10v110h10q12 0 24 20z" />
    <glyph glyph-name="uni04B6" unicode="&#x4b6;" horiz-adv-x="580" 
d="M470 107q48 -10 74 -44.5t26 -85.5v-77h-120v42q0 58 -54 58h-46v195q0 85 -90 85h-30q-95 0 -147.5 53.5t-52.5 141.5v195h120v-195q0 -85 90 -85h30q95 0 147.5 -53.5t52.5 -141.5v-88zM470 295q-35 78 -120 104v271h120v-375z" />
    <glyph glyph-name="uni04B7" unicode="&#x4b7;" horiz-adv-x="580" 
d="M470 107q48 -10 74 -44.5t26 -85.5v-77h-120v42q0 58 -54 58h-46v195q0 85 -90 85h-30q-95 0 -147.5 53.5t-52.5 141.5v195h120v-195q0 -85 90 -85h30q95 0 147.5 -53.5t52.5 -141.5v-88zM470 295q-35 78 -120 104v271h120v-375z" />
    <glyph glyph-name="uni04BA" unicode="&#x4ba;" horiz-adv-x="510" 
d="M280 390q95 0 147.5 -53.5t52.5 -141.5v-195h-120v195q0 85 -90 85h-30q-95 0 -147.5 53.5t-52.5 141.5v195h120v-195q0 -85 90 -85h30zM40 375q35 -78 120 -104v-271h-120v375z" />
    <glyph glyph-name="uni04BB" unicode="&#x4bb;" horiz-adv-x="510" 
d="M280 390q95 0 147.5 -53.5t52.5 -141.5v-195h-120v195q0 85 -90 85h-30q-95 0 -147.5 53.5t-52.5 141.5v195h120v-195q0 -85 90 -85h30zM40 375q35 -78 120 -104v-271h-120v375z" />
    <glyph glyph-name="uni04C0" unicode="&#x4c0;" horiz-adv-x="380" 
d="M325 0q-90 0 -142.5 48t-52.5 142v280q0 50 -19 70t-56 20h-25v110h25q90 0 142.5 -48t52.5 -142v-280q0 -50 19 -70t56 -20h25v-110h-25zM259 560q-22 73 -104 110h195v-110h-91zM30 0v110h91q22 -73 104 -110h-195z" />
    <glyph glyph-name="uni04CF" unicode="&#x4cf;" horiz-adv-x="380" 
d="M325 0q-90 0 -142.5 48t-52.5 142v280q0 50 -19 70t-56 20h-25v110h25q90 0 142.5 -48t52.5 -142v-280q0 -50 19 -70t56 -20h25v-110h-25zM259 560q-22 73 -104 110h195v-110h-91zM30 0v110h91q22 -73 104 -110h-195z" />
    <glyph glyph-name="uni04D8" unicode="&#x4d8;" 
d="M280 670q95 0 147.5 -53.5t52.5 -141.5v-280q0 -88 -52.5 -141.5t-147.5 -53.5h-40q-95 0 -147.5 53.5t-52.5 141.5t52.5 141.5t147.5 53.5h100v-110h-90q-90 0 -90 -85t90 -85h20q90 0 90 85v280q0 85 -90 85h-20q-90 0 -90 -85h-120q0 88 52.5 141.5t147.5 53.5h40z
" />
    <glyph glyph-name="uni04D9" unicode="&#x4d9;" 
d="M280 670q95 0 147.5 -53.5t52.5 -141.5v-280q0 -88 -52.5 -141.5t-147.5 -53.5h-40q-95 0 -147.5 53.5t-52.5 141.5t52.5 141.5t147.5 53.5h100v-110h-90q-90 0 -90 -85t90 -85h20q90 0 90 85v280q0 85 -90 85h-20q-90 0 -90 -85h-120q0 88 52.5 141.5t147.5 53.5h40z
" />
    <glyph glyph-name="uni04E2" unicode="&#x4e2;" 
d="M110 710v90h300v-90h-300zM160 0h-120v45q0 62 62 156l235 354q23 35 23 80v35h120v-45q0 -62 -62 -156l-235 -354q-23 -35 -23 -80v-35zM40 130v540h120v-345l-75 -113q-29 -46 -45 -82zM480 0h-120v345l75 113q26 39 45 82v-540z" />
    <glyph glyph-name="uni04E3" unicode="&#x4e3;" 
d="M110 710v90h300v-90h-300zM160 0h-120v45q0 62 62 156l235 354q23 35 23 80v35h120v-45q0 -62 -62 -156l-235 -354q-23 -35 -23 -80v-35zM40 130v540h120v-345l-75 -113q-29 -46 -45 -82zM480 0h-120v345l75 113q26 39 45 82v-540z" />
    <glyph glyph-name="uni04E8" unicode="&#x4e8;" 
d="M360 410v65q0 85 -90 85h-20q-90 0 -90 -85v-65h-120v65q0 88 52.5 141.5t147.5 53.5h40q95 0 147.5 -53.5t52.5 -141.5v-65h-120zM40 280v110h440v-110h-440zM480 260v-65q0 -88 -52.5 -141.5t-147.5 -53.5h-40q-95 0 -147.5 53.5t-52.5 141.5v65h120v-65q0 -85 90 -85
h20q90 0 90 85v65h120z" />
    <glyph glyph-name="uni04E9" unicode="&#x4e9;" 
d="M360 410v65q0 85 -90 85h-20q-90 0 -90 -85v-65h-120v65q0 88 52.5 141.5t147.5 53.5h40q95 0 147.5 -53.5t52.5 -141.5v-65h-120zM40 280v110h440v-110h-440zM480 260v-65q0 -88 -52.5 -141.5t-147.5 -53.5h-40q-95 0 -147.5 53.5t-52.5 141.5v65h120v-65q0 -85 90 -85
h20q90 0 90 85v65h120z" />
    <glyph glyph-name="uni04EE" unicode="&#x4ee;" horiz-adv-x="510" 
d="M110 710v90h300v-90h-300zM177 245l-115 168q-22 32 -22 87v170h120v-185q0 -10 5 -17l82 -119zM360 670h120v-170q0 -33 -4.5 -50.5t-17.5 -36.5l-221 -323q-32 -47 -71.5 -68.5t-100.5 -21.5h-25v110h30q41 0 65 36l218 319q7 10 7 20v185z" />
    <glyph glyph-name="uni04EF" unicode="&#x4ef;" horiz-adv-x="510" 
d="M110 710v90h300v-90h-300zM177 245l-115 168q-22 32 -22 87v170h120v-185q0 -10 5 -17l82 -119zM360 670h120v-170q0 -33 -4.5 -50.5t-17.5 -36.5l-221 -323q-32 -47 -71.5 -68.5t-100.5 -21.5h-25v110h30q41 0 65 36l218 319q7 10 7 20v185z" />
    <glyph glyph-name="Wgrave" unicode="&#x1e80;" horiz-adv-x="840" 
d="M390 855q0 -31 13 -48t52 -17h25v-80h-39q-67 0 -104 37.5t-37 107.5h90zM260 0q-68 0 -105 55l-93 138q-13 19 -17.5 36.5t-4.5 50.5v390h120v-405q0 -10 5 -17l161 -229q-30 -19 -66 -19zM580 0q-68 0 -105 55l-55 82l-53 -77q-9 -13 -21 -25l-70 100l79 113q5 7 5 17
v405h120v-405q0 -10 5 -17l161 -229q-30 -19 -66 -19zM666 35l-70 100l79 113q5 7 5 17v405h120v-390q0 -33 -4.5 -50.5t-17.5 -36.5l-91 -133q-9 -13 -21 -25z" />
    <glyph glyph-name="wgrave" unicode="&#x1e81;" horiz-adv-x="840" 
d="M390 855q0 -31 13 -48t52 -17h25v-80h-39q-67 0 -104 37.5t-37 107.5h90zM260 0q-68 0 -105 55l-93 138q-13 19 -17.5 36.5t-4.5 50.5v390h120v-405q0 -10 5 -17l161 -229q-30 -19 -66 -19zM580 0q-68 0 -105 55l-55 82l-53 -77q-9 -13 -21 -25l-70 100l79 113q5 7 5 17
v405h120v-405q0 -10 5 -17l161 -229q-30 -19 -66 -19zM666 35l-70 100l79 113q5 7 5 17v405h120v-390q0 -33 -4.5 -50.5t-17.5 -36.5l-91 -133q-9 -13 -21 -25z" />
    <glyph glyph-name="Wacute" unicode="&#x1e82;" horiz-adv-x="840" 
d="M450 855h90q0 -70 -37 -107.5t-104 -37.5h-39v80h25q39 0 52 17t13 48zM260 0q-68 0 -105 55l-93 138q-13 19 -17.5 36.5t-4.5 50.5v390h120v-405q0 -10 5 -17l161 -229q-30 -19 -66 -19zM580 0q-68 0 -105 55l-55 82l-53 -77q-9 -13 -21 -25l-70 100l79 113q5 7 5 17
v405h120v-405q0 -10 5 -17l161 -229q-30 -19 -66 -19zM666 35l-70 100l79 113q5 7 5 17v405h120v-390q0 -33 -4.5 -50.5t-17.5 -36.5l-91 -133q-9 -13 -21 -25z" />
    <glyph glyph-name="wacute" unicode="&#x1e83;" horiz-adv-x="840" 
d="M450 855h90q0 -70 -37 -107.5t-104 -37.5h-39v80h25q39 0 52 17t13 48zM260 0q-68 0 -105 55l-93 138q-13 19 -17.5 36.5t-4.5 50.5v390h120v-405q0 -10 5 -17l161 -229q-30 -19 -66 -19zM580 0q-68 0 -105 55l-55 82l-53 -77q-9 -13 -21 -25l-70 100l79 113q5 7 5 17
v405h120v-405q0 -10 5 -17l161 -229q-30 -19 -66 -19zM666 35l-70 100l79 113q5 7 5 17v405h120v-390q0 -33 -4.5 -50.5t-17.5 -36.5l-91 -133q-9 -13 -21 -25z" />
    <glyph glyph-name="Wdieresis" unicode="&#x1e84;" horiz-adv-x="840" 
d="M380 830v-120h-120v20q0 100 100 100h20zM460 710v120h120v-20q0 -100 -100 -100h-20zM260 0q-68 0 -105 55l-93 138q-13 19 -17.5 36.5t-4.5 50.5v390h120v-405q0 -10 5 -17l161 -229q-30 -19 -66 -19zM580 0q-68 0 -105 55l-55 82l-53 -77q-9 -13 -21 -25l-70 100
l79 113q5 7 5 17v405h120v-405q0 -10 5 -17l161 -229q-30 -19 -66 -19zM666 35l-70 100l79 113q5 7 5 17v405h120v-390q0 -33 -4.5 -50.5t-17.5 -36.5l-91 -133q-9 -13 -21 -25z" />
    <glyph glyph-name="wdieresis" unicode="&#x1e85;" horiz-adv-x="840" 
d="M380 830v-120h-120v20q0 100 100 100h20zM460 710v120h120v-20q0 -100 -100 -100h-20zM260 0q-68 0 -105 55l-93 138q-13 19 -17.5 36.5t-4.5 50.5v390h120v-405q0 -10 5 -17l161 -229q-30 -19 -66 -19zM580 0q-68 0 -105 55l-55 82l-53 -77q-9 -13 -21 -25l-70 100
l79 113q5 7 5 17v405h120v-405q0 -10 5 -17l161 -229q-30 -19 -66 -19zM666 35l-70 100l79 113q5 7 5 17v405h120v-390q0 -33 -4.5 -50.5t-17.5 -36.5l-91 -133q-9 -13 -21 -25z" />
    <glyph glyph-name="uni1E9E" unicode="&#x1e9e;" 
d="M270 560h-20q-90 0 -90 -85v-475h-120v475q0 88 52.5 141.5t147.5 53.5h40q95 0 147.5 -53.5t52.5 -141.5q0 -75 -38 -125q-42 44 -112 56q30 22 30 69q0 85 -90 85zM280 390q95 0 147.5 -53.5t52.5 -141.5t-52.5 -141.5t-147.5 -53.5h-60v110h50q90 0 90 85t-80 85h-60
v110h60z" />
    <glyph glyph-name="Ygrave" unicode="&#x1ef2;" horiz-adv-x="500" 
d="M220 855q0 -31 13 -48t52 -17h25v-80h-39q-67 0 -104 37.5t-37 107.5h90zM174 235l-122 178q-13 19 -17.5 36.5t-4.5 50.5v170h120v-185q0 -10 5 -17l82 -119q-49 -65 -63 -114zM190 0v205q0 43 47 110l108 153q5 7 5 17v185h120v-170q0 -33 -4.5 -50.5t-17.5 -36.5
l-91 -133q-47 -70 -47 -110v-170h-120z" />
    <glyph glyph-name="ygrave" unicode="&#x1ef3;" horiz-adv-x="500" 
d="M220 855q0 -31 13 -48t52 -17h25v-80h-39q-67 0 -104 37.5t-37 107.5h90zM174 235l-122 178q-13 19 -17.5 36.5t-4.5 50.5v170h120v-185q0 -10 5 -17l82 -119q-49 -65 -63 -114zM190 0v205q0 43 47 110l108 153q5 7 5 17v185h120v-170q0 -33 -4.5 -50.5t-17.5 -36.5
l-91 -133q-47 -70 -47 -110v-170h-120z" />
    <glyph glyph-name="uni200B" unicode="&#x200b;" horiz-adv-x="0" 
 />
    <glyph glyph-name="endash" unicode="&#x2013;" horiz-adv-x="530" 
d="M40 390h450v-110h-450v110z" />
    <glyph glyph-name="emdash" unicode="&#x2014;" horiz-adv-x="680" 
d="M40 280v110h600v-110h-600z" />
    <glyph glyph-name="quoteleft" unicode="&#x2018;" horiz-adv-x="200" 
d="M160 670l-20 -220h-100l13 130q10 90 97 90h10z" />
    <glyph glyph-name="quoteright" unicode="&#x2019;" horiz-adv-x="200" 
d="M40 450l20 220h100l-13 -130q-10 -90 -97 -90h-10z" />
    <glyph glyph-name="quotesinglbase" unicode="&#x201a;" horiz-adv-x="200" 
d="M40 -100l20 220h100l-13 -130q-10 -90 -97 -90h-10z" />
    <glyph glyph-name="quotedblleft" unicode="&#x201c;" horiz-adv-x="340" 
d="M160 670l-20 -220h-100l13 130q10 90 97 90h10zM300 670l-20 -220h-100l13 130q10 90 97 90h10z" />
    <glyph glyph-name="quotedblright" unicode="&#x201d;" horiz-adv-x="340" 
d="M40 450l20 220h100l-13 -130q-10 -90 -97 -90h-10zM180 450l20 220h100l-13 -130q-10 -90 -97 -90h-10z" />
    <glyph glyph-name="quotedblbase" unicode="&#x201e;" horiz-adv-x="340" 
d="M40 -100l20 220h100l-13 -130q-10 -90 -97 -90h-10zM180 -100l20 220h100l-13 -130q-10 -90 -97 -90h-10z" />
    <glyph glyph-name="dagger" unicode="&#x2020;" horiz-adv-x="500" 
d="M300 470h160v-110h-420v110h160v300h100v-300zM200 -100v410h100v-410h-100z" />
    <glyph glyph-name="daggerdbl" unicode="&#x2021;" horiz-adv-x="500" 
d="M300 470h160v-110h-420v110h160v300h100v-300zM40 200v110h420v-110h-160v-300h-100v300h-160z" />
    <glyph glyph-name="bullet" unicode="&#x2022;" horiz-adv-x="260" 
d="M40 245v180h180v-80q0 -100 -100 -100h-80z" />
    <glyph glyph-name="ellipsis" unicode="&#x2026;" horiz-adv-x="560" 
d="M40 0v120h120v-20q0 -100 -100 -100h-20zM220 0v120h120v-20q0 -100 -100 -100h-20zM400 0v120h120v-20q0 -100 -100 -100h-20z" />
    <glyph glyph-name="perthousand" unicode="&#x2030;" horiz-adv-x="1280" 
d="M232 670q76 0 118 -42.5t42 -113.5v-78q0 -71 -42 -113.5t-118 -42.5h-32q-76 0 -118 42.5t-42 113.5v78q0 71 42 113.5t118 42.5h32zM198 0l410 670h100l-410 -670h-100zM296 436v78q0 68 -72 68h-16q-72 0 -72 -68v-78q0 -68 72 -68h16q72 0 72 68zM702 390
q76 0 118 -42.5t42 -113.5v-78q0 -71 -42 -113.5t-118 -42.5h-32q-76 0 -118 42.5t-42 113.5v78q0 71 42 113.5t118 42.5h32zM1080 390q76 0 118 -42.5t42 -113.5v-78q0 -71 -42 -113.5t-118 -42.5h-32q-76 0 -118 42.5t-42 113.5v78q0 71 42 113.5t118 42.5h32zM766 156v78
q0 68 -72 68h-16q-72 0 -72 -68v-78q0 -68 72 -68h16q72 0 72 68zM1144 156v78q0 68 -72 68h-16q-72 0 -72 -68v-78q0 -68 72 -68h16q72 0 72 68z" />
    <glyph glyph-name="guilsinglleft" unicode="&#x2039;" horiz-adv-x="370" 
d="M40 335q0 68 55 105l138 93q19 13 36.5 17.5t50.5 4.5h10v-120h-25q-10 0 -17 -5l-135 -95l135 -95q7 -5 17 -5h25v-120h-10q-33 0 -50.5 4.5t-36.5 17.5l-138 93q-55 37 -55 105z" />
    <glyph glyph-name="guilsinglright" unicode="&#x203a;" horiz-adv-x="370" 
d="M330 335q0 -68 -55 -105l-138 -93q-19 -13 -36.5 -17.5t-50.5 -4.5h-10v120h25q10 0 17 5l135 95l-135 95q-7 5 -17 5h-25v120h10q33 0 50.5 -4.5t36.5 -17.5l138 -93q55 -37 55 -105z" />
    <glyph glyph-name="fraction" unicode="&#x2044;" horiz-adv-x="450" 
d="M20 0l310 670h100l-310 -670h-100z" />
    <glyph glyph-name="Euro" unicode="&#x20ac;" horiz-adv-x="510" 
d="M280 670h200v-110h-190q-90 0 -90 -85v-15h200v-110h-370v110h50v15q0 88 52.5 141.5t147.5 53.5zM200 195q0 -85 90 -85h190v-110h-200q-95 0 -147.5 53.5t-52.5 141.5v5h-50v110h370v-110h-200v-5z" />
    <glyph glyph-name="trademark" unicode="&#x2122;" horiz-adv-x="892" 
d="M20 582v88h204q-66 -29 -83 -88h-121zM148 180v338q0 75 42 113.5t114 38.5h68v-88h-68q-30 0 -45 -16t-15 -56v-330h-96zM628 328q-55 0 -84 44l-90 137q-50 76 -50 125v36h96v-28q0 -37 18 -64l109 -161l111 161q18 26 18 64v28h96v-36q0 -51 -50 -125l-88 -133
q-32 -48 -86 -48zM404 180v386q17 -37 36 -66l60 -90v-230h-96zM756 180v230l60 90q19 29 36 66v-386h-96z" />
    <glyph glyph-name="oneeighth" unicode="&#x215b;" horiz-adv-x="1150" 
d="M55 514v88h48q72 0 72 68h96q0 -71 -42 -113.5t-118 -42.5h-56zM390 0l310 670h100l-310 -670h-100zM175 238v269q68 20 96 83v-352h-96zM951 312q76 0 118 -42.5t42 -113.5t-42 -113.5t-118 -42.5h-32q-76 0 -118 42.5t-42 113.5q0 61 30 100q35 -34 90 -45
q-24 -17 -24 -55q0 -68 72 -68h16q72 0 72 68t-64 68h-30q-77 0 -119.5 43t-40.5 113q0 71 42 113.5t118 42.5h30q76 0 118 -42.5t42 -113.5q0 -61 -30 -100q-35 34 -90 45q24 17 24 55q0 68 -72 68h-14q-72 0 -72 -68t64 -68h30zM39 134v88h352v-88h-352z" />
    <glyph glyph-name="threeeighths" unicode="&#x215c;" horiz-adv-x="1110" 
d="M207 582q-72 0 -72 -68h-96q0 71 42 113.5t118 42.5h32q76 0 118 -42.5t42 -113.5q0 -61 -30 -100q-35 34 -90 45q24 17 24 55q0 68 -72 68h-16zM350 0l310 670h100l-310 -670h-100zM911 312q76 0 118 -42.5t42 -113.5t-42 -113.5t-118 -42.5h-32q-76 0 -118 42.5
t-42 113.5q0 61 30 100q35 -34 90 -45q-24 -17 -24 -55q0 -68 72 -68h16q72 0 72 68t-64 68h-30q-77 0 -119.5 43t-40.5 113q0 71 42 113.5t118 42.5h30q76 0 118 -42.5t42 -113.5q0 -61 -30 -100q-35 34 -90 45q24 17 24 55q0 68 -72 68h-14q-72 0 -72 -68t64 -68h30z
M231 446q76 0 118 -42.5t42 -113.5t-42 -113.5t-118 -42.5h-32q-76 0 -118 42.5t-42 113.5h96q0 -68 72 -68h16q72 0 72 68t-64 68h-96v88h96z" />
    <glyph glyph-name="fiveeighths" unicode="&#x215d;" horiz-adv-x="1110" 
d="M135 493q-68 -20 -96 -83v260h336v-88h-240v-89zM350 0l310 670h100l-310 -670h-100zM911 312q76 0 118 -42.5t42 -113.5t-42 -113.5t-118 -42.5h-32q-76 0 -118 42.5t-42 113.5q0 61 30 100q35 -34 90 -45q-24 -17 -24 -55q0 -68 72 -68h16q72 0 72 68t-64 68h-30
q-77 0 -119.5 43t-40.5 113q0 71 42 113.5t118 42.5h30q76 0 118 -42.5t42 -113.5q0 -61 -30 -100q-35 34 -90 45q24 17 24 55q0 68 -72 68h-14q-72 0 -72 -68t64 -68h30zM231 486q76 0 118 -42.5t42 -113.5v-40q0 -71 -42 -113.5t-118 -42.5h-192v88h184q72 0 72 68v40
q0 68 -72 68h-16q-72 0 -72 -68h-96q0 71 42 113.5t118 42.5h32z" />
    <glyph glyph-name="seveneighths" unicode="&#x215e;" horiz-adv-x="1020" 
d="M31 582v88h256v-28q0 -31 -16 -55l-3 -5h-237zM47 134v36q0 49 50 125l188 283q18 28 18 64v28h96v-36q0 -49 -50 -125l-188 -283q-18 -27 -18 -64v-28h-96zM260 0l310 670h100l-310 -670h-100zM821 312q76 0 118 -42.5t42 -113.5t-42 -113.5t-118 -42.5h-32
q-76 0 -118 42.5t-42 113.5q0 61 30 100q35 -34 90 -45q-24 -17 -24 -55q0 -68 72 -68h16q72 0 72 68t-64 68h-30q-77 0 -119.5 43t-40.5 113q0 71 42 113.5t118 42.5h30q76 0 118 -42.5t42 -113.5q0 -61 -30 -100q-35 34 -90 45q24 17 24 55q0 68 -72 68h-14q-72 0 -72 -68
t64 -68h30z" />
    <glyph glyph-name="partialdiff" unicode="&#x2202;" 
d="M240 390h30q90 0 90 85t-90 85h-20q-90 0 -90 -85h-120q0 88 52.5 141.5t147.5 53.5h40q95 0 147.5 -53.5t52.5 -141.5t-52.5 -141.5t-147.5 -53.5h-30q-90 0 -90 -85t90 -85h20q90 0 90 85v76q85 26 120 104v-180q0 -88 -52.5 -141.5t-147.5 -53.5h-40
q-95 0 -147.5 53.5t-52.5 141.5t52.5 141.5t147.5 53.5z" />
    <glyph glyph-name="emptyset" unicode="&#x2205;" 
d="M402 517q78 -50 78 -162v-40q0 -88 -52.5 -141.5t-147.5 -53.5h-40q-14 0 -38 2l-62 -122h-100l78 153q-78 50 -78 162v40q0 88 52.5 141.5t147.5 53.5h40q14 0 38 -2l62 122h100zM160 315q0 -32 13 -52l90 177h-13q-90 0 -90 -85v-40zM360 315v40q0 32 -13 52l-90 -177
h13q90 0 90 85z" />
    <glyph glyph-name="product" unicode="&#x220f;" 
d="M480 670v-670h-120v560h-200v-560h-120v670h440z" />
    <glyph glyph-name="summation" unicode="&#x2211;" horiz-adv-x="500" 
d="M173 115q-23 -35 -23 -80v-35h-120v45q0 62 62 156l89 134l-89 134q-62 94 -62 156v45h120v-35q0 -45 23 -80l146 -220zM170 670h300v-110h-276l-4 6q-20 30 -20 69v35zM190 104l4 6h276v-110h-300v35q0 39 20 69z" />
    <glyph glyph-name="minus" unicode="&#x2212;" 
d="M40 280v110h440v-110h-440z" />
    <glyph glyph-name="radical" unicode="&#x221a;" horiz-adv-x="600" 
d="M555 800h445v-110h-445q-37 0 -56 -20t-19 -70v-320q0 -33 -4.5 -50.5t-17.5 -36.5l-91 -133q-9 -13 -21 -25l-70 100l79 113q5 7 5 17v345q0 94 52.5 142t142.5 48zM160 265q0 -10 5 -17l161 -229q-30 -19 -66 -19q-68 0 -105 55l-93 138q-13 19 -17.5 36.5t-4.5 50.5
v390h120v-405z" />
    <glyph glyph-name="infinity" unicode="&#x221e;" horiz-adv-x="750" 
d="M320 354q0 95 53.5 147.5t141.5 52.5t141.5 -52.5t53.5 -147.5v-40q0 -95 -53.5 -147.5t-141.5 -52.5q-75 0 -125 38q44 42 56 112q22 -30 69 -30q85 0 85 90v20q0 90 -85 90t-85 -80v-37q0 -96 -53.5 -149t-141.5 -51q-88 0 -141.5 52.5t-53.5 147.5v37q0 95 53.5 147.5
t141.5 52.5q75 0 125 -38q-44 -42 -56 -112q-22 30 -69 30q-85 0 -85 -90v-17q0 -90 85 -90t85 80v37z" />
    <glyph glyph-name="integral" unicode="&#x222b;" horiz-adv-x="440" 
d="M280 195q0 -88 -52.5 -141.5t-147.5 -53.5h-40v110h30q90 0 90 85v280q0 88 52.5 141.5t147.5 53.5h40v-110h-30q-90 0 -90 -85v-280z" />
    <glyph glyph-name="approxequal" unicode="&#x2248;" horiz-adv-x="500" 
d="M460 505h-100q0 -45 -36 -45q-20 0 -73.5 22.5t-99.5 22.5q-111 0 -111 -165h100q0 45 36 45q20 0 73.5 -22.5t99.5 -22.5q111 0 111 165zM460 305h-100q0 -45 -36 -45q-20 0 -73.5 22.5t-99.5 22.5q-111 0 -111 -165h100q0 45 36 45q20 0 73.5 -22.5t99.5 -22.5
q111 0 111 165z" />
    <glyph glyph-name="notequal" unicode="&#x2260;" 
d="M480 670l-101 -200h101v-110h-157l-26 -50h183v-110h-239l-101 -200h-100l101 200h-101v110h157l26 50h-183v110h239l101 200h100z" />
    <glyph glyph-name="lessequal" unicode="&#x2264;" horiz-adv-x="370" 
d="M40 350q0 68 55 105l138 93q19 13 36.5 17.5t50.5 4.5h10v-120h-25q-10 0 -17 -5l-135 -95l135 -95q7 -5 17 -5h25v-120h-10q-33 0 -50.5 4.5t-36.5 17.5l-138 93q-55 37 -55 105zM40 0v110h290v-110h-290z" />
    <glyph glyph-name="greaterequal" unicode="&#x2265;" horiz-adv-x="370" 
d="M330 350q0 -68 -55 -105l-138 -93q-19 -13 -36.5 -17.5t-50.5 -4.5h-10v120h25q10 0 17 5l135 95l-135 95q-7 5 -17 5h-25v120h10q33 0 50.5 -4.5t36.5 -17.5l138 -93q55 -37 55 -105zM330 0h-290v110h290v-110z" />
    <glyph glyph-name="lozenge" unicode="&#x25ca;" 
d="M458 477q13 -19 17.5 -36.5t4.5 -50.5v-110q0 -33 -4.5 -50.5t-17.5 -36.5l-91 -133q-9 -13 -21 -25l-70 100l79 113q5 7 5 17v140q0 10 -5 17l-161 229q30 19 66 19q68 0 105 -55zM160 265q0 -10 5 -17l161 -229q-30 -19 -66 -19q-68 0 -105 55l-93 138
q-13 19 -17.5 36.5t-4.5 50.5v110q0 33 4.5 50.5t17.5 36.5l91 133q9 13 21 25l70 -100l-79 -113q-5 -7 -5 -17v-140z" />
    <glyph glyph-name="A.final" 
d="M500 110h30v-110h-30q-69 0 -104.5 39t-35.5 101v35q0 85 -90 85h-20q-90 0 -90 -85v-175h-120v175q0 88 52.5 141.5t147.5 53.5h40q44 0 80 -17v52q0 10 -5 17l-97 136l-93 -136q-5 -7 -5 -17v-26q-85 -26 -120 -104v115q0 33 4.5 50.5t17.5 36.5l93 138q37 55 105 55
q65 0 107 -60l91 -133q13 -19 17.5 -36.5t4.5 -50.5v-260q0 -8 6 -14t14 -6z" />
    <glyph glyph-name="Aacute.final" 
d="M290 855h90q0 -70 -37 -107.5t-104 -37.5h-39v80h25q39 0 52 17t13 48zM500 110h30v-110h-30q-69 0 -104.5 39t-35.5 101v35q0 85 -90 85h-20q-90 0 -90 -85v-175h-120v175q0 88 52.5 141.5t147.5 53.5h40q44 0 80 -17v52q0 10 -5 17l-97 136l-93 -136q-5 -7 -5 -17v-26
q-85 -26 -120 -104v115q0 33 4.5 50.5t17.5 36.5l93 138q37 55 105 55q65 0 107 -60l91 -133q13 -19 17.5 -36.5t4.5 -50.5v-260q0 -8 6 -14t14 -6z" />
    <glyph glyph-name="Abreve.final" 
d="M330 855h90q0 -70 -37 -107.5t-104 -37.5h-38q-67 0 -104 37.5t-37 107.5h90q0 -31 13 -48t52 -17h10q39 0 52 17t13 48zM500 110h30v-110h-30q-69 0 -104.5 39t-35.5 101v35q0 85 -90 85h-20q-90 0 -90 -85v-175h-120v175q0 88 52.5 141.5t147.5 53.5h40q44 0 80 -17v52
q0 10 -5 17l-97 136l-93 -136q-5 -7 -5 -17v-26q-85 -26 -120 -104v115q0 33 4.5 50.5t17.5 36.5l93 138q37 55 105 55q65 0 107 -60l91 -133q13 -19 17.5 -36.5t4.5 -50.5v-260q0 -8 6 -14t14 -6z" />
    <glyph glyph-name="Acircumflex.final" 
d="M358 811q41 -27 51.5 -42t10.5 -44v-15h-90v5q0 10 -4 15t-19 15l-47 31l-47 -31q-15 -10 -19 -15t-4 -15v-5h-90v15q0 29 10.5 44t51.5 42l98 64zM500 110h30v-110h-30q-69 0 -104.5 39t-35.5 101v35q0 85 -90 85h-20q-90 0 -90 -85v-175h-120v175q0 88 52.5 141.5
t147.5 53.5h40q44 0 80 -17v52q0 10 -5 17l-97 136l-93 -136q-5 -7 -5 -17v-26q-85 -26 -120 -104v115q0 33 4.5 50.5t17.5 36.5l93 138q37 55 105 55q65 0 107 -60l91 -133q13 -19 17.5 -36.5t4.5 -50.5v-260q0 -8 6 -14t14 -6z" />
    <glyph glyph-name="Adieresis.final" 
d="M220 830v-120h-120v20q0 100 100 100h20zM300 710v120h120v-20q0 -100 -100 -100h-20zM500 110h30v-110h-30q-69 0 -104.5 39t-35.5 101v35q0 85 -90 85h-20q-90 0 -90 -85v-175h-120v175q0 88 52.5 141.5t147.5 53.5h40q44 0 80 -17v52q0 10 -5 17l-97 136l-93 -136
q-5 -7 -5 -17v-26q-85 -26 -120 -104v115q0 33 4.5 50.5t17.5 36.5l93 138q37 55 105 55q65 0 107 -60l91 -133q13 -19 17.5 -36.5t4.5 -50.5v-260q0 -8 6 -14t14 -6z" />
    <glyph glyph-name="Agrave.final" 
d="M230 855q0 -31 13 -48t52 -17h25v-80h-39q-67 0 -104 37.5t-37 107.5h90zM500 110h30v-110h-30q-69 0 -104.5 39t-35.5 101v35q0 85 -90 85h-20q-90 0 -90 -85v-175h-120v175q0 88 52.5 141.5t147.5 53.5h40q44 0 80 -17v52q0 10 -5 17l-97 136l-93 -136q-5 -7 -5 -17
v-26q-85 -26 -120 -104v115q0 33 4.5 50.5t17.5 36.5l93 138q37 55 105 55q65 0 107 -60l91 -133q13 -19 17.5 -36.5t4.5 -50.5v-260q0 -8 6 -14t14 -6z" />
    <glyph glyph-name="Amacron.final" 
d="M110 710v90h300v-90h-300zM500 110h30v-110h-30q-69 0 -104.5 39t-35.5 101v35q0 85 -90 85h-20q-90 0 -90 -85v-175h-120v175q0 88 52.5 141.5t147.5 53.5h40q44 0 80 -17v52q0 10 -5 17l-97 136l-93 -136q-5 -7 -5 -17v-26q-85 -26 -120 -104v115q0 33 4.5 50.5
t17.5 36.5l93 138q37 55 105 55q65 0 107 -60l91 -133q13 -19 17.5 -36.5t4.5 -50.5v-260q0 -8 6 -14t14 -6z" />
    <glyph glyph-name="Aogonek.final" 
d="M500 110h30v-110h-30q-32 0 -48.5 -7.5t-16.5 -32.5v-10q0 -25 16.5 -32.5t48.5 -7.5v-80q-73 0 -114 25.5t-41 75.5v18q0 59 57 84q-42 36 -42 107v35q0 85 -90 85h-20q-90 0 -90 -85v-175h-120v175q0 88 52.5 141.5t147.5 53.5h40q44 0 80 -17v52q0 10 -5 17l-97 136
l-93 -136q-5 -7 -5 -17v-26q-85 -26 -120 -104v115q0 33 4.5 50.5t17.5 36.5l93 138q37 55 105 55q65 0 107 -60l91 -133q13 -19 17.5 -36.5t4.5 -50.5v-260q0 -8 6 -14t14 -6z" />
    <glyph glyph-name="Aring.final" 
d="M266 950q124 0 124 -120t-124 -120h-12q-124 0 -124 120t124 120h12zM263 786q43 0 43 44t-43 44h-6q-43 0 -43 -44t43 -44h6zM500 110h30v-110h-30q-69 0 -104.5 39t-35.5 101v35q0 85 -90 85h-20q-90 0 -90 -85v-175h-120v175q0 88 52.5 141.5t147.5 53.5h40
q44 0 80 -17v52q0 10 -5 17l-97 136l-93 -136q-5 -7 -5 -17v-26q-85 -26 -120 -104v115q0 33 4.5 50.5t17.5 36.5l93 138q37 55 105 55q65 0 107 -60l91 -133q13 -19 17.5 -36.5t4.5 -50.5v-260q0 -8 6 -14t14 -6z" />
    <glyph glyph-name="Atilde.final" 
d="M450 855h-80q0 -55 -36 -55q-16 0 -33 8.5t-30.5 19t-37.5 19t-52 8.5q-111 0 -111 -145h80q0 55 36 55q19 0 40 -13.5t49 -27.5t64 -14q111 0 111 145zM500 110h30v-110h-30q-69 0 -104.5 39t-35.5 101v35q0 85 -90 85h-20q-90 0 -90 -85v-175h-120v175q0 88 52.5 141.5
t147.5 53.5h40q44 0 80 -17v52q0 10 -5 17l-97 136l-93 -136q-5 -7 -5 -17v-26q-85 -26 -120 -104v115q0 33 4.5 50.5t17.5 36.5l93 138q37 55 105 55q65 0 107 -60l91 -133q13 -19 17.5 -36.5t4.5 -50.5v-260q0 -8 6 -14t14 -6z" />
    <glyph glyph-name="AE.final" horiz-adv-x="790" 
d="M160 379q-85 -26 -120 -104v115q0 33 4.5 50.5t17.5 36.5l93 138q37 55 105 55q65 0 107 -60l19 -28q50 88 174 88h40q95 0 147.5 -53.5t52.5 -141.5h-120q0 85 -90 85h-20q-90 0 -90 -85v-20q0 -85 90 -85h110v-110h-120q-76 0 -125 34t-67 96q-8 25 -23 46l-87 122
l-93 -136q-5 -7 -5 -17v-26zM480 195q0 -85 90 -85h230v-110h-240q-88 0 -144 50.5t-56 124.5q0 85 -90 85h-20q-90 0 -90 -85v-175h-120v175q0 88 52.5 141.5t147.5 53.5h40q44 0 80 -17q34 -76 120 -102v-56z" />
    <glyph glyph-name="B.final" horiz-adv-x="280" 
d="M280 390q95 0 147.5 -53.5t52.5 -141.5t-52.5 -141.5t-147.5 -53.5h-240v670h240q95 0 147.5 -53.5t52.5 -141.5q0 -75 -38 -125q-42 44 -112 56q30 22 30 69q0 85 -90 85h-110v-170h120zM270 110q90 0 90 85t-80 85h-120v-170h110z" />
    <glyph glyph-name="C.final" horiz-adv-x="470" 
d="M160 195q0 -85 90 -85h230v-110h-240q-95 0 -147.5 53.5t-52.5 141.5v280q0 88 52.5 141.5t147.5 53.5h40q95 0 147.5 -53.5t52.5 -141.5h-120q0 85 -90 85h-20q-90 0 -90 -85v-280z" />
    <glyph glyph-name="Cacute.final" horiz-adv-x="470" 
d="M290 855h90q0 -70 -37 -107.5t-104 -37.5h-39v80h25q39 0 52 17t13 48zM160 195q0 -85 90 -85h230v-110h-240q-95 0 -147.5 53.5t-52.5 141.5v280q0 88 52.5 141.5t147.5 53.5h40q95 0 147.5 -53.5t52.5 -141.5h-120q0 85 -90 85h-20q-90 0 -90 -85v-280z" />
    <glyph glyph-name="Ccaron.final" horiz-adv-x="470" 
d="M358 754l-98 -64l-98 64q-41 27 -51.5 42t-10.5 44v15h90v-5q0 -10 4 -15t19 -15l47 -31l47 31q15 10 19 15t4 15v5h90v-15q0 -29 -10.5 -44t-51.5 -42zM160 195q0 -85 90 -85h230v-110h-240q-95 0 -147.5 53.5t-52.5 141.5v280q0 88 52.5 141.5t147.5 53.5h40
q95 0 147.5 -53.5t52.5 -141.5h-120q0 85 -90 85h-20q-90 0 -90 -85v-280z" />
    <glyph glyph-name="Ccedilla.final" horiz-adv-x="470" 
d="M160 195q0 -85 90 -85h230v-110h-150v-39q0 -65 -41 -98t-114 -33v80q31 0 48 13t17 52v25q-95 0 -147.5 53.5t-52.5 141.5v280q0 88 52.5 141.5t147.5 53.5h40q95 0 147.5 -53.5t52.5 -141.5h-120q0 85 -90 85h-20q-90 0 -90 -85v-280z" />
    <glyph glyph-name="Cdotaccent.final" horiz-adv-x="470" 
d="M200 710v120h120v-20q0 -100 -100 -100h-20zM160 195q0 -85 90 -85h230v-110h-240q-95 0 -147.5 53.5t-52.5 141.5v280q0 88 52.5 141.5t147.5 53.5h40q95 0 147.5 -53.5t52.5 -141.5h-120q0 85 -90 85h-20q-90 0 -90 -85v-280z" />
    <glyph glyph-name="D.final" horiz-adv-x="280" 
d="M280 670q95 0 147.5 -53.5t52.5 -141.5v-280q0 -88 -52.5 -141.5t-147.5 -53.5h-240v670h240zM360 475q0 85 -90 85h-110v-450h110q90 0 90 85v280z" />
    <glyph glyph-name="Eth.final" horiz-adv-x="280" 
d="M160 260v-150h110q90 0 90 85v280q0 85 -90 85h-110v-150h-120v260h240q95 0 147.5 -53.5t52.5 -141.5v-280q0 -88 -52.5 -141.5t-147.5 -53.5h-240v260h120zM0 280v110h260v-110h-260z" />
    <glyph glyph-name="Dcaron.final" horiz-adv-x="280" 
d="M348 754l-98 -64l-98 64q-41 27 -51.5 42t-10.5 44v15h90v-5q0 -10 4 -15t19 -15l47 -31l47 31q15 10 19 15t4 15v5h90v-15q0 -29 -10.5 -44t-51.5 -42zM280 670q95 0 147.5 -53.5t52.5 -141.5v-280q0 -88 -52.5 -141.5t-147.5 -53.5h-240v670h240zM360 475q0 85 -90 85
h-110v-450h110q90 0 90 85v280z" />
    <glyph glyph-name="Dcroat.final" horiz-adv-x="280" 
d="M160 260v-150h110q90 0 90 85v280q0 85 -90 85h-110v-150h-120v260h240q95 0 147.5 -53.5t52.5 -141.5v-280q0 -88 -52.5 -141.5t-147.5 -53.5h-240v260h120zM0 280v110h260v-110h-260z" />
    <glyph glyph-name="E.final" horiz-adv-x="470" 
d="M240 260q-95 0 -147.5 53.5t-52.5 141.5v20q0 88 52.5 141.5t147.5 53.5h40q95 0 147.5 -53.5t52.5 -141.5h-120q0 85 -90 85h-20q-90 0 -90 -85v-20q0 -85 90 -85h110v-110h-120zM160 195q0 -85 90 -85h230v-110h-240q-95 0 -147.5 53.5t-52.5 141.5v160
q35 -78 120 -104v-56z" />
    <glyph glyph-name="Eacute.final" horiz-adv-x="470" 
d="M290 855h90q0 -70 -37 -107.5t-104 -37.5h-39v80h25q39 0 52 17t13 48zM240 260q-95 0 -147.5 53.5t-52.5 141.5v20q0 88 52.5 141.5t147.5 53.5h40q95 0 147.5 -53.5t52.5 -141.5h-120q0 85 -90 85h-20q-90 0 -90 -85v-20q0 -85 90 -85h110v-110h-120zM160 195
q0 -85 90 -85h230v-110h-240q-95 0 -147.5 53.5t-52.5 141.5v160q35 -78 120 -104v-56z" />
    <glyph glyph-name="Ecaron.final" horiz-adv-x="470" 
d="M358 754l-98 -64l-98 64q-41 27 -51.5 42t-10.5 44v15h90v-5q0 -10 4 -15t19 -15l47 -31l47 31q15 10 19 15t4 15v5h90v-15q0 -29 -10.5 -44t-51.5 -42zM240 260q-95 0 -147.5 53.5t-52.5 141.5v20q0 88 52.5 141.5t147.5 53.5h40q95 0 147.5 -53.5t52.5 -141.5h-120
q0 85 -90 85h-20q-90 0 -90 -85v-20q0 -85 90 -85h110v-110h-120zM160 195q0 -85 90 -85h230v-110h-240q-95 0 -147.5 53.5t-52.5 141.5v160q35 -78 120 -104v-56z" />
    <glyph glyph-name="Ecircumflex.final" horiz-adv-x="470" 
d="M358 811q41 -27 51.5 -42t10.5 -44v-15h-90v5q0 10 -4 15t-19 15l-47 31l-47 -31q-15 -10 -19 -15t-4 -15v-5h-90v15q0 29 10.5 44t51.5 42l98 64zM240 260q-95 0 -147.5 53.5t-52.5 141.5v20q0 88 52.5 141.5t147.5 53.5h40q95 0 147.5 -53.5t52.5 -141.5h-120
q0 85 -90 85h-20q-90 0 -90 -85v-20q0 -85 90 -85h110v-110h-120zM160 195q0 -85 90 -85h230v-110h-240q-95 0 -147.5 53.5t-52.5 141.5v160q35 -78 120 -104v-56z" />
    <glyph glyph-name="Edieresis.final" horiz-adv-x="470" 
d="M220 830v-120h-120v20q0 100 100 100h20zM300 710v120h120v-20q0 -100 -100 -100h-20zM240 260q-95 0 -147.5 53.5t-52.5 141.5v20q0 88 52.5 141.5t147.5 53.5h40q95 0 147.5 -53.5t52.5 -141.5h-120q0 85 -90 85h-20q-90 0 -90 -85v-20q0 -85 90 -85h110v-110h-120z
M160 195q0 -85 90 -85h230v-110h-240q-95 0 -147.5 53.5t-52.5 141.5v160q35 -78 120 -104v-56z" />
    <glyph glyph-name="Edotaccent.final" horiz-adv-x="470" 
d="M200 710v120h120v-20q0 -100 -100 -100h-20zM240 260q-95 0 -147.5 53.5t-52.5 141.5v20q0 88 52.5 141.5t147.5 53.5h40q95 0 147.5 -53.5t52.5 -141.5h-120q0 85 -90 85h-20q-90 0 -90 -85v-20q0 -85 90 -85h110v-110h-120zM160 195q0 -85 90 -85h230v-110h-240
q-95 0 -147.5 53.5t-52.5 141.5v160q35 -78 120 -104v-56z" />
    <glyph glyph-name="Egrave.final" horiz-adv-x="470" 
d="M230 855q0 -31 13 -48t52 -17h25v-80h-39q-67 0 -104 37.5t-37 107.5h90zM240 260q-95 0 -147.5 53.5t-52.5 141.5v20q0 88 52.5 141.5t147.5 53.5h40q95 0 147.5 -53.5t52.5 -141.5h-120q0 85 -90 85h-20q-90 0 -90 -85v-20q0 -85 90 -85h110v-110h-120zM160 195
q0 -85 90 -85h230v-110h-240q-95 0 -147.5 53.5t-52.5 141.5v160q35 -78 120 -104v-56z" />
    <glyph glyph-name="Emacron.final" horiz-adv-x="470" 
d="M110 710v90h300v-90h-300zM240 260q-95 0 -147.5 53.5t-52.5 141.5v20q0 88 52.5 141.5t147.5 53.5h40q95 0 147.5 -53.5t52.5 -141.5h-120q0 85 -90 85h-20q-90 0 -90 -85v-20q0 -85 90 -85h110v-110h-120zM160 195q0 -85 90 -85h230v-110h-240q-95 0 -147.5 53.5
t-52.5 141.5v160q35 -78 120 -104v-56z" />
    <glyph glyph-name="Eogonek.final" horiz-adv-x="470" 
d="M240 260q-95 0 -147.5 53.5t-52.5 141.5v20q0 88 52.5 141.5t147.5 53.5h40q95 0 147.5 -53.5t52.5 -141.5h-120q0 85 -90 85h-20q-90 0 -90 -85v-20q0 -85 90 -85h110v-110h-120zM160 195q0 -85 90 -85h230v-110q-32 0 -48.5 -7.5t-16.5 -32.5v-10q0 -25 16.5 -32.5
t48.5 -7.5v-80q-73 0 -114 25.5t-41 75.5v18q0 30 15 51h-100q-95 0 -147.5 53.5t-52.5 141.5v160q35 -78 120 -104v-56z" />
    <glyph glyph-name="F.final" horiz-adv-x="160" 
d="M250 560q-90 0 -90 -85v-20q0 -85 90 -85h110v-110h-120q-95 0 -147.5 53.5t-52.5 141.5v20q0 88 52.5 141.5t147.5 53.5h220v-110h-210zM40 355q35 -78 120 -104v-251h-120v355z" />
    <glyph glyph-name="G.final" horiz-adv-x="280" 
d="M280 390q95 0 147.5 -53.5t52.5 -141.5t-52.5 -141.5t-147.5 -53.5h-40q-95 0 -147.5 53.5t-52.5 141.5v280q0 88 52.5 141.5t147.5 53.5h40q95 0 147.5 -53.5t52.5 -141.5h-120q0 85 -90 85h-20q-90 0 -90 -85v-280q0 -85 90 -85h20q90 0 90 85t-90 85v110h10zM383 390
h157v-110h-54q-28 78 -103 110z" />
    <glyph glyph-name="Gbreve.final" horiz-adv-x="280" 
d="M330 855h90q0 -70 -37 -107.5t-104 -37.5h-38q-67 0 -104 37.5t-37 107.5h90q0 -31 13 -48t52 -17h10q39 0 52 17t13 48zM280 390q95 0 147.5 -53.5t52.5 -141.5t-52.5 -141.5t-147.5 -53.5h-40q-95 0 -147.5 53.5t-52.5 141.5v280q0 88 52.5 141.5t147.5 53.5h40
q95 0 147.5 -53.5t52.5 -141.5h-120q0 85 -90 85h-20q-90 0 -90 -85v-280q0 -85 90 -85h20q90 0 90 85t-90 85v110h10zM383 390h157v-110h-54q-28 78 -103 110z" />
    <glyph glyph-name="Gcommaaccent.final" horiz-adv-x="280" 
d="M280 390q95 0 147.5 -53.5t52.5 -141.5t-52.5 -141.5t-147.5 -53.5h-40q-95 0 -147.5 53.5t-52.5 141.5v280q0 88 52.5 141.5t147.5 53.5h40q95 0 147.5 -53.5t52.5 -141.5h-120q0 85 -90 85h-20q-90 0 -90 -85v-280q0 -85 90 -85h20q90 0 90 85t-90 85v110h10zM383 390
h157v-110h-54q-28 78 -103 110zM150 -110q31 0 48 13t17 52v25h90v-39q0 -65 -41 -98t-114 -33v80z" />
    <glyph glyph-name="Gdotaccent.final" horiz-adv-x="280" 
d="M200 710v120h120v-20q0 -100 -100 -100h-20zM280 390q95 0 147.5 -53.5t52.5 -141.5t-52.5 -141.5t-147.5 -53.5h-40q-95 0 -147.5 53.5t-52.5 141.5v280q0 88 52.5 141.5t147.5 53.5h40q95 0 147.5 -53.5t52.5 -141.5h-120q0 85 -90 85h-20q-90 0 -90 -85v-280
q0 -85 90 -85h20q90 0 90 85t-90 85v110h10zM383 390h157v-110h-54q-28 78 -103 110z" />
    <glyph glyph-name="H.final" 
d="M500 110h30v-110h-30q-69 0 -104.5 39t-35.5 101v55q0 85 -90 85h-30q-95 0 -147.5 53.5t-52.5 141.5v195h120v-195q0 -85 90 -85h30q95 0 147.5 -53.5t52.5 -141.5v-65q0 -8 6 -14t14 -6zM480 295q-35 78 -120 104v271h120v-375zM40 375q35 -78 120 -104v-271h-120v375z
" />
    <glyph glyph-name="Hbar.final" 
d="M360 399v101h-360v110h40v60h120v-60h200v60h120v-60h40v-110h-40v-205q-35 78 -120 104zM500 110h30v-110h-30q-69 0 -104.5 39t-35.5 101v55q0 85 -90 85h-30q-95 0 -147.5 53.5t-52.5 141.5v5h120v-5q0 -85 90 -85h30q95 0 147.5 -53.5t52.5 -141.5v-65q0 -8 6 -14
t14 -6zM40 375q35 -78 120 -104v-271h-120v375z" />
    <glyph glyph-name="I.final" horiz-adv-x="340" 
d="M325 0q-90 0 -142.5 48t-52.5 142v280q0 50 -19 70t-56 20h-25v110h25q90 0 142.5 -48t52.5 -142v-280q0 -50 19 -70t56 -20h25v-110h-25zM259 560q-22 73 -104 110h195v-110h-91zM30 0v110h91q22 -73 104 -110h-195z" />
    <glyph glyph-name="Iacute.final" horiz-adv-x="340" 
d="M220 855h90q0 -70 -37 -107.5t-104 -37.5h-39v80h25q39 0 52 17t13 48zM325 0q-90 0 -142.5 48t-52.5 142v280q0 50 -19 70t-56 20h-25v110h25q90 0 142.5 -48t52.5 -142v-280q0 -50 19 -70t56 -20h25v-110h-25zM259 560q-22 73 -104 110h195v-110h-91zM30 0v110h91
q22 -73 104 -110h-195z" />
    <glyph glyph-name="Icircumflex.final" horiz-adv-x="340" 
d="M288 811q41 -27 51.5 -42t10.5 -44v-15h-90v5q0 10 -4 15t-19 15l-47 31l-47 -31q-15 -10 -19 -15t-4 -15v-5h-90v15q0 29 10.5 44t51.5 42l98 64zM325 0q-90 0 -142.5 48t-52.5 142v280q0 50 -19 70t-56 20h-25v110h25q90 0 142.5 -48t52.5 -142v-280q0 -50 19 -70
t56 -20h25v-110h-25zM259 560q-22 73 -104 110h195v-110h-91zM30 0v110h91q22 -73 104 -110h-195z" />
    <glyph glyph-name="Idieresis.final" horiz-adv-x="340" 
d="M150 830v-120h-120v20q0 100 100 100h20zM230 710v120h120v-20q0 -100 -100 -100h-20zM325 0q-90 0 -142.5 48t-52.5 142v280q0 50 -19 70t-56 20h-25v110h25q90 0 142.5 -48t52.5 -142v-280q0 -50 19 -70t56 -20h25v-110h-25zM259 560q-22 73 -104 110h195v-110h-91z
M30 0v110h91q22 -73 104 -110h-195z" />
    <glyph glyph-name="Idotaccent.final" horiz-adv-x="340" 
d="M130 710v120h120v-20q0 -100 -100 -100h-20zM325 0q-90 0 -142.5 48t-52.5 142v280q0 50 -19 70t-56 20h-25v110h25q90 0 142.5 -48t52.5 -142v-280q0 -50 19 -70t56 -20h25v-110h-25zM259 560q-22 73 -104 110h195v-110h-91zM30 0v110h91q22 -73 104 -110h-195z" />
    <glyph glyph-name="Igrave.final" horiz-adv-x="340" 
d="M160 855q0 -31 13 -48t52 -17h25v-80h-39q-67 0 -104 37.5t-37 107.5h90zM325 0q-90 0 -142.5 48t-52.5 142v280q0 50 -19 70t-56 20h-25v110h25q90 0 142.5 -48t52.5 -142v-280q0 -50 19 -70t56 -20h25v-110h-25zM259 560q-22 73 -104 110h195v-110h-91zM30 0v110h91
q22 -73 104 -110h-195z" />
    <glyph glyph-name="Imacron.final" horiz-adv-x="340" 
d="M40 710v90h300v-90h-300zM325 0q-90 0 -142.5 48t-52.5 142v280q0 50 -19 70t-56 20h-25v110h25q90 0 142.5 -48t52.5 -142v-280q0 -50 19 -70t56 -20h25v-110h-25zM259 560q-22 73 -104 110h195v-110h-91zM30 0v110h91q22 -73 104 -110h-195z" />
    <glyph glyph-name="Iogonek.final" horiz-adv-x="340" 
d="M250 200q0 -50 19 -70t56 -20h25v-110q-32 0 -48.5 -7.5t-16.5 -32.5v-10q0 -25 16.5 -32.5t48.5 -7.5v-80q-73 0 -114 25.5t-41 75.5v18q0 30 15 51h-180v110h91q21 -68 93 -105q4 5 13 14q-97 42 -97 171v280q0 50 -19 70t-56 20h-25v110h25q90 0 142.5 -48t52.5 -142
v-280zM155 670h195v-110h-91q-22 73 -104 110z" />
    <glyph glyph-name="J.final" horiz-adv-x="280" 
d="M360 670h120v-475q0 -88 -52.5 -141.5t-147.5 -53.5h-60q-95 0 -147.5 53.5t-52.5 141.5h120q0 -85 90 -85h40q90 0 90 85v475z" />
    <glyph glyph-name="K.final" horiz-adv-x="500" 
d="M440 450q-15 -79 -63 -115q48 -36 63 -115l16 -90q4 -20 24 -20h20v-110h-10q-69 0 -106.5 31t-49.5 109l-10 66q-12 74 -84 74q-80 0 -80 -85v-195h-120v195q0 88 52.5 141.5t147.5 53.5q72 0 84 74l10 66q12 78 49.5 109t106.5 31h10v-110h-20q-20 0 -24 -20zM160 399
q-85 -26 -120 -104v375h120v-271z" />
    <glyph glyph-name="Kcommaaccent.final" horiz-adv-x="500" 
d="M440 450q-15 -79 -63 -115q48 -36 63 -115l16 -90q4 -20 24 -20h20v-110h-10q-69 0 -106.5 31t-49.5 109l-10 66q-12 74 -84 74q-80 0 -80 -85v-195h-120v195q0 88 52.5 141.5t147.5 53.5q72 0 84 74l10 66q12 78 49.5 109t106.5 31h10v-110h-20q-20 0 -24 -20zM160 399
q-85 -26 -120 -104v375h120v-271zM160 -110q31 0 48 13t17 52v25h90v-39q0 -65 -41 -98t-114 -33v80z" />
    <glyph glyph-name="L.final" horiz-adv-x="430" 
d="M250 110h190v-110h-200q-95 0 -147.5 53.5t-52.5 141.5v475h120v-475q0 -85 90 -85z" />
    <glyph glyph-name="Lacute.final" horiz-adv-x="430" 
d="M130 855h90q0 -70 -37 -107.5t-104 -37.5h-39v80h25q39 0 52 17t13 48zM250 110h190v-110h-200q-95 0 -147.5 53.5t-52.5 141.5v475h120v-475q0 -85 90 -85z" />
    <glyph glyph-name="Lcaron.final" horiz-adv-x="430" 
d="M250 110h190v-110h-200q-95 0 -147.5 53.5t-52.5 141.5v475h120v-475q0 -85 90 -85zM200 450l20 220h100l-13 -130q-10 -90 -97 -90h-10z" />
    <glyph glyph-name="Lcommaaccent.final" horiz-adv-x="430" 
d="M250 110h190v-110h-200q-95 0 -147.5 53.5t-52.5 141.5v475h120v-475q0 -85 90 -85zM170 -110q31 0 48 13t17 52v25h90v-39q0 -65 -41 -98t-114 -33v80z" />
    <glyph glyph-name="Lslash.final" horiz-adv-x="430" 
d="M40 421v249h120v-217zM0 280v110l260 70v-110zM160 303v-108q0 -85 90 -85h190v-110h-200q-95 0 -147.5 53.5t-52.5 141.5v76z" />
    <glyph glyph-name="M.final" horiz-adv-x="640" 
d="M600 625q0 -63 -62 -156l-111 -167q-42 -60 -107 -60q-68 0 -105 55l-113 172q-62 94 -62 156v45h120v-35q0 -45 23 -80l136 -201l138 201q23 35 23 80v35h120v-45zM40 540q19 -43 45 -82l75 -113v-345h-120v540zM620 110h30v-110h-30q-69 0 -104.5 39t-35.5 101v205
l75 113q26 39 45 82v-410q0 -8 6 -14t14 -6z" />
    <glyph glyph-name="N.final" horiz-adv-x="470" 
d="M360 670h120v-670h-120v35q0 45 -23 80l-235 354q-62 94 -62 156v45h120v-35q0 -45 23 -80l177 -267v382zM40 540q19 -43 45 -82l75 -113v-345h-120v540z" />
    <glyph glyph-name="Nacute.final" horiz-adv-x="470" 
d="M290 855h90q0 -70 -37 -107.5t-104 -37.5h-39v80h25q39 0 52 17t13 48zM360 670h120v-670h-120v35q0 45 -23 80l-235 354q-62 94 -62 156v45h120v-35q0 -45 23 -80l177 -267v382zM40 540q19 -43 45 -82l75 -113v-345h-120v540z" />
    <glyph glyph-name="Ncaron.final" horiz-adv-x="470" 
d="M358 754l-98 -64l-98 64q-41 27 -51.5 42t-10.5 44v15h90v-5q0 -10 4 -15t19 -15l47 -31l47 31q15 10 19 15t4 15v5h90v-15q0 -29 -10.5 -44t-51.5 -42zM360 670h120v-670h-120v35q0 45 -23 80l-235 354q-62 94 -62 156v45h120v-35q0 -45 23 -80l177 -267v382zM40 540
q19 -43 45 -82l75 -113v-345h-120v540z" />
    <glyph glyph-name="Ncommaaccent.final" horiz-adv-x="470" 
d="M360 670h120v-670h-120v35q0 45 -23 80l-235 354q-62 94 -62 156v45h120v-35q0 -45 23 -80l177 -267v382zM40 540q19 -43 45 -82l75 -113v-345h-120v540zM150 -110q31 0 48 13t17 52v25h90v-39q0 -65 -41 -98t-114 -33v80z" />
    <glyph glyph-name="Eng.final" horiz-adv-x="470" 
d="M360 670h120v-675q0 -88 -52.5 -141.5t-147.5 -53.5h-10v110q90 0 90 85v40q0 45 -23 80l-235 354q-62 94 -62 156v45h120v-35q0 -45 23 -80l177 -267v382zM40 540q19 -43 45 -82l75 -113v-345h-120v540z" />
    <glyph glyph-name="Ntilde.final" horiz-adv-x="470" 
d="M450 855h-80q0 -55 -36 -55q-16 0 -33 8.5t-30.5 19t-37.5 19t-52 8.5q-111 0 -111 -145h80q0 55 36 55q19 0 40 -13.5t49 -27.5t64 -14q111 0 111 145zM360 670h120v-670h-120v35q0 45 -23 80l-235 354q-62 94 -62 156v45h120v-35q0 -45 23 -80l177 -267v382zM40 540
q19 -43 45 -82l75 -113v-345h-120v540z" />
    <glyph glyph-name="O.final" horiz-adv-x="280" 
d="M280 670q95 0 147.5 -53.5t52.5 -141.5v-280q0 -88 -52.5 -141.5t-147.5 -53.5h-40q-95 0 -147.5 53.5t-52.5 141.5v280q0 88 52.5 141.5t147.5 53.5h40zM360 195v280q0 85 -90 85h-20q-90 0 -90 -85v-280q0 -85 90 -85h20q90 0 90 85z" />
    <glyph glyph-name="Oacute.final" horiz-adv-x="280" 
d="M290 855h90q0 -70 -37 -107.5t-104 -37.5h-39v80h25q39 0 52 17t13 48zM280 670q95 0 147.5 -53.5t52.5 -141.5v-280q0 -88 -52.5 -141.5t-147.5 -53.5h-40q-95 0 -147.5 53.5t-52.5 141.5v280q0 88 52.5 141.5t147.5 53.5h40zM360 195v280q0 85 -90 85h-20
q-90 0 -90 -85v-280q0 -85 90 -85h20q90 0 90 85z" />
    <glyph glyph-name="Ocircumflex.final" horiz-adv-x="280" 
d="M358 811q41 -27 51.5 -42t10.5 -44v-15h-90v5q0 10 -4 15t-19 15l-47 31l-47 -31q-15 -10 -19 -15t-4 -15v-5h-90v15q0 29 10.5 44t51.5 42l98 64zM280 670q95 0 147.5 -53.5t52.5 -141.5v-280q0 -88 -52.5 -141.5t-147.5 -53.5h-40q-95 0 -147.5 53.5t-52.5 141.5v280
q0 88 52.5 141.5t147.5 53.5h40zM360 195v280q0 85 -90 85h-20q-90 0 -90 -85v-280q0 -85 90 -85h20q90 0 90 85z" />
    <glyph glyph-name="Odieresis.final" horiz-adv-x="280" 
d="M220 830v-120h-120v20q0 100 100 100h20zM300 710v120h120v-20q0 -100 -100 -100h-20zM280 670q95 0 147.5 -53.5t52.5 -141.5v-280q0 -88 -52.5 -141.5t-147.5 -53.5h-40q-95 0 -147.5 53.5t-52.5 141.5v280q0 88 52.5 141.5t147.5 53.5h40zM360 195v280q0 85 -90 85
h-20q-90 0 -90 -85v-280q0 -85 90 -85h20q90 0 90 85z" />
    <glyph glyph-name="Ograve.final" horiz-adv-x="280" 
d="M230 855q0 -31 13 -48t52 -17h25v-80h-39q-67 0 -104 37.5t-37 107.5h90zM280 670q95 0 147.5 -53.5t52.5 -141.5v-280q0 -88 -52.5 -141.5t-147.5 -53.5h-40q-95 0 -147.5 53.5t-52.5 141.5v280q0 88 52.5 141.5t147.5 53.5h40zM360 195v280q0 85 -90 85h-20
q-90 0 -90 -85v-280q0 -85 90 -85h20q90 0 90 85z" />
    <glyph glyph-name="Ohungarumlaut.final" horiz-adv-x="280" 
d="M160 855h90q0 -70 -37 -107.5t-104 -37.5h-39v80h25q39 0 52 17t13 48zM360 855h90q0 -70 -37 -107.5t-104 -37.5h-39v80h25q39 0 52 17t13 48zM280 670q95 0 147.5 -53.5t52.5 -141.5v-280q0 -88 -52.5 -141.5t-147.5 -53.5h-40q-95 0 -147.5 53.5t-52.5 141.5v280
q0 88 52.5 141.5t147.5 53.5h40zM360 195v280q0 85 -90 85h-20q-90 0 -90 -85v-280q0 -85 90 -85h20q90 0 90 85z" />
    <glyph glyph-name="Omacron.final" horiz-adv-x="280" 
d="M110 710v90h300v-90h-300zM280 670q95 0 147.5 -53.5t52.5 -141.5v-280q0 -88 -52.5 -141.5t-147.5 -53.5h-40q-95 0 -147.5 53.5t-52.5 141.5v280q0 88 52.5 141.5t147.5 53.5h40zM360 195v280q0 85 -90 85h-20q-90 0 -90 -85v-280q0 -85 90 -85h20q90 0 90 85z" />
    <glyph glyph-name="Oslash.final" horiz-adv-x="280" 
d="M480 670l-37 -72q37 -47 37 -123v-280q0 -88 -52.5 -141.5t-147.5 -53.5h-40q-42 0 -73 10l52 103q13 -3 31 -3h20q90 0 90 85v239l-220 -434h-100l36 72q-36 50 -36 123v280q0 88 52.5 141.5t147.5 53.5h40q42 0 73 -10l-53 -103q-14 3 -30 3h-20q-90 0 -90 -85v-239
l220 434h100z" />
    <glyph glyph-name="Otilde.final" horiz-adv-x="280" 
d="M450 855h-80q0 -55 -36 -55q-16 0 -33 8.5t-30.5 19t-37.5 19t-52 8.5q-111 0 -111 -145h80q0 55 36 55q19 0 40 -13.5t49 -27.5t64 -14q111 0 111 145zM280 670q95 0 147.5 -53.5t52.5 -141.5v-280q0 -88 -52.5 -141.5t-147.5 -53.5h-40q-95 0 -147.5 53.5t-52.5 141.5
v280q0 88 52.5 141.5t147.5 53.5h40zM360 195v280q0 85 -90 85h-20q-90 0 -90 -85v-280q0 -85 90 -85h20q90 0 90 85z" />
    <glyph glyph-name="OE.final" horiz-adv-x="790" 
d="M480 195q0 -85 90 -85h230v-110h-240q-88 0 -140 46q-52 -46 -140 -46h-40q-95 0 -147.5 53.5t-52.5 141.5v280q0 88 52.5 141.5t147.5 53.5h40q88 0 140 -46q52 46 140 46h40q95 0 147.5 -53.5t52.5 -141.5h-120q0 85 -90 85h-20q-90 0 -90 -85v-20q0 -85 90 -85h110
v-110h-120q-95 0 -147.5 53.5t-52.5 141.5v20q0 85 -90 85h-20q-90 0 -90 -85v-280q0 -85 90 -85h20q90 0 90 85v160q35 -78 120 -104v-56z" />
    <glyph glyph-name="P.final" horiz-adv-x="160" 
d="M280 670q95 0 147.5 -53.5t52.5 -141.5t-52.5 -141.5t-147.5 -53.5h-30q-90 0 -90 -85v-195h-120v195q0 88 52.5 141.5t147.5 53.5h30q90 0 90 85t-90 85h-20q-90 0 -90 -85v-76q-85 -26 -120 -104v180q0 88 52.5 141.5t147.5 53.5h40z" />
    <glyph glyph-name="Thorn.final" horiz-adv-x="160" 
d="M280 560q95 0 147.5 -53.5t52.5 -141.5t-52.5 -141.5t-147.5 -53.5h-30q-90 0 -90 -85v-85h-120v85q0 88 52.5 141.5t147.5 53.5h30q90 0 90 85t-90 85h-20q-90 0 -90 -85v-76q-85 -26 -120 -104v485h120v-122q35 12 80 12h40z" />
    <glyph glyph-name="Q.final" horiz-adv-x="490" 
d="M334 130q16 14 21 31t5 54v260q0 85 -90 85h-20q-90 0 -90 -85v-280q0 -85 90 -85h250v-110h-260q-95 0 -147.5 53.5t-52.5 141.5v280q0 88 52.5 141.5t147.5 53.5h40q95 0 147.5 -53.5t52.5 -141.5v-260q0 -53 -19 -85h-127z" />
    <glyph glyph-name="R.final" horiz-adv-x="500" 
d="M480 110h20v-110h-10q-69 0 -106.5 31t-49.5 109l-10 66q-12 74 -84 74q-80 0 -80 -85v-195h-120v195q0 88 52.5 141.5t147.5 53.5h30q90 0 90 85t-90 85h-20q-90 0 -90 -85v-76q-85 -26 -120 -104v180q0 88 52.5 141.5t147.5 53.5h40q95 0 147.5 -53.5t52.5 -141.5
q0 -112 -83 -159q31 -34 43 -96l16 -90q4 -20 24 -20z" />
    <glyph glyph-name="Racute.final" horiz-adv-x="500" 
d="M290 855h90q0 -70 -37 -107.5t-104 -37.5h-39v80h25q39 0 52 17t13 48zM480 110h20v-110h-10q-69 0 -106.5 31t-49.5 109l-10 66q-12 74 -84 74q-80 0 -80 -85v-195h-120v195q0 88 52.5 141.5t147.5 53.5h30q90 0 90 85t-90 85h-20q-90 0 -90 -85v-76q-85 -26 -120 -104
v180q0 88 52.5 141.5t147.5 53.5h40q95 0 147.5 -53.5t52.5 -141.5q0 -112 -83 -159q31 -34 43 -96l16 -90q4 -20 24 -20z" />
    <glyph glyph-name="Rcaron.final" horiz-adv-x="500" 
d="M358 754l-98 -64l-98 64q-41 27 -51.5 42t-10.5 44v15h90v-5q0 -10 4 -15t19 -15l47 -31l47 31q15 10 19 15t4 15v5h90v-15q0 -29 -10.5 -44t-51.5 -42zM480 110h20v-110h-10q-69 0 -106.5 31t-49.5 109l-10 66q-12 74 -84 74q-80 0 -80 -85v-195h-120v195
q0 88 52.5 141.5t147.5 53.5h30q90 0 90 85t-90 85h-20q-90 0 -90 -85v-76q-85 -26 -120 -104v180q0 88 52.5 141.5t147.5 53.5h40q95 0 147.5 -53.5t52.5 -141.5q0 -112 -83 -159q31 -34 43 -96l16 -90q4 -20 24 -20z" />
    <glyph glyph-name="Rcommaaccent.final" horiz-adv-x="500" 
d="M480 110h20v-110h-10q-69 0 -106.5 31t-49.5 109l-10 66q-12 74 -84 74q-80 0 -80 -85v-195h-120v195q0 88 52.5 141.5t147.5 53.5h30q90 0 90 85t-90 85h-20q-90 0 -90 -85v-76q-85 -26 -120 -104v180q0 88 52.5 141.5t147.5 53.5h40q95 0 147.5 -53.5t52.5 -141.5
q0 -112 -83 -159q31 -34 43 -96l16 -90q4 -20 24 -20zM150 -110q31 0 48 13t17 52v25h90v-39q0 -65 -41 -98t-114 -33v80z" />
    <glyph glyph-name="S.final" horiz-adv-x="280" 
d="M280 390q95 0 147.5 -53.5t52.5 -141.5t-52.5 -141.5t-147.5 -53.5h-40q-95 0 -147.5 53.5t-52.5 141.5h120q0 -85 90 -85h20q90 0 90 85t-90 85h-30q-95 0 -147.5 53.5t-52.5 141.5t52.5 141.5t147.5 53.5h40q95 0 147.5 -53.5t52.5 -141.5h-120q0 85 -90 85h-20
q-90 0 -90 -85t90 -85h30z" />
    <glyph glyph-name="Sacute.final" horiz-adv-x="280" 
d="M290 855h90q0 -70 -37 -107.5t-104 -37.5h-39v80h25q39 0 52 17t13 48zM280 390q95 0 147.5 -53.5t52.5 -141.5t-52.5 -141.5t-147.5 -53.5h-40q-95 0 -147.5 53.5t-52.5 141.5h120q0 -85 90 -85h20q90 0 90 85t-90 85h-30q-95 0 -147.5 53.5t-52.5 141.5t52.5 141.5
t147.5 53.5h40q95 0 147.5 -53.5t52.5 -141.5h-120q0 85 -90 85h-20q-90 0 -90 -85t90 -85h30z" />
    <glyph glyph-name="Scaron.final" horiz-adv-x="280" 
d="M358 754l-98 -64l-98 64q-41 27 -51.5 42t-10.5 44v15h90v-5q0 -10 4 -15t19 -15l47 -31l47 31q15 10 19 15t4 15v5h90v-15q0 -29 -10.5 -44t-51.5 -42zM280 390q95 0 147.5 -53.5t52.5 -141.5t-52.5 -141.5t-147.5 -53.5h-40q-95 0 -147.5 53.5t-52.5 141.5h120
q0 -85 90 -85h20q90 0 90 85t-90 85h-30q-95 0 -147.5 53.5t-52.5 141.5t52.5 141.5t147.5 53.5h40q95 0 147.5 -53.5t52.5 -141.5h-120q0 85 -90 85h-20q-90 0 -90 -85t90 -85h30z" />
    <glyph glyph-name="Scedilla.final" horiz-adv-x="280" 
d="M280 390q95 0 147.5 -53.5t52.5 -141.5q0 -82 -45.5 -134.5t-129.5 -59.5v-41q0 -65 -41 -98t-114 -33v80q31 0 48 13t17 52v27q-84 7 -129.5 59.5t-45.5 134.5h120q0 -85 90 -85h20q90 0 90 85t-90 85h-30q-95 0 -147.5 53.5t-52.5 141.5t52.5 141.5t147.5 53.5h40
q95 0 147.5 -53.5t52.5 -141.5h-120q0 85 -90 85h-20q-90 0 -90 -85t90 -85h30z" />
    <glyph glyph-name="Scommaaccent.final" horiz-adv-x="280" 
d="M280 390q95 0 147.5 -53.5t52.5 -141.5t-52.5 -141.5t-147.5 -53.5h-40q-95 0 -147.5 53.5t-52.5 141.5h120q0 -85 90 -85h20q90 0 90 85t-90 85h-30q-95 0 -147.5 53.5t-52.5 141.5t52.5 141.5t147.5 53.5h40q95 0 147.5 -53.5t52.5 -141.5h-120q0 85 -90 85h-20
q-90 0 -90 -85t90 -85h30zM150 -111q31 0 48 13t17 52v25h90v-39q0 -65 -41 -98t-114 -33v80z" />
    <glyph glyph-name="uni1E9E.final" horiz-adv-x="280" 
d="M270 560h-20q-90 0 -90 -85v-475h-120v475q0 88 52.5 141.5t147.5 53.5h40q95 0 147.5 -53.5t52.5 -141.5q0 -75 -38 -125q-42 44 -112 56q30 22 30 69q0 85 -90 85zM280 390q95 0 147.5 -53.5t52.5 -141.5t-52.5 -141.5t-147.5 -53.5h-60v110h50q90 0 90 85t-80 85h-60
v110h60z" />
    <glyph glyph-name="T.final" horiz-adv-x="290" 
d="M10 560v110h255q-82 -37 -104 -110h-151zM170 0v480q0 94 52.5 142t142.5 48h85v-110h-85q-37 0 -56 -20t-19 -70v-470h-120z" />
    <glyph glyph-name="Tbar.final" horiz-adv-x="290" 
d="M10 560v110h255q-82 -37 -104 -110h-151zM170 410v70q0 94 52.5 142t142.5 48h85v-110h-85q-37 0 -56 -20t-19 -70v-60h-120zM90 280v110h280v-110h-280zM290 260v-260h-120v260h120z" />
    <glyph glyph-name="Tcaron.final" horiz-adv-x="290" 
d="M328 754l-98 -64l-98 64q-41 27 -51.5 42t-10.5 44v15h90v-5q0 -10 4 -15t19 -15l47 -31l47 31q15 10 19 15t4 15v5h90v-15q0 -29 -10.5 -44t-51.5 -42zM10 560v110h255q-82 -37 -104 -110h-151zM170 0v480q0 94 52.5 142t142.5 48h85v-110h-85q-37 0 -56 -20t-19 -70
v-470h-120z" />
    <glyph glyph-name="uni0162.final" horiz-adv-x="290" 
d="M265 670q-82 -37 -104 -110h-151v110h255zM365 670h85v-110h-85q-37 0 -56 -20t-19 -70v-470h-15v-39q0 -65 -41 -98t-114 -33v80q31 0 48 13t17 52v25h-15v480q0 94 52.5 142t142.5 48z" />
    <glyph glyph-name="uni021A.final" horiz-adv-x="290" 
d="M10 560v110h255q-82 -37 -104 -110h-151zM170 0v480q0 94 52.5 142t142.5 48h85v-110h-85q-37 0 -56 -20t-19 -70v-470h-120zM120 -110q31 0 48 13t17 52v25h90v-39q0 -65 -41 -98t-114 -33v80z" />
    <glyph glyph-name="U.final" horiz-adv-x="280" 
d="M360 670h120v-475q0 -88 -52.5 -141.5t-147.5 -53.5h-40q-95 0 -147.5 53.5t-52.5 141.5v475h120v-475q0 -85 90 -85h20q90 0 90 85v475z" />
    <glyph glyph-name="Uacute.final" horiz-adv-x="280" 
d="M290 855h90q0 -70 -37 -107.5t-104 -37.5h-39v80h25q39 0 52 17t13 48zM360 670h120v-475q0 -88 -52.5 -141.5t-147.5 -53.5h-40q-95 0 -147.5 53.5t-52.5 141.5v475h120v-475q0 -85 90 -85h20q90 0 90 85v475z" />
    <glyph glyph-name="Ucircumflex.final" horiz-adv-x="280" 
d="M358 811q41 -27 51.5 -42t10.5 -44v-15h-90v5q0 10 -4 15t-19 15l-47 31l-47 -31q-15 -10 -19 -15t-4 -15v-5h-90v15q0 29 10.5 44t51.5 42l98 64zM360 670h120v-475q0 -88 -52.5 -141.5t-147.5 -53.5h-40q-95 0 -147.5 53.5t-52.5 141.5v475h120v-475q0 -85 90 -85h20
q90 0 90 85v475z" />
    <glyph glyph-name="Udieresis.final" horiz-adv-x="280" 
d="M220 830v-120h-120v20q0 100 100 100h20zM300 710v120h120v-20q0 -100 -100 -100h-20zM360 670h120v-475q0 -88 -52.5 -141.5t-147.5 -53.5h-40q-95 0 -147.5 53.5t-52.5 141.5v475h120v-475q0 -85 90 -85h20q90 0 90 85v475z" />
    <glyph glyph-name="Ugrave.final" horiz-adv-x="280" 
d="M230 855q0 -31 13 -48t52 -17h25v-80h-39q-67 0 -104 37.5t-37 107.5h90zM360 670h120v-475q0 -88 -52.5 -141.5t-147.5 -53.5h-40q-95 0 -147.5 53.5t-52.5 141.5v475h120v-475q0 -85 90 -85h20q90 0 90 85v475z" />
    <glyph glyph-name="Uhungarumlaut.final" horiz-adv-x="280" 
d="M160 855h90q0 -70 -37 -107.5t-104 -37.5h-39v80h25q39 0 52 17t13 48zM360 855h90q0 -70 -37 -107.5t-104 -37.5h-39v80h25q39 0 52 17t13 48zM360 670h120v-475q0 -88 -52.5 -141.5t-147.5 -53.5h-40q-95 0 -147.5 53.5t-52.5 141.5v475h120v-475q0 -85 90 -85h20
q90 0 90 85v475z" />
    <glyph glyph-name="Umacron.final" horiz-adv-x="280" 
d="M110 710v90h300v-90h-300zM360 670h120v-475q0 -88 -52.5 -141.5t-147.5 -53.5h-40q-95 0 -147.5 53.5t-52.5 141.5v475h120v-475q0 -85 90 -85h20q90 0 90 85v475z" />
    <glyph glyph-name="Uogonek.final" horiz-adv-x="280" 
d="M360 670h120v-475q0 -76 -40 -127.5t-112 -63.5q-32 -5 -47.5 -14t-15.5 -30v-10q0 -25 16.5 -32.5t48.5 -7.5v-80q-73 0 -114 25.5t-41 75.5v18q0 33 18 55q-74 13 -113.5 64t-39.5 127v475h120v-475q0 -85 90 -85h20q90 0 90 85v475z" />
    <glyph glyph-name="Uring.final" horiz-adv-x="280" 
d="M266 950q124 0 124 -120t-124 -120h-12q-124 0 -124 120t124 120h12zM263 786q43 0 43 44t-43 44h-6q-43 0 -43 -44t43 -44h6zM360 670h120v-475q0 -88 -52.5 -141.5t-147.5 -53.5h-40q-95 0 -147.5 53.5t-52.5 141.5v475h120v-475q0 -85 90 -85h20q90 0 90 85v475z" />
    <glyph glyph-name="V.final" horiz-adv-x="270" 
d="M174 35q-12 12 -21 25l-91 133q-13 19 -17.5 36.5t-4.5 50.5v390h120v-405q0 -10 5 -17l79 -113zM260 0q-36 0 -66 19l161 229q5 7 5 17v405h120v-390q0 -33 -4.5 -50.5t-17.5 -36.5l-93 -138q-37 -55 -105 -55z" />
    <glyph glyph-name="W.final" horiz-adv-x="590" 
d="M174 35q-12 12 -21 25l-91 133q-13 19 -17.5 36.5t-4.5 50.5v390h120v-405q0 -10 5 -17l79 -113zM260 0q-36 0 -66 19l161 229q5 7 5 17v405h120v-405q0 -10 5 -17l79 -113l-70 -100q-12 12 -21 25l-53 77l-55 -82q-37 -55 -105 -55zM580 0q-36 0 -66 19l161 229
q5 7 5 17v405h120v-390q0 -33 -4.5 -50.5t-17.5 -36.5l-93 -138q-37 -55 -105 -55z" />
    <glyph glyph-name="Wacute.final" horiz-adv-x="590" 
d="M450 855h90q0 -70 -37 -107.5t-104 -37.5h-39v80h25q39 0 52 17t13 48zM174 35q-12 12 -21 25l-91 133q-13 19 -17.5 36.5t-4.5 50.5v390h120v-405q0 -10 5 -17l79 -113zM260 0q-36 0 -66 19l161 229q5 7 5 17v405h120v-405q0 -10 5 -17l79 -113l-70 -100q-12 12 -21 25
l-53 77l-55 -82q-37 -55 -105 -55zM580 0q-36 0 -66 19l161 229q5 7 5 17v405h120v-390q0 -33 -4.5 -50.5t-17.5 -36.5l-93 -138q-37 -55 -105 -55z" />
    <glyph glyph-name="Wcircumflex.final" horiz-adv-x="590" 
d="M518 811q41 -27 51.5 -42t10.5 -44v-15h-90v5q0 10 -4 15t-19 15l-47 31l-47 -31q-15 -10 -19 -15t-4 -15v-5h-90v15q0 29 10.5 44t51.5 42l98 64zM174 35q-12 12 -21 25l-91 133q-13 19 -17.5 36.5t-4.5 50.5v390h120v-405q0 -10 5 -17l79 -113zM260 0q-36 0 -66 19
l161 229q5 7 5 17v405h120v-405q0 -10 5 -17l79 -113l-70 -100q-12 12 -21 25l-53 77l-55 -82q-37 -55 -105 -55zM580 0q-36 0 -66 19l161 229q5 7 5 17v405h120v-390q0 -33 -4.5 -50.5t-17.5 -36.5l-93 -138q-37 -55 -105 -55z" />
    <glyph glyph-name="Wdieresis.final" horiz-adv-x="590" 
d="M380 830v-120h-120v20q0 100 100 100h20zM460 710v120h120v-20q0 -100 -100 -100h-20zM174 35q-12 12 -21 25l-91 133q-13 19 -17.5 36.5t-4.5 50.5v390h120v-405q0 -10 5 -17l79 -113zM260 0q-36 0 -66 19l161 229q5 7 5 17v405h120v-405q0 -10 5 -17l79 -113l-70 -100
q-12 12 -21 25l-53 77l-55 -82q-37 -55 -105 -55zM580 0q-36 0 -66 19l161 229q5 7 5 17v405h120v-390q0 -33 -4.5 -50.5t-17.5 -36.5l-93 -138q-37 -55 -105 -55z" />
    <glyph glyph-name="Wgrave.final" horiz-adv-x="590" 
d="M390 855q0 -31 13 -48t52 -17h25v-80h-39q-67 0 -104 37.5t-37 107.5h90zM174 35q-12 12 -21 25l-91 133q-13 19 -17.5 36.5t-4.5 50.5v390h120v-405q0 -10 5 -17l79 -113zM260 0q-36 0 -66 19l161 229q5 7 5 17v405h120v-405q0 -10 5 -17l79 -113l-70 -100
q-12 12 -21 25l-53 77l-55 -82q-37 -55 -105 -55zM580 0q-36 0 -66 19l161 229q5 7 5 17v405h120v-390q0 -33 -4.5 -50.5t-17.5 -36.5l-93 -138q-37 -55 -105 -55z" />
    <glyph glyph-name="X.final" horiz-adv-x="500" 
d="M490 0q-16 0 -30 3t-24 5.5t-22 12t-18 14t-18 21t-16.5 23t-19.5 29.5t-21 32l-267 400q-12 20 -24 20h-10v110h10q16 0 30 -3t24 -5.5t22 -12t18 -14t18 -21t16.5 -23t19.5 -29.5t21 -32l267 -400q12 -20 24 -20h10v-110h-10zM341 353l-69 104l49 73q6 9 21 32
t19.5 29.5t16.5 23t18 21t18 14t22 12t24 5.5t30 3h10v-110h-10q-12 0 -24 -20zM30 0h-10v110h10q12 0 24 20l125 187l69 -104l-49 -73q-6 -9 -21 -32t-19.5 -29.5t-16.5 -23t-18 -21t-18 -14t-22 -12t-24 -5.5t-30 -3z" />
    <glyph glyph-name="Y.final" horiz-adv-x="310" 
d="M174 235l-122 178q-13 19 -17.5 36.5t-4.5 50.5v170h120v-185q0 -10 5 -17l82 -119q-49 -65 -63 -114zM190 0v205q0 43 47 110l108 153q5 7 5 17v185h120v-170q0 -33 -4.5 -50.5t-17.5 -36.5l-91 -133q-47 -70 -47 -110v-170h-120z" />
    <glyph glyph-name="Yacute.final" horiz-adv-x="310" 
d="M280 855h90q0 -70 -37 -107.5t-104 -37.5h-39v80h25q39 0 52 17t13 48zM174 235l-122 178q-13 19 -17.5 36.5t-4.5 50.5v170h120v-185q0 -10 5 -17l82 -119q-49 -65 -63 -114zM190 0v205q0 43 47 110l108 153q5 7 5 17v185h120v-170q0 -33 -4.5 -50.5t-17.5 -36.5
l-91 -133q-47 -70 -47 -110v-170h-120z" />
    <glyph glyph-name="Ycircumflex.final" horiz-adv-x="310" 
d="M348 811q41 -27 51.5 -42t10.5 -44v-15h-90v5q0 10 -4 15t-19 15l-47 31l-47 -31q-15 -10 -19 -15t-4 -15v-5h-90v15q0 29 10.5 44t51.5 42l98 64zM174 235l-122 178q-13 19 -17.5 36.5t-4.5 50.5v170h120v-185q0 -10 5 -17l82 -119q-49 -65 -63 -114zM190 0v205
q0 43 47 110l108 153q5 7 5 17v185h120v-170q0 -33 -4.5 -50.5t-17.5 -36.5l-91 -133q-47 -70 -47 -110v-170h-120z" />
    <glyph glyph-name="Ydieresis.final" horiz-adv-x="310" 
d="M210 830v-120h-120v20q0 100 100 100h20zM290 710v120h120v-20q0 -100 -100 -100h-20zM174 235l-122 178q-13 19 -17.5 36.5t-4.5 50.5v170h120v-185q0 -10 5 -17l82 -119q-49 -65 -63 -114zM190 0v205q0 43 47 110l108 153q5 7 5 17v185h120v-170q0 -33 -4.5 -50.5
t-17.5 -36.5l-91 -133q-47 -70 -47 -110v-170h-120z" />
    <glyph glyph-name="Ygrave.final" horiz-adv-x="310" 
d="M220 855q0 -31 13 -48t52 -17h25v-80h-39q-67 0 -104 37.5t-37 107.5h90zM174 235l-122 178q-13 19 -17.5 36.5t-4.5 50.5v170h120v-185q0 -10 5 -17l82 -119q-49 -65 -63 -114zM190 0v205q0 43 47 110l108 153q5 7 5 17v185h120v-170q0 -33 -4.5 -50.5t-17.5 -36.5
l-91 -133q-47 -70 -47 -110v-170h-120z" />
    <glyph glyph-name="Z.final" horiz-adv-x="460" 
d="M30 0v45q0 62 62 156l235 354q23 35 23 80v35h120v-45q0 -62 -62 -156l-235 -354q-23 -35 -23 -80v-35h-120zM30 560v110h300v-35q0 -39 -20 -69l-4 -6h-276zM170 0v35q0 39 20 69l4 6h276v-110h-300z" />
    <glyph glyph-name="Zacute.final" horiz-adv-x="460" 
d="M280 855h90q0 -70 -37 -107.5t-104 -37.5h-39v80h25q39 0 52 17t13 48zM30 0v45q0 62 62 156l235 354q23 35 23 80v35h120v-45q0 -62 -62 -156l-235 -354q-23 -35 -23 -80v-35h-120zM30 560v110h300v-35q0 -39 -20 -69l-4 -6h-276zM170 0v35q0 39 20 69l4 6h276v-110
h-300z" />
    <glyph glyph-name="Zcaron.final" horiz-adv-x="460" 
d="M348 754l-98 -64l-98 64q-41 27 -51.5 42t-10.5 44v15h90v-5q0 -10 4 -15t19 -15l47 -31l47 31q15 10 19 15t4 15v5h90v-15q0 -29 -10.5 -44t-51.5 -42zM30 0v45q0 62 62 156l235 354q23 35 23 80v35h120v-45q0 -62 -62 -156l-235 -354q-23 -35 -23 -80v-35h-120zM30 560
v110h300v-35q0 -39 -20 -69l-4 -6h-276zM170 0v35q0 39 20 69l4 6h276v-110h-300z" />
    <glyph glyph-name="Zdotaccent.final" horiz-adv-x="460" 
d="M190 710v120h120v-20q0 -100 -100 -100h-20zM30 0v45q0 62 62 156l235 354q23 35 23 80v35h120v-45q0 -62 -62 -156l-235 -354q-23 -35 -23 -80v-35h-120zM30 560v110h300v-35q0 -39 -20 -69l-4 -6h-276zM170 0v35q0 39 20 69l4 6h276v-110h-300z" />
    <glyph glyph-name="A.inicial" 
d="M458 477q13 -19 17.5 -36.5t4.5 -50.5v-390h-120v175q0 85 -90 85h-20q-90 0 -90 -85v-35q0 -62 -35.5 -101t-104.5 -39h-30v110h30q8 0 14 6t6 14v45q0 88 52.5 141.5t147.5 53.5h40q44 0 80 -17v52q0 10 -5 17l-97 136l-93 -136q-5 -7 -5 -17v-26q-85 -26 -120 -104
v115q0 33 4.5 50.5t17.5 36.5l93 138q37 55 105 55q65 0 107 -60z" />
    <glyph glyph-name="Aacute.inicial" 
d="M290 855h90q0 -70 -37 -107.5t-104 -37.5h-39v80h25q39 0 52 17t13 48zM458 477q13 -19 17.5 -36.5t4.5 -50.5v-390h-120v175q0 85 -90 85h-20q-90 0 -90 -85v-35q0 -62 -35.5 -101t-104.5 -39h-30v110h30q8 0 14 6t6 14v45q0 88 52.5 141.5t147.5 53.5h40q44 0 80 -17
v52q0 10 -5 17l-97 136l-93 -136q-5 -7 -5 -17v-26q-85 -26 -120 -104v115q0 33 4.5 50.5t17.5 36.5l93 138q37 55 105 55q65 0 107 -60z" />
    <glyph glyph-name="Abreve.inicial" 
d="M330 855h90q0 -70 -37 -107.5t-104 -37.5h-38q-67 0 -104 37.5t-37 107.5h90q0 -31 13 -48t52 -17h10q39 0 52 17t13 48zM458 477q13 -19 17.5 -36.5t4.5 -50.5v-390h-120v175q0 85 -90 85h-20q-90 0 -90 -85v-35q0 -62 -35.5 -101t-104.5 -39h-30v110h30q8 0 14 6t6 14
v45q0 88 52.5 141.5t147.5 53.5h40q44 0 80 -17v52q0 10 -5 17l-97 136l-93 -136q-5 -7 -5 -17v-26q-85 -26 -120 -104v115q0 33 4.5 50.5t17.5 36.5l93 138q37 55 105 55q65 0 107 -60z" />
    <glyph glyph-name="Acircumflex.inicial" 
d="M358 811q41 -27 51.5 -42t10.5 -44v-15h-90v5q0 10 -4 15t-19 15l-47 31l-47 -31q-15 -10 -19 -15t-4 -15v-5h-90v15q0 29 10.5 44t51.5 42l98 64zM458 477q13 -19 17.5 -36.5t4.5 -50.5v-390h-120v175q0 85 -90 85h-20q-90 0 -90 -85v-35q0 -62 -35.5 -101t-104.5 -39
h-30v110h30q8 0 14 6t6 14v45q0 88 52.5 141.5t147.5 53.5h40q44 0 80 -17v52q0 10 -5 17l-97 136l-93 -136q-5 -7 -5 -17v-26q-85 -26 -120 -104v115q0 33 4.5 50.5t17.5 36.5l93 138q37 55 105 55q65 0 107 -60z" />
    <glyph glyph-name="Adieresis.inicial" 
d="M220 830v-120h-120v20q0 100 100 100h20zM300 710v120h120v-20q0 -100 -100 -100h-20zM458 477q13 -19 17.5 -36.5t4.5 -50.5v-390h-120v175q0 85 -90 85h-20q-90 0 -90 -85v-35q0 -62 -35.5 -101t-104.5 -39h-30v110h30q8 0 14 6t6 14v45q0 88 52.5 141.5t147.5 53.5h40
q44 0 80 -17v52q0 10 -5 17l-97 136l-93 -136q-5 -7 -5 -17v-26q-85 -26 -120 -104v115q0 33 4.5 50.5t17.5 36.5l93 138q37 55 105 55q65 0 107 -60z" />
    <glyph glyph-name="Agrave.inicial" 
d="M230 855q0 -31 13 -48t52 -17h25v-80h-39q-67 0 -104 37.5t-37 107.5h90zM458 477q13 -19 17.5 -36.5t4.5 -50.5v-390h-120v175q0 85 -90 85h-20q-90 0 -90 -85v-35q0 -62 -35.5 -101t-104.5 -39h-30v110h30q8 0 14 6t6 14v45q0 88 52.5 141.5t147.5 53.5h40q44 0 80 -17
v52q0 10 -5 17l-97 136l-93 -136q-5 -7 -5 -17v-26q-85 -26 -120 -104v115q0 33 4.5 50.5t17.5 36.5l93 138q37 55 105 55q65 0 107 -60z" />
    <glyph glyph-name="Amacron.inicial" 
d="M110 710v90h300v-90h-300zM458 477q13 -19 17.5 -36.5t4.5 -50.5v-390h-120v175q0 85 -90 85h-20q-90 0 -90 -85v-35q0 -62 -35.5 -101t-104.5 -39h-30v110h30q8 0 14 6t6 14v45q0 88 52.5 141.5t147.5 53.5h40q44 0 80 -17v52q0 10 -5 17l-97 136l-93 -136q-5 -7 -5 -17
v-26q-85 -26 -120 -104v115q0 33 4.5 50.5t17.5 36.5l93 138q37 55 105 55q65 0 107 -60z" />
    <glyph glyph-name="Aogonek.inicial" 
d="M480 0q-32 0 -48.5 -7.5t-16.5 -32.5v-10q0 -25 16.5 -32.5t48.5 -7.5v-80q-73 0 -114 25.5t-41 75.5v18q0 46 35 71v155q0 85 -90 85h-20q-90 0 -90 -85v-35q0 -62 -35.5 -101t-104.5 -39h-30v110h30q8 0 14 6t6 14v45q0 88 52.5 141.5t147.5 53.5h40q44 0 80 -17v52
q0 10 -5 17l-97 136l-93 -136q-5 -7 -5 -17v-26q-85 -26 -120 -104v115q0 33 4.5 50.5t17.5 36.5l93 138q37 55 105 55q65 0 107 -60l91 -133q13 -19 17.5 -36.5t4.5 -50.5v-390z" />
    <glyph glyph-name="Aring.inicial" 
d="M266 950q124 0 124 -120t-124 -120h-12q-124 0 -124 120t124 120h12zM263 786q43 0 43 44t-43 44h-6q-43 0 -43 -44t43 -44h6zM458 477q13 -19 17.5 -36.5t4.5 -50.5v-390h-120v175q0 85 -90 85h-20q-90 0 -90 -85v-35q0 -62 -35.5 -101t-104.5 -39h-30v110h30q8 0 14 6
t6 14v45q0 88 52.5 141.5t147.5 53.5h40q44 0 80 -17v52q0 10 -5 17l-97 136l-93 -136q-5 -7 -5 -17v-26q-85 -26 -120 -104v115q0 33 4.5 50.5t17.5 36.5l93 138q37 55 105 55q65 0 107 -60z" />
    <glyph glyph-name="Atilde.inicial" 
d="M450 855h-80q0 -55 -36 -55q-16 0 -33 8.5t-30.5 19t-37.5 19t-52 8.5q-111 0 -111 -145h80q0 55 36 55q19 0 40 -13.5t49 -27.5t64 -14q111 0 111 145zM458 477q13 -19 17.5 -36.5t4.5 -50.5v-390h-120v175q0 85 -90 85h-20q-90 0 -90 -85v-35q0 -62 -35.5 -101
t-104.5 -39h-30v110h30q8 0 14 6t6 14v45q0 88 52.5 141.5t147.5 53.5h40q44 0 80 -17v52q0 10 -5 17l-97 136l-93 -136q-5 -7 -5 -17v-26q-85 -26 -120 -104v115q0 33 4.5 50.5t17.5 36.5l93 138q37 55 105 55q65 0 107 -60z" />
    <glyph glyph-name="AE.inicial" horiz-adv-x="820" 
d="M160 379q-85 -26 -120 -104v115q0 33 4.5 50.5t17.5 36.5l93 138q37 55 105 55q65 0 107 -60l19 -28q50 88 174 88h40q95 0 147.5 -53.5t52.5 -141.5h-120q0 85 -90 85h-20q-90 0 -90 -85v-20q0 -85 90 -85h110v-110h-120q-76 0 -125 34t-67 96q-8 25 -23 46l-87 122
l-93 -136q-5 -7 -5 -17v-26zM480 195q0 -85 90 -85h230v-110h-240q-88 0 -144 50.5t-56 124.5q0 85 -90 85h-20q-90 0 -90 -85v-35q0 -62 -35.5 -101t-104.5 -39h-30v110h30q8 0 14 6t6 14v45q0 88 52.5 141.5t147.5 53.5h40q44 0 80 -17q34 -76 120 -102v-56z" />
    <glyph glyph-name="B.inicial" horiz-adv-x="470" 
d="M230 390q95 0 147.5 -53.5t52.5 -141.5t-52.5 -141.5t-147.5 -53.5h-240v670h240q95 0 147.5 -53.5t52.5 -141.5q0 -75 -38 -125q-42 44 -112 56q30 22 30 69q0 85 -90 85h-110v-170h120zM220 110q90 0 90 85t-80 85h-120v-170h110z" />
    <glyph glyph-name="C.inicial" horiz-adv-x="260" 
d="M-80 195q0 -85 90 -85h230v-110h-240q-95 0 -147.5 53.5t-52.5 141.5v280q0 88 52.5 141.5t147.5 53.5h40q95 0 147.5 -53.5t52.5 -141.5h-120q0 85 -90 85h-20q-90 0 -90 -85v-280z" />
    <glyph glyph-name="Cacute.inicial" horiz-adv-x="260" 
d="M50 855h90q0 -70 -37 -107.5t-104 -37.5h-39v80h25q39 0 52 17t13 48zM-80 195q0 -85 90 -85h230v-110h-240q-95 0 -147.5 53.5t-52.5 141.5v280q0 88 52.5 141.5t147.5 53.5h40q95 0 147.5 -53.5t52.5 -141.5h-120q0 85 -90 85h-20q-90 0 -90 -85v-280z" />
    <glyph glyph-name="Ccaron.inicial" horiz-adv-x="260" 
d="M118 754l-98 -64l-98 64q-41 27 -51.5 42t-10.5 44v15h90v-5q0 -10 4 -15t19 -15l47 -31l47 31q15 10 19 15t4 15v5h90v-15q0 -29 -10.5 -44t-51.5 -42zM-80 195q0 -85 90 -85h230v-110h-240q-95 0 -147.5 53.5t-52.5 141.5v280q0 88 52.5 141.5t147.5 53.5h40
q95 0 147.5 -53.5t52.5 -141.5h-120q0 85 -90 85h-20q-90 0 -90 -85v-280z" />
    <glyph glyph-name="Ccedilla.inicial" horiz-adv-x="260" 
d="M-80 195q0 -85 90 -85h230v-110h-150v-39q0 -65 -41 -98t-114 -33v80q31 0 48 13t17 52v25q-95 0 -147.5 53.5t-52.5 141.5v280q0 88 52.5 141.5t147.5 53.5h40q95 0 147.5 -53.5t52.5 -141.5h-120q0 85 -90 85h-20q-90 0 -90 -85v-280z" />
    <glyph glyph-name="Cdotaccent.inicial" horiz-adv-x="260" 
d="M-40 710v120h120v-20q0 -100 -100 -100h-20zM-80 195q0 -85 90 -85h230v-110h-240q-95 0 -147.5 53.5t-52.5 141.5v280q0 88 52.5 141.5t147.5 53.5h40q95 0 147.5 -53.5t52.5 -141.5h-120q0 85 -90 85h-20q-90 0 -90 -85v-280z" />
    <glyph glyph-name="D.inicial" horiz-adv-x="470" 
d="M230 670q95 0 147.5 -53.5t52.5 -141.5v-280q0 -88 -52.5 -141.5t-147.5 -53.5h-240v670h240zM310 475q0 85 -90 85h-110v-450h110q90 0 90 85v280z" />
    <glyph glyph-name="Eth.inicial" horiz-adv-x="470" 
d="M110 260v-150h110q90 0 90 85v280q0 85 -90 85h-110v-150h-120v260h240q95 0 147.5 -53.5t52.5 -141.5v-280q0 -88 -52.5 -141.5t-147.5 -53.5h-240v260h120zM-50 280v110h260v-110h-260z" />
    <glyph glyph-name="Dcaron.inicial" horiz-adv-x="470" 
d="M298 754l-98 -64l-98 64q-41 27 -51.5 42t-10.5 44v15h90v-5q0 -10 4 -15t19 -15l47 -31l47 31q15 10 19 15t4 15v5h90v-15q0 -29 -10.5 -44t-51.5 -42zM230 670q95 0 147.5 -53.5t52.5 -141.5v-280q0 -88 -52.5 -141.5t-147.5 -53.5h-240v670h240zM310 475q0 85 -90 85
h-110v-450h110q90 0 90 85v280z" />
    <glyph glyph-name="Dcroat.inicial" horiz-adv-x="470" 
d="M110 260v-150h110q90 0 90 85v280q0 85 -90 85h-110v-150h-120v260h240q95 0 147.5 -53.5t52.5 -141.5v-280q0 -88 -52.5 -141.5t-147.5 -53.5h-240v260h120zM-50 280v110h260v-110h-260z" />
    <glyph glyph-name="E.inicial" horiz-adv-x="260" 
d="M0 260q-95 0 -147.5 53.5t-52.5 141.5v20q0 88 52.5 141.5t147.5 53.5h40q95 0 147.5 -53.5t52.5 -141.5h-120q0 85 -90 85h-20q-90 0 -90 -85v-20q0 -85 90 -85h110v-110h-120zM-80 195q0 -85 90 -85h230v-110h-240q-95 0 -147.5 53.5t-52.5 141.5v160q35 -78 120 -104
v-56z" />
    <glyph glyph-name="Eacute.inicial" horiz-adv-x="260" 
d="M50 855h90q0 -70 -37 -107.5t-104 -37.5h-39v80h25q39 0 52 17t13 48zM0 260q-95 0 -147.5 53.5t-52.5 141.5v20q0 88 52.5 141.5t147.5 53.5h40q95 0 147.5 -53.5t52.5 -141.5h-120q0 85 -90 85h-20q-90 0 -90 -85v-20q0 -85 90 -85h110v-110h-120zM-80 195
q0 -85 90 -85h230v-110h-240q-95 0 -147.5 53.5t-52.5 141.5v160q35 -78 120 -104v-56z" />
    <glyph glyph-name="Ecaron.inicial" horiz-adv-x="260" 
d="M118 754l-98 -64l-98 64q-41 27 -51.5 42t-10.5 44v15h90v-5q0 -10 4 -15t19 -15l47 -31l47 31q15 10 19 15t4 15v5h90v-15q0 -29 -10.5 -44t-51.5 -42zM0 260q-95 0 -147.5 53.5t-52.5 141.5v20q0 88 52.5 141.5t147.5 53.5h40q95 0 147.5 -53.5t52.5 -141.5h-120
q0 85 -90 85h-20q-90 0 -90 -85v-20q0 -85 90 -85h110v-110h-120zM-80 195q0 -85 90 -85h230v-110h-240q-95 0 -147.5 53.5t-52.5 141.5v160q35 -78 120 -104v-56z" />
    <glyph glyph-name="Ecircumflex.inicial" horiz-adv-x="260" 
d="M118 811q41 -27 51.5 -42t10.5 -44v-15h-90v5q0 10 -4 15t-19 15l-47 31l-47 -31q-15 -10 -19 -15t-4 -15v-5h-90v15q0 29 10.5 44t51.5 42l98 64zM0 260q-95 0 -147.5 53.5t-52.5 141.5v20q0 88 52.5 141.5t147.5 53.5h40q95 0 147.5 -53.5t52.5 -141.5h-120
q0 85 -90 85h-20q-90 0 -90 -85v-20q0 -85 90 -85h110v-110h-120zM-80 195q0 -85 90 -85h230v-110h-240q-95 0 -147.5 53.5t-52.5 141.5v160q35 -78 120 -104v-56z" />
    <glyph glyph-name="Edieresis.inicial" horiz-adv-x="260" 
d="M-20 830v-120h-120v20q0 100 100 100h20zM60 710v120h120v-20q0 -100 -100 -100h-20zM0 260q-95 0 -147.5 53.5t-52.5 141.5v20q0 88 52.5 141.5t147.5 53.5h40q95 0 147.5 -53.5t52.5 -141.5h-120q0 85 -90 85h-20q-90 0 -90 -85v-20q0 -85 90 -85h110v-110h-120z
M-80 195q0 -85 90 -85h230v-110h-240q-95 0 -147.5 53.5t-52.5 141.5v160q35 -78 120 -104v-56z" />
    <glyph glyph-name="Edotaccent.inicial" horiz-adv-x="260" 
d="M-40 710v120h120v-20q0 -100 -100 -100h-20zM0 260q-95 0 -147.5 53.5t-52.5 141.5v20q0 88 52.5 141.5t147.5 53.5h40q95 0 147.5 -53.5t52.5 -141.5h-120q0 85 -90 85h-20q-90 0 -90 -85v-20q0 -85 90 -85h110v-110h-120zM-80 195q0 -85 90 -85h230v-110h-240
q-95 0 -147.5 53.5t-52.5 141.5v160q35 -78 120 -104v-56z" />
    <glyph glyph-name="Egrave.inicial" horiz-adv-x="260" 
d="M-10 855q0 -31 13 -48t52 -17h25v-80h-39q-67 0 -104 37.5t-37 107.5h90zM0 260q-95 0 -147.5 53.5t-52.5 141.5v20q0 88 52.5 141.5t147.5 53.5h40q95 0 147.5 -53.5t52.5 -141.5h-120q0 85 -90 85h-20q-90 0 -90 -85v-20q0 -85 90 -85h110v-110h-120zM-80 195
q0 -85 90 -85h230v-110h-240q-95 0 -147.5 53.5t-52.5 141.5v160q35 -78 120 -104v-56z" />
    </font>
</defs>
</svg>
